<mxfile host="65bd71144e">
    <diagram id="qML9j0wO6LPHpjVIiVij" name="Page-1">
        <mxGraphModel dx="1135" dy="654" grid="1" gridSize="10" guides="1" tooltips="1" connect="1" arrows="1" fold="1" page="1" pageScale="1" pageWidth="827" pageHeight="1169" math="0" shadow="0">
            <root>
                <mxCell id="0"/>
                <mxCell id="1" parent="0"/>
                <mxCell id="3" value="" style="shape=image;verticalLabelPosition=bottom;labelBackgroundColor=default;verticalAlign=top;aspect=fixed;imageAspect=0;image=data:image/png,iVBORw0KGgoAAAANSUhEUgAAAmIAAAEYCAYAAAD/B5rcAAAACXBIWXMAAAsTAAALEwEAmpwYAAAgAElEQVR4nOy9d5gcZ5W+fVd17p6cJM1IGkmjaEUr2JJlIds4B4J/LGnJJixgwCSzyy673uVjgWVZwIAXDCzGGAzGYCNn4yArWVaOVhxJozSjybF7uru66vvj7bFGXdWTp2dGPvd19SX7faurq7p7qp4+57zP0SzLQhAEQRAEQcg8+kgfgCAIgiAIwpsVEWKCIAiCIAgjhAgxQRAEQRCEEUKEmCAIgiAIwgghQkwQBEEQBGGEECEmCIIgCIIwQogQEwRBEARBGCFEiAmCIAiCIIwQIsQEQRAEQRBGCBFigiAIgiAII4QIMUEQBEEQhBFChJggCIIgCMIIIUJMEARBEARhhBAhJgiCIAiCMEKIEBMEQRAEQRghRIgJgiAIgiCMECLEBEEQBEEQRggRYoIgCIIgCCOECDFBEARBEIQRQoSYIAiCIAjCCCFCTBAEQRAEYYQQISYIgiAIgjBCiBATBEEQBEEYIUSICYIgCIIgjBAixARBEARBEEYIEWKCIAiCIAgjhAgxQRAEQRCEEUKEmCAIgiAIwgghQkwQBEEQBGGEECEmCIIgCIIwQogQEwRBEARBGCFEiAmCIAiCIIwQIsQEQRAEQRBGCBFigiAIgiAII4QIMUEQBEEQhBFChJggCIIgCMIIoY30AQijDi+QA+QCBUApUA4UAlndHtnJbTtTHlGgGTgGnABqgabkWBSwMnYmg8SyxsyhCoIgCGMU90gfgDBiuIHxQAUwO/nvHKAMKEIJr+AQvE4caADqk4+9wK7k4xhKoAmCIAjCmxKJiI0MGiqqlI+KPAUBH+Dp9m8n0ApEgFjy3yaghYFFlQLAXGAFsDD5mA7kDeI8BoMJnAKOADuBDcBmVARtVCARMUEQBGG4GS1CzA9M4HyEpgQlEIpR0ZkQSqD4UZEcA5XmigEdQA0q2tIE1AHnkv/dBlQn/x0pAsBUYBYwP/koR51f18PTw/NN1HmGUefUhDqnKlRE6XVUCvBUcpsudGAasBy4CliJEl6jOQp6DngNeAp4Fjg5kgcjQkwQBEEYbkZCiGnAJOASYBlwGUogjENFh4ZqAYGBiiLVo4TK68BR4BDqBn+G4UuLTUQJoOuBVcAUlIgcLjqAs6i03yuoaNp7gMtRInYs0gK8DPwBeJoRENMixARBEIThJlNCTEcJrxuAW1BpsYIMvbYTEVT05SCwNfl4HRVlMga4zxzU+X0QFX0ayfO72KgEHgQeQkUBM4IIMUEQBGG4GW4hNh54L/B3wGKGNyo0WFqBw8BuVL3SJpQASPTyvGnAx4F3o9KqYxqPx0N2djb5+flmfn6+Pm7cOPLy8ozs7GwjFArpXq/X4/P5NMuyiMfjlmVZ8UQiETcMw4hEIvFTp06FT5065Y/H4+6amhqjubk5YJqmC/VdCwzy8FqB3wM/REU2hxURYoIgCMJwM1xCbAFKnLwHVe81FgmjUn3rUSmyLag0ZxflwBeAjzJyBe8DxufzUVZWxvTp05k1axYVFRXMmjWLcePGUVBQQHFxsRUMBru+H1byoWH/zlioOrY3/jtJ25kzZ4yamhpPa2tr/fbt2xsPHz7Mli1bQidPnsxta2vLQy1S8A7g8DuA3wHfZRgjZCLEBEEQhOFmqIVYOfCPwEcYuuhX191Q0zQNt9uNx6Nq2w3DIJFIkEj0FrQaEmpQ9VdrUDVtX2Dg6UcD0Nxut15YWBjLy8vTsrKyvIWFhXi93jcebrebSCRCW1sbbW1thMNhOjo6aGxspKWlpV/nnZWVxYIFC7jiiiu49NJLmTt3LtOnTycUylgJmUVy5efhw4dbjh8/3rZly5aWTZs2hTdu3Dipra1tKv1/PxuB7wP3Au1DfLwixARBEIRhZ6iEWBZwF/BFBiZOEoBVUlISnTBhgqe8vDw6c+ZMd2FhYaCkpMQsLS018vPzPW63W+sSYpqmYRjGG4/GxkbOnj1LbW0tjY2NNDQ0UFNTw7lz56iurqampiZTgs2JSDAYbJo5c6a+aNGi6MyZM91LlizxjRs3rrCoqChaWFio+Xw+n6b1/HFYlkV7ezsNDQ00NTXR0tLC3r17qaqq4ujRo5w4cYKzZ89SV1eHpmnMmDGDVatWcdVVV7FixQqmTp2Kro+qZgoGUFtVVXVi27ZtR9esWdO5du3a6SdPnrwUZe3RVw4CX0GtthwyRIgJgiAIw81QCLGlwM+AJf14TgJoqKioiCxbtsxYsmSJtmLFipypU6cGi4uL3R6Pp6umaNCqoUuknTlzhkOHDr3xOHLkCMeOHaOxsXGwL5GO+kmTJp1ZuXJl+IYbbrBWrlxZMnXq1HFut9uLSscNeVo4FotRV1fH4cOHcblcLFmyJJMRr6HgXEtLy56HH35438MPP+zfsGHDlaZpzqPv79XPgH9BGcgOGhFigiAIwnAzGDGgAZ8Hvolqd9Mblsvlqpo3b171Lbfc0n7TTTflLlq0aHJWVlYuKo2ZUSsNwzCorq5m3759bNmyha1bt7J//35OnjyJaZq978CZRFZW1oHVq1cf/vjHP87q1atn5+fnT0ZFDIW+YxqGsX/v3r3rfvGLX9Q/9NBDK9va2lbTs99aF4eBTwFrB3sQIsQEQRCE4Wag4icL+Dnw/j5sG83Pz9+xevXqPXfeeWfeqlWrlnm93okMrEh7WGlpaeHAgQOsW7eOF198kR07dlBfX9/7E5PccMMN5+69996dM2fOXIgyqB0zWBa0RaLUNrXT0NxBQ2uEhtYwdc0dNLd30hmNE4nGCSf/BfB53Hg9LrxuF16Pm+yQj/EFWZTkhSjKC1GUG6I4N0RhXhC9l7RrD5yurKx8/Hvf+97Jhx9++K2tra3X0XukNAr8M6p+bMCIEBMEQRCGm4HcHYtQK9au72U7My8v79k77rhj+5133jlvypQpKxljKyjPnj3L1q1bef7553nuuec4duyY48156dKlfP3rX+e2227D7R7NxvUXUtvUzuPrX+dgVR21TR3Ut7RT3xImGjMwEiZGQkUGNU1D05JfFk274EtjWWAl11NYlhIvuq7hcem43S7ysvyUFeUwa3IxMycVMXtyCVNK88nL6vdajrMHDx787Y9//OPqBx544EPhcHhxH57zW+BOlO1FvxEhJgiCIAw3/RVik4BHUW74adF1fecXvvCFR77whS9MLC8vfx+DMDeNRA3CnTHC0RhxwyRhmsTiCSzA43bh0jU8Lhchv4eg30vA52HgwZf0dHR0sHnzZp566imefPJJjhw5Qn5+Pt/4xjf4zGc+g8/n69f+4kaC2qYOqhtaqW3uoK6pg6a2SFIEJYgZJpZlEfC5Cfi8eD3qHEsKshlfkEVBdoC87AC5oYEvTo3GE6zdWcnDf9vNhj1VJEyTnJAPXdNBG1yuWGkYi4RpEjdMDNNC18DvdVOYE+KSKSVcPncSV8wrZ1ppPr0tVOjGvs2bN//q61//es7LL7/8OdQPg57YgPKyO9P/cxAhJgiCIAwv/bnXFqH6//VUlB9bsWLFvT/72c9OLliw4PMom4c+ETcSnK5r5fDJeo5VN3K6tplT51poCUfpiMTo6IwSiydImFY3Qwt1Al6Pm6yAh1DAR1bQR0FWgIKcAPk5AUqLcpheVsi4/CyK80P4PIOPWLW1tbF27VoqKiq45JJL+vScWDzB0dMNvHbgFK8fP8ex6iaq69toC3eSMC2MhIlpWcqoS0ueHIBlnTfx0pKRJpeO3+umICdIaVEOFWUFTJtQwNypJUwrLSQr2P+s77aDp/n5X7ewcU8VlgYB7/BE9iwLjIRJzDAwTYu8LD8LKiZw7dLpXLOkgnEFfS6n+9P999//+D/90z99pLGx8bpett2LMtw92L9jFSEmCIIgDC99FWJeVCTstnQbeDyeo3fdddf/941vfGNpdnb2pwFXbzttaouw9eBpNu6u4vUT56iqbaa1I4qRMNF1Dbeuo2samqah68kUmcN+LAsSloVlWpiWhWlaWJZFwrJwaRpej4vskJ9x+VmUFeUwpTSfuVNKmDGpiMnj8vC6ez3UAWEBB6tqeXrTITbuq+L42UbaIzF0TcPtduF2dZ1fP/drWeqcTZU+TCRM0CDg81CaTAMumz2J5XMnMrW0oM/1WaZl8crO4/zkz5vYU1mD3+vB4x5euwvTst5IhU4ozOatS6Zz++q5zK8Y35ennz1x4sR3PvrRj+avXbv2ayiD2HScAt4JbO/rsYkQEwRBEIabvkqAnwKf6WF+049+9KPvf/7zn/8ycEVPOzItix2HzvLYuv28uu8kZ+pbMC0Lr8uFO5lq1Dgf9BoKLAtM08QwTRIJlS5z6RrZIT8TS3KZPamY+RXjmD9tPDMmFeEfZDQonjB5cdtRHn15L9sPnaUtEsXnceFxuwZTtJ6WrvfLtFRkLR43MS2TvCw/c8pLuHpxBW9dWsHkcX1rABCJxnnouV386qmtNLZGCAW8GVnSaiRMItE4Qb+Hqy6t4EM3XsqSWWW9P88wfv6tb31r/T333PPv9Nxm6gxwM7CnL8cjQkwQBEEYbvpyf/00cF+6yYkTJz714IMP/vLqq6/+PqrvoiOWZfHSjmM89NxOth08TWfMwOd143G7Mutb0Y1EwiSeLEq3LIuQ30v5+DwunVnG8rmTWDh9AhMK++LMcZ6Xtlfyqye3se3QaQACXg+6PjJnmDAtYnEVbSrMDbFi7iTevmouK+dPxtOHKODx6ia+/du1vLS9koDfg8eVGTNY07QIR+N4PS6uWzaDz75zOdMnFvb4HMuy1r744ov/c8cdd3zh5MmTb+1h0xOoxvOv93YcIsQEQRCE4aY3hXAJqq2PY0F0WVnZE2vWrPnt4sWLf0QPdg17K2v46V82s3bXsWQBumdYIkODJWFaxI0E8UQCl6ZTlBukYmIhd9yylLcsmtrjc6vONfODP27g2c2HVZrQ6+5PAfqwYyRMOmMGLl1jQcUE3n3NfG68fCahQM/1ZEbC5KHndvKTv7xKeyRG0NcXK6+hwTQtOjpj5GX5ef91i/jEbcvICva4KKLqwIEDX77hhhveferUqXf3sN0R4AbgeE87EyEmCIIgDDe9KYU1pKkL0zRt67PPPvtf119//U9JY0sRTyT4+eNb+OUTWwlHY4T83lElTnqjtaOTyePzuf/udzK9LH1E5s9r9/H9P2ygrrmdrIBvWFZtDhWWBZ2xOAnTZHZ5CR+9eQm3rJiN19NzhGzvsRq+/vPnOVhVS3bPYmjIMRImHZ0xFk6fwD/+/Wouu2RST5s3Hjhw4HM33njjFSdPnvxsD9ttRKUp01pbiBATBEEQhpueJMMngPsdn6Rpp379619/7sMf/vA3gflO25w818w9//cC63YfJ+T34hpdPQ57RAPCsTiTSvL4+VffwdQJzu4bkWic7/7uFX7/t91vGJuOJTqTRfKXzijlM7cvZ3UvUb/6lg6+8Yu/8bdtR8kKeDMe1YxE43jcOp942+V8+h2X406fKo3s3r37rmuvvXZufX3953vY5cPABwDHVgoixARBEIThJp1ymAD8BnCq7ra++MUvfuVrX/vaB4GVTk/ef7yWT//34+yprCEn6B+VacieiBkJsvxefvzFtzG73NmDtq65gy/86Ame2HiQ7KC3J1EwanG7dLweF2fqWnj61UOcOtfC7CnF5KTxJgv6vdx4+QzihsnWA6oGzp1Bge1xu7CA9btPcOhUHZfPmZQuteoZP378DcuXL39gzZo1ZyORyNI0u5yPcul/2WnynnvuGZLjFgRBEIR0pFNI/4LqIWljypQp//fSSy81Tp069StO87uOVPP5H66hrrmDoM8zpKsfM4FpWkQNg29/6kbescrZI+zkuWbu+tGT7D1Wk/E03XBhWRbtkRjjCrL40ntW8c63zO0xxfroy/v49m9fpjOewO9xZfxzbgtHmV5WyH995mbmV4xLt1nnzp07P3XDDTdcV1dX94E028RRKcoXUickIiYIgiAMN0632gnAaygX/VQOP/jgg9/74Ac/eC8QsE2erOeO7zxKfUt4TIowgNaOKP/wjsv5yvtWOc6frW/lH773GAdO1pEduDhEWHdiRoJYPMFtK+fw9Q9eRWFuemuuV/dV8cV7n6I1HCXgdWf88w53xsnPCfC9z9zElQumpNusbf/+/R+/+uqr76irq0vXlmsbKrob6z4oQkwQBEEYbpxSk59HGV/auOWWW77/3e9+93YcHPPrmjv43A/WUFXTTMjvHZMirKMzxrLZE/nWJ2/A7WBk2tAS5nM/WMO+47UXpQgDcOk6HrfOnsoaNu45wYKKCZTkO7vdTyrJY8H08by04xgdnbGM2Vt04XG7CEdiPL/lCFNLC9ItqPCVlJQs9/l833z22Wfn47ywpBRlZ7Gv+6CkJgVBEIThJlWI5QM/S/6byo777ruvftq0ae9NnbAsuPt/n+HVfafGbKrOSJiE/B7++86bKSvOsc0nEiZ33/cM6/ecIGeMnmNf0TQNn9fNuaZ2nttyhInFOcyY6NzSsaw4l0UzS3l5ZyXtkREQYy6dWMLk5e2VzJhUxLRSx4UVuZdffvnkYDD43RdeeOFmVKeIVPKBB7sPiBATBEEQhpvUu+Y1pDFlvfXWW9dee+21b3Oa+8OLu3l+y5ExK8JArcj72C3LmD/NubXOvY9u4tktRwbVZHusEfR5CEdifPknT/PjP28iYTouLmTprDJ++qW3U5ATJBIzMmrQawFet4u4YXL3T59h3e4T6Ta94u67775p1apV6cyJVwGLhuMYBUEQBCEdqULs9jTb7fnSl77kw0Gkna5t4b7HNuPzuEe1f1ZPdMYM5leM58M3L3acf3FbJb94YitZvZifXox4krYcP3pkI1+771ki0bjjdpfOKOXeu24jJ+QjGk9k+CjB63HRGYtz90+fZt+xc+k2+/Bdd93VCZx12gXqh4ggCIIgZIzuQmwScJ3TRrfccsvOq6++2rHQ+Sd/eZWa+jZ8vRiCjlYsS61YuPP2FY6u8bVN7Xznd2sBcI1Qq6KRRtc1ckJ+Hlu3n6/e9wyRmLMYWzyzlG9+/Ho0TaV6M43f66alo5Ov3vc01Q1tTpvoN954400zZsw4kGYXVw7j4QmCIAiCje5C7Gag2GGbpne96115wIzUif3Ha3nutcOEAmOzOB8g3Blj1cIpXLPEuVf0j/60keNnmwgMshH4xUBulp9nNh/iqz95Om1k7Lpl0/nq36+mM2ZgZnjVoQUEfB6OnG7gX+5/jphDZC4YDM5/xzveEcDZxHUe4LwyQRAEQRCGgVQhZmPixImVN998s6Pl+sMv7KI9Eh+zkSLTsvD73Nxx6zLH+fW7T/D4+gNkBceu0BxqckN+nn3tCF/+8VOEO53F2IduuJQ7bllKWzia4aNT5AR9rN15jIdf3O007bvmmmsmAh0OcyWk6asqCIIgCMNBlxArIE2roptvvvlMSUlJeer40dMNPL/lCEH/2PQLA+VD9ZaFU1k2Z6JtLhZP8NO/vIppmmOuM8BwkxPy8dzWI9x939PEDOd6sC+/bxU3L581YmLM5/XwyEt7HcXi4sWLS0pLS51WXWQDZcN+cIIgCIKQpEuIzQGcol5NN910Uy6Qmzrx/NYjNLZFcI/RaJhlWbh1jXddNc9x/olNB9h++AwBh7oxQUXGnnntMN/+7VrHebdL518/+lZmTCykM2Zk9uAAn8dFVXUTr5+otc2VlJT4ly1b5vTB6sDkYT84QRAEQUjSJcRWOE2OGzcuunz5cpt5a9xIsHZHJV535lvbDBVqpeQEVjo4soc74/zmmR14XGNzAUKmyAn6eOi5nfxizRbH+eK8EP/84Wtwu/S01hfDhaZpROMG6/ccd5xfvnx5uqfavu+CIAiCMFz0KMSWLl0aGT9+vK1mZk9lDYdO1o/ZlZKgVvW94y2XODbr/tvWIxw8UYdfCvR7RNM0gn4PP3xkI09uOui4zcr55XzybZfREXGuJxtOXLrO3kpnK4tZs2ale5qTmbEgCIIgDAs6EEKlJlMxVqxYYeLgQv7KzmN0RONoY7R2Km4kKB+fz/WX2RaCAvCXV/ahj9GUa6Zx6TqarnHP/73AriNO9lzwqbdfxlsWTqE9Esuo2avbpVPb1E67Q53a+PHj031/33xmcYIgCMKIoaMsK5wafMeWLVvmwm76ys4j1Y6RpLFCZ8zgxstnUphjb2i95fXT7Dh8Fr9PomF9xed20R6O8R+/fon2SMw273G7+OcPX01hbjBtcf9w4NI1GlrDNHd02ubKy8spKXFqO8nYbQ8hCIIgjDl01Coxm3dSQUGBMWvWLFvTxXON7ZyobsLrHptpSdOyCPo9XLPEsZMTf163l86YISsl+4EFBP0e9lRW873fv+K4TUVZIR+/dVlGC/c1XSPcGaO+xe5UEQqFyM7OdnqaCDFBEAQhY+ikKU4uLy8PTpo0ybZa8kBVLQ2t4THrHRaLJ6iYWMQ8h56Sx6ubeGXncVkpOUCygz7++NJentjgbFz/gesXsXT2RMKd9qjZcKChkUiYtIftr+d2u/F6HbOQIsQEQRCEjKEDU5wm5s2bF9V1e/px//FzxI3EmK4Pe8uCKY4RvfW7jtPQEh7TadeRRNM03LrOfz28jhM1zbZ5n9fNl95zJV6Pm4SZgfW2GpgWjis2XS4Xbrdj+jnzvZkEQRCENy06MNNpoqyszI9DfdjRMw1jNm1nWRZ+n4dVC6c4zq/ddRyXg/gU+o7X46KmoY17/7TRcX7ZnIn8v6vmZSQqpqFS0fG4sxDz+RyDX63DfVyCIAiC0IUOTHAYN2fOnBmFCxe5mZZFTX3bmF1RGIsnmFFWyNyp42xzlWcb2XusBp93bNa+jSayAl6e2XyI57cecZz/2C1LGZefTdwY/uCTZVqOCwTcbjeBQMDpKY7dwgVBEARhONAB+9JB0KZMmWIrlGpu76S+NYxrjKbu4okEi2eVOfqDvbq3iua2iETEhgCVtta490+baG63r1icVJLLu986n0g0A7ViGo4/HDRNS5debxn2YxIEQRCEJDpgCwsEAgGtuLjYJsQamjtoHMNiRdd1Fs8sdZx7RdKSQ0rA5+ZAVR0PPLPdcf791y2ifHz+sNpZWBa4XS5Cfvvii1gsRlubY/BLhJggCIKQMRyFWF5eHkVFNkN96ls6iMYMxmJmMmGa5IX8zJtmT0vWNLZx8GQd3jHcKWA0EvR5+OOLe6hyKNwvyg3ygesvJTasdhYWLl0j6LevjozFYkQiEacniRATBEEQMoZjajIUCpGVZbMWoy0SI5GwIKP+6END3DCZUppPaZHNGo1DJ+tpaBm7KdfRisetU9fckTYq9rYr51BWkkt8mKJiKiKmpxVinZ32tClQNywHIwiCIAgO6IA/ddDr9eJ2u23+Ah2RGKZpMhYXTRoJk/lTxztaU+w6Uq0sOUbguC52Qn4Paza8zoGqWttcYW6Qt62cQ2SYomIWFm6XTsChJtAwDOJxW//LKFA9LAcjCIIgCA7ogC0f5/f7cblcNl3SEYmRsDLg/zQM6BrMr7CbuALsOTq2WzaNZly6TmtHlIee2+k4f/vqeRTnhTASQ7+C0rQg6PcSCtgjYtFo1Cki1gHYFaMgCIIgDBOO6iM7O9vR7LI9Eh2TUSPTsvB7PUwrzbfN1TV3cPRMA54x2rJpLBD0e/jb1qNUnm20zZWPz+OqRVPpjNmiU4PGTJgU5QbJDtr9ws6ePUtTU1PqcC1gL2gTBEEQhGHCUYhlZWU5Lu1vC8fGZFoykTApzAk61oedrmuhuT0yZls2jQVcuk5TW4S/rN3nOH/zFbNxu3SsIY62Jkz1uTvZldTW1pJI2GrTzqKiYoIgCIKQERyFmMvlHB1SbWnGnmAxEiZlJTnk59gt046eaiASNcZsy6axgt/r5pnNh2hsDdvmls0qY8akYqLxoS3aNy0oygs5zp0+fdpp+NyQHoAgCIIg9IIO2O5+DkXMAGO2jspImEyZUOAoIY+dbRzySMybFSvZ1zFuJIgbCWJx9ejqTVp1rpm1O4/Znuf3ebhq0dRh8RQrK7ZHQQGOHz/uNHx4yA9AEARBEHrAjUOTY4eUDQAuXRuTokXTYOp4e30YwJEzDf22rbAsi4RpYVkWpgVYFpqmoesauqah6doYjBv2ny7BZVrgcul4XTrZQR8Bvwdd03DpOrquYRgJovEEuqbx7GuHuX31PNu+VsybzP89tQ0r+V4OFZNKch3H00TEDgzZCwuCIAhCH3AUYobhbCcwFn22LFQ7m4kl9shIJBqntrEddw+O+pYFhmkSNwwSCWUQ6vO6yQn58Xvd+L1u3C6daNwgEjXoiERpj8QwEiYetwuvxz0mDXDTYZoWkaSp7/jCbGZPLmbhjAlMGZ/PhMJsinJDhPwe9KQI0zUNI2Em35840biBkTBt0dX508YzqSSXk+dahsRY1zQtgn4P5Q4C3DRNTp48mTocQ4SYIAiCkGHcgC0PmTYiNhaFmGXh97gpzLXXCrWFozS0hm2F+pal+lLG4ga6plOcF2J2eTFzykuYVprP1AkFFOWHCPo8BLxudF0nbiTo6IzRFo5ReaaBrQdPs/3QGQ6frCduJAj6vWNyoUMXFhDpjOH3erh68TRuf8tcls2ZSH62Y+NsB+wrF7sTCnipKCuk8kzjkAixhGlSlBtiQmG2ba6pqYmqqqrU4RrANigIgiAIw4kb1dJlYvfBRCLhmCJyj8HQjmla5IZ8lDgUbdc2dRDujKMlzythWnRG46DB5HH5rJw/mZXzy5k3bbzjDb07Xo+LUMBLST5UlBVw/WUziBsJth48zUPP7eLl7ZW4XDo+j4uxltw1EiaRWJzVC6fxuXetYOH0CcPyOmXFOZhDlPo2EiZlxTkU5doXaBw7doyamprU4cNIeyNBEAQhw7hx8E3q7OzEMAw8ngubJec4+DGNdkzLIhjwUpBjj9ycrW8hZhi4dAe/830AACAASURBVJ2OaIzsoI/rL5vBrSvnsPySSeRm2ZoO9AuP28UV88q5Yl45T796iO8+tJZzzR2E/B7GQqmdBnTGE/g8Lu756LW8960LhjUqahhD96YkTJPycXmO9WaVlZVO6fcjQ/bigiAIgtBH3EBD6mBbW5ujECvMDSX9nhgzaTbLsgj5vHg9di+puuYwDS1hKsoKec9bF/D/Vs9jdnnxsBzHzStmMXNyEV/+8dMcqqolFPSOejEWNRKE/B6+95mbWH3ptGF/vXA0NmT7siyYOdn5s9y7d6/j8JC9uCAIgiD0ETdwJnWwubmZxsZGysrKLhjPzwngcbmwsBgr6wJN0yI76HO03tA0jTtuXcpn3rkirc3BUDK9rJCffultfPK/HuN4dSMBn6f3J40QCdPEret877M3s3rR1F63j8YMaps7aGmP0NgaSRbmJ0iYJiG/h+ygn5Dfg9/noSQ/izyHaKNniKJtlmXh87iYPrHQcf7gwYNOw7uH5MUFQRAEoR+4gaOpg01NTdTW1tqEWF6WH6/HRTxhjhlfV9OyyA45p1RvXz2X9127sF/RPQuoa2rnbEMbzW0RWsNROqMG2UEv+dkBypOrB9MxsSSX7/zDjXzsO48SiydGrTdbpNPgS++9skcRFu6Ms37PCTbsOc7+Y7Wca2qnLRxVfSMt3qj36lo9qesa8USC91yzgHs+dq1tf0MVIEyYFoW5IWZOKrKfVyTC/v37U4erANugIAiCIAw3bhxqY2KxmFMfPopyQxTkBDnb0IpLHxu9GS0LshyaPgOOrW+cONfYzp7Kal57/TSvHz9HdUMbja1h4gkT07IwTWVroesahTlBZkwq4tYrZnPzitn4HFYALpg+nk/ctoz/fni9Yx/EkSYSjbN4VikfvWWJ47xpWazZcIBfPbGVg6fq6Ex2JvC4dFwuHU1TkUiP24Xf606mYC0sIBpJpG3wHRmifpOxeIJppQUUOyzQOHLkCCdOnEgd3oMU6guCIAgjgBuoBIzkf7/B0aNHueaaay7YOD8rQFFekFO1zTBGmmSbppVWiPVEeyTKxr1VPL/lKFsOnKKuqQPTMnG7XLh0DZdLx6Ppb0R/LEu9Vl1zmHONJ1i36zhrNhzgPz91g2OE7O+vX8RTmw5SebYRn0P92khiAR+88VLH44oZCe751Qv86eW9GAmLkN/DkpllLJw+gWml+eSE/MQNk5O1zbyw9ShHT9cn6/NUMtula+RnOVtedEYN9CEoPkyYJvOmjXOc27VrF9FoNHV486BfVBAEQRAGgBuoRtWJlXefOHLEYRGZBmXFuWw7aCsrG7VoGuSG+r76sbq+jcfW7+fJjUokddUbBf3n67k0IBIz8HncTC8roCg3iAW0dnRyrrGd+pYOLBPW7jzGnT/4K/d/9XYKU2wUsgI+3n3NAv79gZcYTaVinTGDWZOLuHpxheP8fz74Mn94YQ8+r4slsybwxXevZOmcibgcTHE/ctMSPvW9x9h5+OwF0cfxaVK3LR2d6IO0SLEs1Ypr/rTxjvOvvfaa0/C2Qb2oIIwQqeUjbx4ssKBw1SfxZI/DMp1NyDNEGTABCKEME0NAVvIRAMKoiHtr8r87gXpUScTQrVAafiYDxUARMAnIB/xAEPAAEdT5RVDndyb5by3Sx7dHuuwrTpMixNL04mPqhLwh83rKBBo4rphMpbqhjd89v5PH1r3OucY2fF43Ib+zQorEDJZfMokvvW8VsyYXv1FkbpoWNY1tHKyqY83GA7y0vZItr5/mf/64gW998nrbfq5dNp37n9hKc1tk1NSKxY0El8+ZRNBBHb6y6zh/eHEPAb+bSSV53HvXbZTkZ6XdV1bAS3FeKNks/rxIckoZdnTGqWvqGLQ9hmmZ5GX5mTOlxDZnWRbbttk0Vy2yYlIQhL6RBSwE5iYfM1CiZCJKgPX2s9pECZU6VDbqMLAL2IdaMNQxLEc9MCYCi4DlyX+nAeNRAqwvJFDnWQMcAl4DtqKut5ksBdEBF0oOxBm6cuQhw406qEpgZfeJw4cPk0gkcLkuTEGWFeeqnpOMlXp9zeac351ozOAPL+7ml09uo7q+laDfS04PETQjYVKUG+TfP34tk0ryLpjTdY3SohxKi3K4ZkkFz285wj//4nkeW7efd101j0tnll6w/fiCbBbPLOWZzYdwu/qfPh1qLMvC43KxfO5kx/k/vrhH1cNpGjlBH3lpUoxdbD90hg17qggko2GWZRHweigpsIu3prYwLeHooFOTsXiCS6aUUFZkXwVbVVXFgQO2LkYHUFFhQRAEJ0LAFcDbgWuBWYPYl57cXwiYAry129xB4K/Ao4xclH4CcAvwNuBywP6Ltu+4UMJtPErIvSc5Xgm8DDye/Dc8iNdwIh94BMjmvAhzJV/nJkZhPXBX+GFf6kRtbS319fW2J0ydUIDf6xk7zb81K22U5cipej7x3b/wzQdeprmtk5yQv0+RKdOiT42pr79sBn939TwaW8P8df3rjtssmVU2avzETMsiK+hl8rg821xNQxt7jlbj97rxed3sO36OXz2Z/lpxvLqJf/vVC4QjsTfSjZZlEfB7GO8QRattbCfSGRt0ajKeMFk8a6Ljfnbv3k1bW1vq8EuDekFBEC5WAsDnUKLoeeCzDE6E9cZs4GuomtV1KNGQKRYAPwB2AL8AbmNwIqwnKoCPA08CW4C7hvi1vMDVKCG5DFiMimIuJqUWfrTQpTr2pE7U1dVx9KjN2YKJxTkU5gZJpFn5NtqwLNVT0onv/O4VXtl9nJyQD4+7bykxt0unrrmDJzb2rT+0162Ey2sHTjkex8LpEwj6PKMi3WuaFjkhH8X59tTh4dP1NLV3vhFd9Hpc3PvoRr5+/3McPnXeE7ijM8aajQf46H8+SuWZBgK+89/7hGmRnx0gz6E/ZX1rmHA0Pih/OssCn9vF5XMmOs5v2LDBafiVAb+gIAgXK5ehfqTdixJImcQFrAKeBh5EpQSHi8nAT1Di7y5U9CqTzEUJwG3A5+k9tdsXLJyjbJ2MwrQknFeHB1GFhG/kc0zT5OjRo6xceUHGkvzsIBMKs6mub8UzBlZOWpbyu3Kiy16hv/i9bu7/61YumTKuR5+t/cfP8aeX95Ad9FFd30ZVTbNtNV9pUQ4FuQHqm8PorpFN9qq+nH5Ho9naxnZicQOfR9lt6JqG3+vh0Zf38bctR5kxqRC/10N1Qysnqptw6zoBn+eCb72RMBlXkOX4ntc0tGGa1qA6NhiJBOMLs5lfYb+WJBIJ1q1blzp8DIcfIYIgvKm5BXgYldrqjXZUHdQxlCfnOc4XrXeJgWzOpyPHA/NRaUlnx+kL+SBwHXAn8Oe+nkAf+TTwDVQ6si9EgFOouraTwFnU+UdQtVddhfvZqLq5cmBmcv+93WgnAT9CpS//EVjfj/MY83S9OTWovO2l3Sdff92eTtM01dR66+unh//ohgINomn8qbL8A2sz5NI14kaCL977JF957yree+3CC1JhlgVrdxzjPx54kaa2TgI+N+2RGEdO1duEWFFukPJx+VTXt414wb4FeN0uXA5qKBy1v4eapgryY4bBzsNnsVDvjd/rdkzdmqZFaaFzB4Pj1Xbfuv4SMxLMnzaefIeI24EDB9i3z5aBfxUY/AsLgnCxcB29i7Ba4G/Ac8AmlDjpz+pHHShARYOuA94JXNLD9uOBPwCfAv6vH6/T0/5+yPmarZ6oAV4EnkGlLY+iRFdfCaHOcymq7uwKen5vr0Clgf8RJczeFHQJsShqVcMFQszhxgWoVj2jNMJnQ0c1rnYimGZVZF/wuF0YCZNv/uYlnnz1IFcumEJJfhYt7RE27Kliy+un0JKixEr6jB2oquWdzLXta1ppARv3Vg34WIYOC03XHBuJ9pQydOk6AV/vItLCony8vf4MoLqhddCF+pYFl13inJbcuHEj4bAtWv23Qb2gIAgjy9Aai08Ffk96odAI/Az4KSoaNFBMlK3DK8nHf6CK9r8OXJnmOe7ka9egUpYDZRFK1PVW6/YqqlbsSVTEb6B0oOrAtgD3oSJkHwA+hrL9cMKPEooLUFG7sWTxMSC6hwv3Au/tPnnw4EEikQiBwIURhoqyQnxJgTHam39rmkY05uwxo1JwAxeU7qST/K4j1Ww9cBqXrpEwLdwu3RYVcukax842Ou5n1mR7K56RQNM0wp1xDCOBKyV9GBqAKW4quq47mtt2xgxqGtpx97FOz4munqJLZjsLsZdestXkt6IuNoIgjDk0LDNGtPoA3llXDZWP2L+hPLKcOAC8C3BedTU4YqiI00uoFOS/oyJJqXiA/0UFTJxvJj2zCvgjPaci96GE4V9Q9hNDzWHgX1Fi9rOourR0wvdjqHKpD6Lquy5aUoXYBVRXV3P06FHmz59/wXhFaQE5IR/tkRgubXT4X6VD09SN3omgzzPoFYsaqmast1ozt0vnRE0zze0Rm+3D1NKCpLC1+rQac7jQNY2OSIyYkcCXcj65IT8et2vA4tuyLPweF0UOHmLN7Z3Ut4QdTWH7SsxIsGhqCdPLCmxz9fX1bN5sM8/fj0N7r6GgrKzsBtSvveLkkJbycBrradxpXkddwBuSj2pU6sC+1FkQLkI0zUW4aivBKUvRXT4sa1ALyK4A3p9mrhKVVrOvXhtaosD3UaLvEZzF2GTgK6joWX+4AmUXYb9AKmLAfyZfv72f+x4I51CC7C+oYv2r0mz3LtT17gNcxGKs+932dZS/Rm7XQCQSobKy0ibEivJClBXnse9YDS7vaBdiGp1pasQGk5rsLy5dp6ktTE1ju02IjcvPIuTzEInFHeuzMoWuabRHYjS2hm09MKeVFZAd9NEZMwZ0jKaljHVzs+weba0dnUTjxqBEaNxIsGrBFEcxt2vXLk6ePJk6/CLDl1//APAW1EUzk1SjVh/9BnWBGxv1A4IwEHQXic5W4s1n8JfMxDIGlcH6OM4r9iyUhcVwi7DuPA18CJUmdWpGfCfwO9SPyb4wA1X3lk6EHUfVn41EqcYu4EaUGPt0mm3+H+rH5qcydVCZpvtd6wRK+V+AgxM5bpfO7ElFaZs3jyY0TSMSNRx9z/xed8buVLqu0n5n61ptc3lZgaQlyMjeN3Vdo6Wjk6qaZtvcuIIs5ZI/0M/csvC6dfIchFh7JEosbgw4zW1aFqGAN+0K1ieffDJ1yEDVPgwXETLzqzKVCSj/n0eBtcDqETgGQcgcpknH0Y3J1OSAf8gFSF+b9WdU2jDT/IX0hfnZwCf7uJ8cVDoy3Y/C3agFAyNZLxsFPoOKkKXjk8BXM3M4mae7EEug2g9cwO7dux2fOLN8dNQ19YamKff8rjY73fG43RntDpAwLU7X2U19c0I+xhVkjbiw1TSNeCJBpUMtW9DnYfK4POKJgZUNmJaF3+fB77X/6GwPx4jGEwP2EIvFE8yeXMzMycW2ufb2dp577rnU4T2oNN7FzFtQN5CPjfSBCMJwobk8xFvOkIi0wMBLGxagCvWd+OVAdzoEfAu1QtOJ1Sjj0t74L1IW4XVjK3ADDgGYEeKb9CzGvoW6rl10pBY2bU/d4MCBA7S1tZGdfWE93dwp4wiMgrqm3tFImKZjREzXtYwvNjh1zh5tAtXuaDR0K9CAQyedF8lMn1jI81sHVlZlWpAT8uPz2Fc5NbVFME1zwJ9F3Ehw5YIpjvYf27Zt4+DBg6nDz9G/JdhDgYW6KJ5F/d2l1n7pDmPd68G6j+moEoJClEv1TJzTDgHgV6j0xv8O6dkIwmhA00jEIoRP7iDnkhswzQH9UEznuH6GkWs11PX6DwFfcpibizKa7ckH8XbSp/OOouqvRlsz7m+iFkx83mHOgzLYfQtqsdVFQ+qXbycqbfPGeFVVFUePHuXSSy8U1ZNKcinMDVLfEsY9wkakPZNeKJqmmdH2QrqmcbbB1mIHgAmFOaOioMel65w814xpWTY7iaWzyvANsGDfsiyyAl7HBuxNbREGmlYwLYuQ38tVlzqbTz/11FO2pwC2wQxgoZafnxiGfU8BrkfVjsx3mP8fVC2GrBIVLjp0l5f2o+vxFpTjK5mJleh3rVg6N/nDqNqkkeR54IvYL5BulOVFOiGWA3w3zVw78D6UKeto5MuoVOo7HOYWolKU38joEQ0zqSGESlL8UQzDYO9e24JKivJClI/PJ26M/joxFflyMBjNsPLRdY2G1jBxw/6rrTgvxGhoOulxuzhR3cSZWnsKdeH0CZQW5WAMMD2pIn5De47RmMHMyUXMKrenJSORSLq0pC0FnyGcVkENBSeA+4HlKP+dVPzJ+eAwvf6bjSDKh6nrMYNR2sPuTYGmqVqxYxsHunLSfvFQpEsLZpLXUJExJ+b08LxPA9PTzP07Ixvp6w0Ddfwn0szfiXLtv2hIFWJNONhY7NjhXE4za3LRgG/KGcMCXUsXb8ms8NF1jaa2iKOdRmFeAN2lj3hUzO3SaWgNs+Ow3a8wN8vP4lllxNIY5PaEhrKYcKrVc4qS9RUjYXLt0ul4HNKSW7dudTIlfo6L1yAwjPr1/G2HuXmo1UfC4FmCEvNdj430vU2MMAxobi/RumPE6o6iufvteTguzfhoEGLNpBckzu7Y6nyc0pkAG3D+sTbaqEGlJ52UdR4qanbR4FTduCV1YNeuXY5Pnl8xYVDeT5lC13THXFqmA1C6phHpjDv2vizIDuJzu0dFnZhlwfrdJxznVsybPDCxqEHCMDEdF00M7DuUME3yswJcs6TCcf6pp55yej9HIi2Zaf4VdcFN5bNI5GYo8KJWrnU98lGNmoURxaL92Cbof1Qs3QXI3ittZEhn3ppuxdz7gBKHcRN1bRgS99sM8ETy4cSHgNIMHsuw4vQFtKVtDh8+THV1tW3DS6aUkBPyOUY5RgsWydSk05xlZTQCpTzNDFo67L50Ib8Xj1sfDdlJfB4Xu45W09gasc1dfskkSvL7v8JTQ8MwnYWYb4ARsc6oweLZZcmWWxcSDod54gnb3/BW3hx1UgbO9SFLUAW+wtBiIJ5tI47m8hKrq6Sz9kh/o2L2m5vCuU1H5knXYigf+8pJP+lXSj8FvDxUB5Uh/gNlb5FKLimdgMYyTkJsLykffHV1tWMD8EnFuZSPz8NwqHkaTWiac27SsgbhPDOg41CptIhDA22vx4VL1xgN13OP28XZ+lb2HbcvqJlQmM2qBeVpuxWkQ9Mg3Bl3tL/IDfnQNa3/Z67BTctnOk69+OKLHDhwIHX4UcbOr8HB8gLKobs7bmDZCBzLxcZoXp305saCcOUmME368THVpBmfQPpoWSb5Nqow/6puj6tR3lqpF9SVOC/YAdXrcayxg/Q+bh/gIonwO33JTuNQJ7Zhgz3T4XbrzCkvGbC3VKbQNeeImJnh8JMGGIbpKGJ8Hjcu1+iIiIESjC9tdzaTvuWK2f2O3umaRkdnzDEtm5sVwO/rX1o2biSYWJzLqoXO9j9//OMfU4fagL/2/YjHPJ04F+RenukDuQgRITZK0dweovXHiNYeQXf3uXNKulqwOagm2SNNJaoP5SvdHmtREf7Um++tafaxh7EXDevi12nGF5BedI4p0ql9W/rGyWEf1Eq60YxpWQT9HsdVk+FoZmu2uwxTnVouedw6HvfoKTPxedy8svMY9S0dtrmlsycya3Ix0Xjfg0uaphGNJ2hoCdvmcrP8+D39E2KdMYMrF0yhINtexnH69GmeffbZ1OGXgUN9foGLA5svIKMn3SIIw0bHsU3Kbb9vPjv7cS4K96KiLmMFP8ol34m/4pziGwv8DWfTWRcqUjjmSSfENqYO7Nu3j8ZGe83g3KnjyAr4HGt/RgOWqfyrnGjtiI7IT1vT4U9e05S57Ggo1gclDM/Ut/HyjmO2Ob/XzQ2XzSDWj5R0V/P1hla7EMsJ+ZIRsb7ty7IsfF532rTkk08+SUODzf7HFiJ7E2Bf+pp+pZXQdyQiNorRXB46aw/TdmQ9uqdP9fbbSd9L8qOMnXT+bJSdSiomI9vCaLBESB/NSyc8xxTphNhuUsK1J06ccHIoZ/K4XMqKc0ZtelJFxNILsUxb62uahq47reC0kkapo+ca79I1nnnVOYh084rZlOSH+uwjp2ka8Xgiad56IVl+L3lZgT73seyMGSysmMCyOZMc5x999NHUoSqUMeKbDac2Duka/wp9ZzTUDQk9oLt9dBzbRLSuEs3t1Df7AsKkFyp5KHf70Z36UczDuWaqCmXoPJaxGUImmQdkZfJAhoN0F5SzONSJbd682bZh0O9l1uTiUWvsagEhv3OtQFs4sxGxroBPqmM9qIUDoy2q6PO42Xmkmn3H7EX7k0pyueGymY4LD9JhYdHokJr0ed0U5YZIOIUKHUgkTN6+ak5yccOF7Nixg/Xr16cOrwHq+3ygFw9OX6iL1UNNEM6j6ZjRMG2HXlJO+1qv2vkR0q+Umomq0bp2KA9xGLgszfgBVI3sWGY7zqnVYi6CleA9rTh4lZT8q5MQA2VpsGaDbYXaqEAD8nOcDcXbI9HMRqAsC5eu4XbwzUqYJolRkpbsQtc12sJRnth4gHnT7J6Hf3fVfP66/gAJ03QURXbSt3gqyAn0yQYlbiSYPD6f65bNcJz//e9/Tyx2gdYweXOmJUEtb09lMIK0KLnPLNQFsACVNqhHRd8iqBVodrU9PARQ/TYLUC1dslC+XqBuPG2onnR1qJ56Q/UH5iRm7Z40gyMbZcwZQL3nhaiamGagBZWxqGFk635KUMcWQh2vF/UenwP20f/32436LP2o885CvdcdqO9WGHXufUL3+IjWHqZl12PkLXkvltHjR7QOeAzVn9GJ2cCzwC9Q/VtHozP93DTjTrWiY41zqDqxS1LGPajPZjR+Hn2mJyG2KXVg586dtLa2kpOTc8H4/GnjyQ74MPp8Q84MFir6NKEw2zYXNxK0dsQc04TDdjyWcpHPDthD5ZFoHMNIZLwJeW8EvB6e2XyIj9y8xPY+XjK1hFULynnmtUNkOZxTKroGtU3OQmxcQd+iy50xgxsvm0G+Q5F+bW0tjzzySOrwBt4c3mFOOBkeNvVzH4uA1ahowEKUOEhn0hQGjqHSIC+h3nd7PcPA8aC80FYDq1D96EpRIqUnqlHu5AdR0dH19K2HoIaqucniwmLueQ7bLUQJo64G7Xry4UVlGI734fUuQVkTrE7ubwqqYbsTLaj3eh9KQLyCs/Hn1OSj+/PS3ZincD517UOdT+pxL0E1i16V3N7J4mEfqpF2X8LlM5P7vAq4FPV5hlDCumu/Yc6L6uOo79ZaVNamR9Gvu/10Vu8ncmYPwYkLMeP20ohufBkVVUq3oMUF/APwCWAz8CIqpbmXfgjEYSKAs4krqMUIY52ua0uqEIOLoN1RT0JsO+oP8Y2GqJWVlezbt48rrrjigg2nlRZQPiGPg1V1uLyjyNbDsnC5dAodImLtkRhNbeGMdgawLAufx0VW0H5tDXfGiRsJnI02Rg63W+dsfRtrNrzOp95udz5433ULeXF7pWOT8FRcLp2GljCmadkEcGlhTq/1eqZpkRvycduVzi3WHn/8cU6dOpU6/BucV0S9GXCyqjjcx+euBu4GbqTvNVFBlEiZh1ptFgH+DPwA5Qc0UPyooumPo27w/WVC8rEiuZ8q4AHgXtK7loO6Pj6EEgo94eN8x4YuAdadX6Ju3ulYBnwB1YLK38trdZGLEi6XAh9ECZQfonqKdg/9fAz4l27/v5P07+GPgLd1+/9foLyqQNVK/QB4P+mFeBd9KRi+DNXC5u30XuMTTD7Gofp6Xp8cfx34GeqzdP6Fp2lYlkbLjkfRNAiU9SjGTqBc6dfgHE3uwoXy61qJcqqvRKX/XkV9zw/RN+E9lOSR3mnfqVZ0LJLux1NZRo9iGOjpAltLSrjPsixHPzGvx8XC6RMcm1mPJKYFAZ+Hghx79KSlo5O2cDSjETHTUnVXuQ5CrD0SxUiYoy4iBuDzunh8/QFaw/YsyPK5k7lyQTkRB3+wVLp6bTrZXuTnBOjNzjYSjbNiXjmzJtt79BqGwQMPPJA6fBx1UX0zkoWzEHNqfdSdyahU7kvAzQyuMD2AEmSbUF5A6W4UPVGCivjcR88izESlsE4DJ1Hp0nRpu3Lg31DvxepeXr+v5+9OPpy2T/dDIBslnDYCf0/fRZgTU1FC6gkufJ9TL8o95edSi2m7npuNsj/4CL2LMOj5PSsFfo967/8eZxFmoiIgNagIbrobyyUoMf1qcl+OaJoOWDRt/xPh07vRvT2upNyAEqN9/cECUIHy7/oWynx0G0qQ3Y/68bAcFeEbTnJwjgxbQPswv3amSPejyXnV1hiit/DVy6QYxK1bt467777btuGy2RN5+G+7sBg9a7tNS1lXFOWGbHP1zR1E45lNBZqWSUFukKDD4oG65PGMJi+xLnweN5Wn63nutcP83dV2/7wP3riYDXuqsCyrx5o7XdNoj8QIR+MEfBe+B1kBL163K9nuwHkxg65r3L46NSukWLduHa++astAPsKbs0gfVPpoWspYA/BaD89ZAjyMijqkEkWlHNejBG4D6sLoR6WzClBppstQN8juosKHuokvREUc+urnFgQeR0WyUtmBSg1tRd2w61Gpqwjq5uNBCcEKlIC7EeVG3l0kzEnu/92kXzWXKgLSXeK6ttO6/dv1306/LypQ0dqVaV63DnVD3wacQb3fLSjhUojKVCxC3eS7RwSuRUXnbk3uoz9COvVcuwTkD4G3OGwfRQmlOlQtV1fdYDqxtxwlyJ2Kq3ej0o2voCJd7cn9uFHfg7LkMVyDSmN2v1DORUUuZ6EiVHZ0F5qZoHnHn9CAQM9pyg3AlcA/Ah+m99R3Kl1/D5eiIqEJVI3TftT3dT/qb+k46vs6FASxC2lQ7+FYL9TvIp0Q6yl6OSboTYi9gvpjfOOPedu2bdTW1lJScmE6en7FePKzg4Q7Y7hco2N1t2UqURI5PwAAIABJREFUM9fcLPsPzbrmMLG4gd/bZ/flQZNIWEwoyMLnkL49XdvKaGhvlA6XS+ePL+7mtpVz8Kcc/8r55Vy5sJyXtx8jlMazDZS+isUTtHZ02tLFuVl+fF43iTRRwUgszqUzSlm1cIrjvn/9a5v5cgR1cX4zUgz8k8P4n0h/MbsO+F3yud1pQaXWfgkcofe0kwcVnfkIKg04vtvcpSjx9Hf0rW7vX7GLsCOoc1tD32qQqlDRvf8GrkD1ruu+CCkPeBAl1lJ7DhrAp1DRhq4/zgRKsP6w23ZRlPCt5nxUrHuN2OmU/U5DtaCa4nC821BRnqfoOW3aRXbyfL7IebF0Geq7fxODa+kVRr3/qb0Ln0UJ2LWoc+5E3Sf8KKEYwv49eVvymFILdjehUp5r6HlF73GUQPpP1Od4Nyqt2Z1voG7KX8ApCqm7wEzQtONPgEVg0iLMWFodVIeqGfsx6rv8LtQPjIH8dHehIoGlnPe96kT9gNiNShevTf73QNOIzivS1HXwYhFi6VKTvRcoj3J6U0yvowov3+DcuXPs2GEv95hYnEPFxAKioyg9qSJiPjwOqxRbOjozngo0LYuppc42Tqdqm0ddfVh3Aj4PeyvP8exm54j9B29YjMft6tGQVkO567e0238w54b8+NK461soUf3+6xbidhD5R48e5amnnkodfpqU7+6bhBAq0pLqdhtGiREnKlDpolQR9gwqvfkVVKF7X/6446i0zteBpcBvU+bLkq/ltJAgdbvPpoztRUVE/kzfRFgqm1Dp1tRjGo9KVaZioSJvaznfWmYD9qiihYp0bE/OvYpKN65HCc/uEcAQSvhNSdlHDPgSKkL2W/omwkDdZB9HpVg/xflo1PXA93GOkvQVHSXwujiJarR8E/Bz1Hm1Jo/dQEWxalA1U92F0HxUHVeqCPsWKkr5KP2zVdkEvAMl9FOL9e8kXVQM0HQVSGva8SjhU7v64jF2ArgH9SPiKlTfxz2oNPhg8KO+A29P7n8t6vv9J9Q5TO/n/uxpH0UE9RldDKTLblz0QiyCw+pJpzoxTdNYPLOsz6acmcC0LPKy/I4F+U1tmVphfx4NmDHRXiaTMC2qalsyWq82EHRd47fP7XD0Dls5v5xrlkyjo4daMU1Tq1VbOuylO1kBH163yzEmGI0ZzJlSwrVLna9NDz74IE1NtsWAv+rhVC5WlqIiLTc5zH0f5zYhPlS0K/WL+XPgnQyuLdQZ4ENcWCwO6gb0c3qOyN/MhfVDUZTQSI0u9ZcYqgB9d8r4u7kwetcTTrVcfa3v+jb2dGQN6nx/wOB83u5H3di7Igd3oWqU+krqn98qzkdwjqG+V/21gilCRVq7p48SnP9eDOZ8H0ClYFN7Rf4TzqlU4LwYa97+CNHaI2iuPmnVOMri4usoUXY5qi7tftR3aSjqsCaiIm8/RqUun0K9T/aiWDvpTiLO2G1tlEq697hrpfKYpS85xLWpA+vWrXPccNnsicmoxiCPaqiwLFsarYv2cCyz0TDTIjvk45Ip9hXGdU3tnDrXPCrrw7oT8HnYd/wcz6SJin38tssI+T09+IFpmJaF4dCFQeteUZNC3Ejwrqvn2+rKQEVoHYr0X2N0OukPtdcUqOL6m1A3u7WoOpxUHkOl5Jz4DOqXfnceRS3TH6oL+LeA/00ZuxW1Ai8dqW1lNjN0NiSdwHdTxvJRwmM4mcP5VYhdxFA32xeH6DWeB+7gfPSyr+LSiWWo1G0EeA8qQ9JfvoK9MfN/YI9KDpSXUatGu39XvcBPSR8lAg10XxauYD6W1e/ggYmq8/o96sfBYtR7dRsqsvo4Kho/mPqvEEqc/waVrv4yaqVsOtK9lp+e3oexRbrIl8ForuvpA33xmtiMCpO/kVPbs2cPlZWVVFRUXLDhohkTKC3O4Wx9qyq8HnE04mkidCqNlrkjiRkJZpcXM2WCva7wVG0LzW0Rx7TbaMOl6zz0/E5uWj7TJowWVIzntpVzePiF3WQ7rAw9T98VcDRuUFFWyG1XOJsn/+53v3OyrLiPvqXRMomGioY0MLhfbxoqxZOPWlE4mZ5XI3bdmJ1qhULY03+VwOcGcXzpuBtVb7So29jnUTczp2NLFRCpEazB8jLqs+heiL0ElRoaLj6L/WZyD0PfB/CvwP8AX+3n89JdEX/EwAwzS7HbdmxCCfOh5HnUud7bbWweKqLrWCdqGTGCFVfiyS7pzVusL5io1P1B4MnkWAAV4ZqB+t4vRC0qmEr///4no8oKPsb5+shU0qV4AqgaR3t7lLFHuuWuQ7XgYcToixDr6lN1TddAS0sLmzZtsgmx7KCPxTNLOVHdODqEmAZGGiHm9WT2+OJGgqWzJzqKrddeP0VnzOhFvIwO/F43+ypreGzdft5/3SLb/MduXcrfth6hPRIbkghfNJbgnasvcVxw0dLy/7d35vFRFHb/f+9udnMnEELCfcoRBAW5FBAVLFoP1FqvR7Fq0dqnttUq2latVlsfax9r609bD56qVAVtVRRPRBTBA7lE7vuO4UhIQs49Zn5/fBNIdmaTTbJX8Pv2tS/cmdnd2SMzn/ken28ZzzzzTPDitUhEJ9FwIEXqseRRJJUSKv1zGVIf1pAHkVRZpKkAHkGEVz0jkW7Gt222D273j/TBtghpRGgoxPqG2DYS5CEdow3ZhqQjo8GfkEhRWyJiIGm/1u7jzTSebWoCfyA6F0lPIlG7hmnf6cjvrfFJwDRxJCXjye2HaUTteq0aaSzZgtSrgkS0eiLRs1M4Js7Cnf86BIm2/Q75HBsSSoilEX3rjFhhdWYX2r0QCzcEsyB4wYcf2l/EnTa0V8IMrnbioKbWZ1sAnp3eFsuelmEiEbjThvayXb9swx6SXAkgXMPE43bx/HsrbQd49+nSkcsmnUR1bVPNWuGFIn3+AD3zsvnBRHvLildffZVNmywlTM8QuxE7iYiJFNmfh6SFmqrB+VHQ/S1IIXy0eLPuNRpyeYhtDwbdt3PUbivPA3MQy445SMF9tBiF9YT7BNFJV4NE+yytxM1g94e5AGsNVjgkIfVODVlO6OHNbcVAUp4N38PpWFPcmGaApLQcPB17YBqt6floNWXIheJzSNT5DMTKo76xYh3Nm087kIul4LrLSuwbCNyEFjDtjVANPi2dFpJwhCvEPiSoS2nRokWUlFgbe8YU9JQBzglQtO90Oiguq6baaxUF+TkZUhweg/ykzyeCYmhf67zGXUWH2bj7UMwjdG3B405i+74SXp7/te36aeeMoE+XDnh9Vgsmp9NhGy01TNPyXVR7/Vxx9kl07mAtcaipqeHpp58OXrwDqZX6LhFAuok+Bx5GDu7nIWKsKbpgFTeziK75YxViONqQUdibhAbnmycReqhxa3kQiVL9V92/obpKI0FwgX4tEt2IJnNpm30FtF6YD8bqY/dvojvl4hPE4b4eJ9b6R8yAj5Qug3C6U4lzQbOJXHB8iFw0jUCaDP5A8878D9DY47MU68VLPeHNj0t8Qhm37orpXkSBcOcRrUbU+tFc1O7du1m+fDlTpkxptGHXTpmc2DefT7/eQVqca56cTgflVTUcKq2kV36HRuu65WaR7EnCMM2ot1vU+vxMOqW/bXptxaZCSo9UN+m/lYikpriZ/dE3TD19CD3zGteQdu6QzjXnjOCPsz5uJDBNE5KTXHTMtFrelFfW4m0wa9PrD9C3a0eumHSS7evPnTuXFSssI/P+Sfht/7HGBO5GLADaqrpNRNSUI/YFe2l5N+EQGs+mM7HpkI4CXwbdPwFJj24IWv4Bja0T0hGRPc3mOdoDo4Luf4N0lUaTdXWvEe4svmBVUoX1ewmXsTSuh6tG/MeiiRdpemh4gRE0jcHEmZRMct7AaKYlW4sPsT35DImW/glr1LoeR936T5CLp1LkgqyPzbahZme2N0KNMtoZy52IBuEKMR9yYGxUFDR//nyLEAM49cSefLzSrlM+tjidDo5U1rC/pMIixHrndyA/J4M9+8uiGo0yDJP0VA/nhyg2X/LNznbZeOt2OSkqPsJz7yznd9dPtqy/fNIw3vh0HVv2Fh/tXDVNk+RkD52yrUKstKKaGq/vqJdardfP1VOG2w739vl8PPnkk8GL99PyVEwsMZEU2M4470c9wSmbg4g4iDZfI+m4+qsSNxIJCD7hf1y3bcNjzglIqmwWMjVhMzJQO9HxILMuG/I1rfNCawmVyHfa2qHI+5ELh9YQPJ9zHy0bG9RaVgXdPwURhLUAht9LatcT8eT2xfTHNC3ZUvYjRrIbkSYfO4YA5yOWIgEkihws+AmxrL2Rhf3ED2i7pU3caUnIynI189FHH+H1WktQTh3Si4zUZIw4+1g4HQ6qvX627LH6wKWnehjcKw9vlA1oa+oc4Yf2s0tLlvL52l0hLTYSnfQUN28u2cCGndYSkrQUD9edN7KRVYXfMOicnUaOzRD2Q2WV1NT6cTgd1Pr8DOyZy6Uhxhm99tprdl52/yL6EYa24CCxUgTB9RZ7iM04qGKsHVx2XZ9exFojuO4lHfgpItRWIgarj9dtewEi3Foz0zKauLEWTLem7qo1tKRbLviAvYfWG5cGe1+tJTZ+VsHCPJ+Gv3XTJDm339H5k+2Ah5ELuFA0HNIeqrP1ZNo2MzYR6Ib9BUUNsRH4UaUlCmA58oaPOnavWbOG9evXM3x44+65AT07MaBHJ9bu2B93keFwOFi5pZD/mmLt8DttaE/e+by1kffwMEyTqRMKbNfNX7aZ4rKqdtEtaYfL5aS8soaZby/j0VvOt6y/cHwBr3y0mtVbi0hNduMPGPTMyybZJgK5s7BUJh0AXr/BNeeMsP1cqqur+ctf/hK8+DBiEJroJFLsM9hHJVYpXS/Wk3uorq4vkNqtJ5AW/mDy624N669qkN/DIaQrcVPdvzsRU9JCYt9llYzVAypWn3dbXqctRdDB8xlHI5MJovk3YGL9nD2IFxoYftyZeaT0OBnT3xYf2ZhzG1LQbzfzcjLSBFJCaCFWX6+3NSp7FxvGYl/SsZfvmBCrQPLvR4VYIBDgww8/tAgxd5KLcSf1ZtWWwrgLMU+Siw27DlBV6yMtyPdq4vB+5OVkUF5ZGxUPr1qvnwE9cvneaGtE1ecP8P6XWxLexLU50lM8zF+2leUb9zJqcONShCSXk+vOG8Vtj4s7QcAwOXlAcIZG2LL3EA4c1Hj9nNgnL6R4nT17NsuWWZrbnqV9HGQSSYgFH9RbO+OupdRgbQhoamjvPCSNNwOxuuhH0zV2KUgasCtWI9H6WpoliGv5AqJj1WG3T8FuxNFsimhIS7oyg0NEbdnHDkH3uxO6xieaJFMn9E3TJK3fOJzJ6Zi+GpDfSD6N37cDidxF9wq9ZexH/g6us1mXj5g4v4vUBDby/KwjA2niaQ/HyFCcG2L5Sto2nSEhaKn6sAz0mz/f3sB80in9SUvxxD096U5ysuvbUr7ZEjzPF7rkZDBuaG/bkT2RwOsPMPX0IWTYFOJ/uW43G3cdsI0OtSecTgder59n59l3/k8ZPYCxQ3pSWe0lLdnNKQOtx+Jan58te4tJSnLiNwyuP28k6SnWz6yyspLHHrNYGhUhBq5KywgON8ZqDIofa21Uc14yexDz15OACcCvkRqxNUhtW7gHmQykcPlKJJW9FhnvFE3/MJAIXPDJIlaWAk25sTdHa9OSdnMyTOKXC5TP2uHE07EHHCvS/xFiWbK8wW0ZUoaTaJYPrzaxrv6gug/rHNR6Lo7s7sSUDoiQtGNRLHckWrQ0XLUUOSgebSNdunQpW7ZsYcCAxlGfIX3yKOjdmW+2FcU1KuZwSM3R+19t5lQbH6+rzj6ZD77ajGGaOCPof+YPGHTJyQjpCP/vj9fiCxgkt9P6sIakpbhZvHonH6/czlmnNO5YdzodXD1lOIu+3sHQvvkM62f1l9y2r4RdRaX4/AHGD+vNBePtP7MXXniBtWstc7yfpv20LydSRCw4AhYr00cPYjLZkLIwH1uDdEw27JrsgnRd9kVGCJ1Udz8P+1ROQzohUwfOQ0bINFWL0xa8yHtsGPkLjhhFi7YIsdYW0JpYB03PRbyyYvk3UC8IZTSTaWAGGunhMuzPgdnI93MkyvvXEjYivyO79vqGv/O3sJ81OxkYRNtmx8aL87E2u4B09TZn09MuaKkKOAQspsGMuCNHjvDOO+9w6623Nn5il5MzhvdlxaZ9cU9PpniSWLJ6J8VlVZaOvREDuzF5ZH/mfbaJrDRPxC7Zqmt9XDzxRLrlWs9v63bsZ8k3O21nJ7ZHHA6ZIfl/by/j9JP7WNK8Z47oR0GfPMaf1Me2Q3XV5kLKKqtJT/Hwsx+cajukvaysjMcffzx48S6sMwyV8CgOuh8rYZCCVYi1JS1aVHf7rMEyFxL56omIsmFIh1lPpNYs+I+yK8c81IJ9ziKBF6swiVVDQUusC4IPf20RTcG1aeU0/o5iihnw4+7QjaSsLpjGUWu14L+BetyIGLPMTosjZchnaPe7adgJ9n7ddsG/8VTgeiSa3N64PsTyz2jeb61d0JrCqDeDF8yda+9LeMbwvtI9GXIIdGxwJ7nYfaCM95ba1/T95KKxdMxMCTmXsqUYpklqspuLQtQ5vfbJWsqranE5EylA0jbSkt0s37iXBcusZQjuJBe/umIC548bZPvYj5ZvpabWz4XjCxhdYO/ZN3PmTDsX/SdpXzPUEukLDz5R5tHyC7PWkIpV9EU68hBARPoSZGjyHUjUq360zO1AcK1CElJraG1vbjs+rN18JxL9TraOyMzF1tKW32uwyGnrqKU2YpBxwkSc7rSGJq6hmhFSiN2FSbjUEFo4NhRdO7GfRQkyq7K9eYqNI3RaMloR7JjTmgPBAoJSQV999RXr1q2zbFjQJ48hffKo9bXV3LntuJOczFmwmiNV1lKYQb06M/3C0VRWR6bmr8brZ+SgbowcZK2HKjxUzofLt5J6HKQkg3HgYPaC1bZ1gWePOoFBvYI72mHznkMs37SPXvkduGmqZRoJALt27bLrlNyC1Pe0JxJJiAWr2l6IT1e06YNV7OyMweuCnMy2IQOxz677/4bkA1dH6bWDO9pOwmrxEGmG0di0N5YEe9L1pflawCjiIFBTBmajbGsoJ3on4m2XSLgIPfQ6WFA+g309XmfgzkjuVAy4F/sLxK3IpIbjgtYIsRJkJMNRqqureffddy0bOhwOJp3SL+Tg7ViS7E5i855DvLXEvhnmuu+PZPKo/pRXtr1m2TBMvj/WPvrzwVdbKCo+0u67Je1ISU5i2aa9LF4dfrR43pIN7D9cwY++fwq9u9g3z/3pT3+isNDi2/k32teMsUQSYQAraFygn4aIg2gT5HROGdL5FGvWAz/BOgLoYqLzXX0RdD8bGWcTTS6hZcf4SKYml9G4xqwPoQ05I0k6EiHKRD7jdACHK4nydR/gKyvE4Tp6Xt9FaO/Bc6K9oy0kmdDdxcGedIsB+y46uBHpsmwPXETobskniV3ncdRpbWjcMn/srbfesp3bOOHkPmSlpxAw4i/GPG4Xz85bxr5DweUasu7BG6cwoGcnKqu9rT4C+QMGXTpmcMaI4DFr0h349mcbcbejAd8tweFwYAZMnntnRVjp6P0lFbyycA0jBnRj2jn2F6Bffvklzz77bPDilcg4o/ZGIomxzVgjURfYbBdpzg66vwbrieQG4HfAfYih5S+jtC8fYe0yyyc6xrsrsF44/CwKr1NPPnBNCx8TSSG2hsbpXw82cx8jzBDEwmFj3W0rR387DjDNuvqwo2/rMGKNYsdomm/2iCW5hI4o2hkx34f9nNEUpK7W6qqdWHQGLC3ydWwC/i+G+xJ1WivEFlPfiVLH0qVLWbnSemE7qFdnhg/oSq3N4O1Y40lyse9gGU/8x36kXn7HDP72ywvpnpdFZY2vVUehGq+fccN6k59jPZav3FQolhWe41OIAaSkuPl87W7e+NSaqg7m35+sYd+hMn552TjbWZumafLAAw/g91t+Ow8Se1POSJBIQqwWa+v3xUTXymEg1o6uT7EKgBuA3wP3A3fV3aLlehycQsshOh2k+7HWtEwk9BV/W5lB2xsC2vJ7rSAocwLcRHTTk5ch7utdESf2XBqOPHLYuWqEnFuaV/d8icIorF509dh54S1FLFrsGA78NRI7FUX+Ruhj0e0kVkdrm2mtEKskqLvI5/Px3nv2naQXjh8c5yH3x0hP9fDmkg28+4V9F+/Anrk8edtF9MjLtq0na44kl5NzTrWPwM//ajM+fwBHBG0yEg0HUo/31JtL2V8SOnK8Ze8hnp67lEvPGMr3T7VP486ZM8fuN/Ua0gqvtJ2naexvlYmMD4oWt9C4zqUSKaYPJviKLpno1TpVBd2voXUGkeEc4Z6kcTrYgUQn7KYGtIWLgVub3Sr6PEFjz7ihRE/cZAPXBi3bjgQNmuLTJtbdRdNmw7Hk9BDLDwJfhVj3W0Jb+9xYtz4RuR+ZqGHHc9j4mbZ32tK1MxdolG+cO3euXfSCM0f0p1d+B3xRnusYDk6HA6fDwYPPL2TjLvtazYI+ebxwz2WcOrQXZZU1YadVvb4AvfKzbU1LS8qr+HT1zuPCN6w5kt1J7Pz2MI+8HPoYd6hUrERuv3KC7frS0lL++Mc/Bi+uRKJh7ZVEU+ArsdaS/BIxTY00U7CKvDewH08SPLg5h+gNLg5u0z1M81fbwd+ji/A6TtdjHUzfB3iZyLnOn4c0sdSH3VtSExLJ1CTI7yv4SuphWj+EvCl+jkxdaEg4dURLCS1k+iBGwvGmM6HLBhYRekZsEXLxE+oi4Q/Ar9q2axHnFiStascyEm9/I0JbhFi9E/FRVqxYwSeffGLZsENGCpNG9qcmAdKTAMluFyVHqvjt0x9w+Ih9hqt7bhb/uONifvaD03A4HFRUe5udEuD1+RlT0JPsdGv0fck3u9h7sOy4LNK3IyPVw7wl65n9oX0JxtghPXnx3itCFug/8cQTdp24/wBWR3RHlYdpHLXwIF1X9rOoWseguudsKFaqEINPOz7GKoZuIfJCtiPWgvn1ND8WKDhi5iZ824vfYK1LGg98gphutpYkZCbhXI7VNq1HRF48uZ/GYqgbUt8TyfRv/bSFhmwnvDrSWkL/DkG+rx+0cr8ixS9oOLi8Mc0Zmr5N6ItXB/Le72/dbkWcB4D/F2JdIdLRHKtRbDGlLULMD7wevPDFF1+03fj8cYNJT/XYFvTHGhOZkbhmexG//Ns8yirsj7vpKR5+dcUE/nXP5Zw9sj/+gMGRqlp8fsNyiWEiacmzTulv+1wLVwZ3yh/fOBwOkj1u/vLqZ6zdYbX6cjod9MizN/3+5ptvePRRy7FxK/C/bdilNGT47feRbrn7kdboq4lNNxckXkQMxBTxgaBlBcAHyOfVVsYgJpPBURA7QVLPTkSMNWQScHcE9qch92H1t3oljMeVYo002Xuv2D/2eqyeUCcgn/nrwPcIbVUQTBqSivwUseWoryMqA6YhY5zCJdIRMZDo5m1ByyYjXleREPsjgZeo646sw0AaIcI9ac8l9AVeMmL2G68uygmEjsrtJbRnWEPuo2lReh8yQileXm89gf8gx2M7DiAp7S0x26MY01ZDwbkEXbm+/fbb7NplTUuf1L8LIwZ0o7o2MaJiAJlpyXy+dje/+Os8DpaGHqs2rH8X/n7HxTz3mx/ygzNOJCczhapqL+VVtVTX+vD6AlTVeOmam2U71PpAaQUrN+8j2X38pyUb4klyUl5Zy+//uSBsjzbTNPntb39LaanlGDqTps1bXchJKQ/pnpqC1EE8jNQUrKi7vQs8hRx8HgBeRATB/xEdM8+GJKIQA/gfrFfWwxDPwOm0rlA+B6mxeR9J8TRkNmAZkxDE77HOpHwQ6aRqq9lmMvBHrN2YXxG67b8h+7B2et6ONCOEw9dI92hwo4ALsZyYjwioV5BIz7WI2Dqz7nFXICfnF+q2ewM4rcHzHKrbZiVt6wCN1O91JtZ5sGcgv69L2/C805DfV3CN3e/rloeLl9AiAETkvYJcwMWSMYhACRU9vJvQaclgfoZN4KQBlyFR2UvC3bkIcRWSXg31O9iEjDiy77A7TmirMtiE/OCPFmAWFxfz+uuvc9ttwRdBcP5pg/hsTWKNBcxOT2bB8q088doX/P7HwZ31jRld0IPRBT04cLiCFZv2sWZ7EZt2H+JQWRUHD1cydkhPcjKtF7JL1+2hqLiC9JTjY6RRuEjk0c2qLd/yx1kf89BPmr+onDlzJu+8Y1uL+Qvk5FKGpDqqkd+vG+nEykCKzTsgYqwlH3Ya0qk3Cvmj39uCx7aERBViAeSkNgupMaqnO+I2/1NEsH6ERCaDC9zr6Yw4xk9CxqDZhYefQ+p5mmMlErUMLhS8Fek0/BcSDdhGeB20DiQqNwXp3hsZtL4CSX+GM+i6FIkkNjx59EJOFv9GoiuFSIrz5Lp9DD4J1ouxx4HLsV4U96u7XR7G/jTkY+R91He1t8U3KJK/118gv5s7GiwbggiNj5Df2ec0P1YoH4mo3Yi9HcZDWCO84TAPSdPdHmJ9NnIBdxESzY1miUQq8nn9mtAXHR8ikcBwqUGi/08hw87tGIT8Tt9Asg/RFD+TkffX9ElXUpXBZsitxSRBvcci8Yd2PpKHPsro0aP57LPPcLsbnwuLy6u4/N6XOHC4MiFqpRwOqKjyMqx/F5741VS65GS26nl8/gClFTUku11k2dSH3fr427y5eD2Zacn4/AEChkmy25UQn0Es8PoCFJdX8ccbp3DDBaFrrrdv387EiRPZty+Ux2JMmEvdVWFr0+jdu3d/Bqn7GRK06lSsvlWJRDIiDG4Ksd5ATvDfIvPsDiMitgMigvsRuujcQKKQf2jhPj2IdHfZRe99iF/UbkQgFiMn+yokipFXd+uIiMRh2EeI9gPX0bIoyngkHRhOVuEpmu5GHYeI06kfyUi3AAAgAElEQVS03t/pK6Q4/WUa+0fdR+MaoC/qXs+O2cCVDe4/T+g5f63lF8CfsR9eXYoI8B1IxPEA8l46IGnMgYjQt0tpliKRsJC2DKYRoNP4H+Pp2BMzEBxsBeTC7jma91+rQCLrs4GFWOeItpa+SAr0J4jFRCg2I8X7rUnVOZEI+AyaPv8byN/DC0jEKhKj5LoDZyFR9lBji4I5jAi2Z1rwOnnI8SD4hF6DHH8qSZyLYiewLxI7k4L8cTf64SxYsIDJk621p4/OWcw/5i4lKy1atkDh4QAqarz0796Jp2dcQs8Q9UptJWCYLNuwh9RkN06ng937S/lq/V4+W7OTPfvL8BzHgixgGFTX+ujdpSNnjejHuacOtO0orefHP/4x//xn5Hxas7Oz6dGjB126dKFjx474fD527tzJxo0bqa0NaU1iIFfai9sgxJ5H2s2Du7jG0z5C7Dcgo1DsfUVazvvIyXdhKx//fSQyFumxMwZy9X8vYD9yo2l+iryv9Ga2+wfw32E83xBErE9Cphx0rXvuYMuPUiQy/C3ye/oAOQbbRb9+hwiUepoSYq/TODU1h9A2Am3hNOTkOjVCzzcPiVI1aV4YhhADEYiPIlHFcNiCREeXIxcpO5BuxeYaPrI4NoR+EPKdT6B5u4y1SPNAW+ulLkO8usKp09uLvMdFSCR3JyKSm7JByEKiiL2Rv9uzkO+9tXVojyK/mXBqm0IJsURlZSSKlmqQEGkjIfbiiy/aCrHLJ53Ea5+spaLaS5Ir2jNv7XEAVbU+uudm8fitF4YUYV6vF4fDYYnstQSX08GpJx4rYRjWrwvnnzaY8soa5i7ewMx5y9h/+PhKWzqAaq+fFE8Sv7xsPFdPGUGHjOZ9HG+99VaSk5NZsGAB27dvJxAIz+4kKyuL/Px88vLyKCgooKCggJNOOokTTjiB/Px8UlOPncf8fj8rVqzgrrvuYtGiYD9TQK5QzkOiLK3No29BTp6HkAOHgRy02kvHzz+RFNv1SBpjGC1L9YKk5r5ErmQ/aOP+vIecBC7iWK1UW3zFNtc934s07SPVHP9AhM2NSPdlT+Tg3/DA5sc6YD0U6+tu/0R+Pzl1/6YhkbwqJPpSgQiycNKowSKxqTTuSkQImMifcbTSb18g3+U5iJgdR8vnbn4LvImkqCN5ceNFopOrkOhJc0JlQN3turr7JXW3GuSzLkO+syTkt5HJsVKKPFoWAf0UKSHY3YLHhOLfiHh8kObnq/ZAykKuqLu/H4lUFdX9W4VEp+sjzx2Q95VO5Oap3o58ztMJPSO0vVIZqfBcH+RLPToSIjc3l2XLltGnTx/Lxg/N+pjn3llBZnp8omK1Xj9ZGSk8PeMSTupvL9D9fj/XXnst5eXl3HPPPYwZMwanM/LC8dvicn7z1Ad8tmYXmXGOEkYCEWE+8jpk8OjPz7cdfN4clZWVbNmyhR07drBnzx7Ky8upqqrC4XDgcrnIyMggNzeXTp06kZeXR35+Pp07dyY9PT3s76iyspIf/OAH/vnz59tdjLwDPGaa5kct3nmge/fuLo6Fvg3kxBb/duHW4UFSJuORaE0X5Gq3Y92/1cjBuBQ5AdWLnHVYOwMjRR7S0TkA6TbsUbcv9aIlFRG+lXX7V4qI6q1IRGEdka8VSUMiABnIZ5SDnIR3IyesUHV10eYZRCjW8xrwwzjtSyjykBmkk5Hvs2PdLQdpYKiPABYhEZnFiEhs0e8rzIhYQ/pwzFzULpUaK3YjTUczsTawRIIpSOF/tGefNsUBJBV+JtKkEIrVSOq4qW7g9hYRWxTJPOk/CaonuPfee3ngAWvd5LZ9xVx532xqfYGYR8V8/gAul5PHb72QiSeHnuZy88038/TTTwOQlJTEqFGjuPTSS5k6dSoDB4bbHBUeFdVebnv8bRZ9vYMMm1E/7QmfP0B6qodn7vxBSJGbKCxZsiQwceJEl00KchHwqGma82we1izdu0fKmzNhcSARMg8S8fHStqLwSOJETt4m4aUxjnfm0dgM9FlC1wAmCg7kt+Wp+38vIkDa5AjeCiFWzwikbutiot9Z3ZDdSLfmYzSe2xkNHIhtyo1IKUBz6fZIUS/A/o5cLOUigvOiZh5zA6Ed9vORzytR6sCa46tI7ugZSPvrUXr27MlXX31Fly7WE/LvZn7I7AWrYxoFChgGPr/BQz85h4tPD66jPsadd97Jn//8Z9t16enpjB49mjFjxjBs2DD69+9PXl4ebrebHj16tDpqdrC0kmv/8Cq7ikpJaafu+yZQXePjwelnc9mkk5re1jQxkUkH8aKyspIxY8awfv364FWvAH8zTfOL1jzvd0CIKa2jvnHAhQhZP83UNbWRdCTV2dDe4bdIsfZ3jjYIsXpykajdBUi9Uy9anrJvCgNJ6X+ApF0XEblGgJYwEOlmvADpLo70eLE9iFZ4H+nyDRaZSUgEMFQHK4gwvxP75oysuuWpWC8Qg7MTZtC/dv/f1Lq2bu8ANkTyLOhAPtxG4c2HH36Yu+66y7Lx+p0HmPbAK/gNA1cUUn7BGKZJdY2Pu645gxvOD92599BDD3H33S33jZwxYwaPPPJIyPVFJUdw4LAdBl7Pp1/v4Gd/eROXyxlXgdJaqmt9jBrcg+fv/mHI73TPgTIWfb2dj1duJ79jBrf88DS6dYrGjOXm8Xq9nHrqqaxaFTxRh7uBZ03TbFUtggoxJQR3An9qcP8IUqgdrWjHWGAJx2yKTKRo2rY48ngnAkKsIcnI7MwCJE0+BEmRp9TdUoP+DSB1Y7UNbhVI4fs3SLPIzrp/E6mWtCvSqXoykjLsg9SA5SDpeDfHxKiJvC9vg38PI8JrI/LetiNlTGVhvPZPkIaCpqI1MxFLm3DqJROWSIZeTMQUs5EQe/bZZ5k+fTqdOnVqtPGQPnlMGnUCcz9dF/WomImk/35y0ZgmRdgzzzzTKhE2ceJE7r3X3g/QNOGpN79k1vurSHI6GTesNz+9eCx9ulqbYyYO78vE4f34cNmW9pmiNOHSM4bairDyqhr+MmcJ7325mZLyKlxOBwETFn+zk6u/N5yppxdEVJCVHqlma2EJ3XIzQz7vwYMHKSwstFu1lOOvIFSJP8HDzDORk9ubUXq9a2h8jC/CaiKrtI5ajplEN8RF41rFhjWL1Rwr4q9FhHii145+W3db0GBZOhIdTEdEWDLyO6sXYA0FZwmtr2t7GhGnzxO627Iv7ScFGZJI58D+g/iTDK1fsG3bNl566SV+8QvrlIYfnXsKHy3fSiDKUbHyyhouO2sYv7oi1AB7GVh+yy3hdiwfo3///syaNYvMTPu6wEdeXsTTb35FeqoHB/Cfj9fw5brdPD3jEgb3tjaUXDl5GItWbcc0TRztKCrmDxjkdkzntKHBJteShrzn6fm8+dkGOmSkkJWWfPToU3akhr/MWcysD1YyclAPThnYjRP75JHXMYOc7DQyUj220cFar5+KGi+V1V7KKmrYf7iCvQfLKDxYzoZdB9m2r4RzTx3A7Vc2/Z3v32+xx9mO9eCqKJFgHXJiymmw7HKiI8T6YPXDWohEKJToEUAiXQlpHBohwu3YjQQfIOngfyENHQ1ZjDSetPvPOhpn+p8BTzRcUFBQwJdffklWljUy8YcXFvL8uyvJilIHZXlVLWcN78fjt00lNdledy5evJgLL7yQsrJwoqXHyM7ONt59913nuHH2tjwvvLeSP7ywkPQGYsJRt08jBnZj1j2XW+rBqmt9XHrPS+wuKsXjbj/+YtW1PsYN683//do6qWLx1zuY/sjrpCW7Q4pLf8Cg1ufHMGQoe0aah5wsEWLJbhfJ7iQChknAMPAHDKprfFTW+Kis8VJR5cXnD+D1B6isrqVLpyxuv+p0rv7eySFfb8+ePUyYMIHduy2d4P+LXEy0xdC1VY9TvhO8QmO3/EokhRjJWjEHIu4ubLDMi3S9WvLw3xUinJpUYksnpNGk3uduNTJhoyhuexRBolEV/jJSZHe0JXHDhg3MmTOHm26yNuv8+ILRLFi+lUOlVREVHg4kHXlin3weuvmckCJs7dq1XHXVVS0WYampqYHnn38+MG7cONsc4sKV23h09qdi5NpADJjIjMtVmwt5f+kmLj79xMbPm+zmxL75bN1b3K6EWMAwbdOtAItW78Qwmo7wJbmcJLnko6yv59tdVYphmMh/ja8aHA4HTqcDp0NuBiZOJ/zgjKHcefUZ9O4SehxhdXU106dPtxNhVUgYXFGixT9pLMTSkQvX84mcxcUjNBZhIALwOyvClHZPMRL9egzp7ryY40SEQduHfttxGJtxBI899hiHD1uj4l07ZXLjhaOp9UW207za6yc/J4NHbzmPzh3sO3H37t3LVVdd1eKROoMHD+add95xXnzxxbYibNPug9z77IcEDDOkPYfDAYtW7bBdN7RfXqujMfHCAXQNUYu189uSFtmUOB0OXC4nHreLlOQkUpPdpCW7SW148yThTnLhDxhU1Xo5sW8+f/3lhfy/X01tUoQFAgFuvvlm5s+3ne38PNHtYlOU+Yibf0POrFsWupU7PPoj7vh3BC1fT12UV1HaMQbwS2QCwc747kpkiVZh1kyCPqiNGzfyxBNP2G58xeSTmXBSHyqrvRHJlfr8BsnuJB6++VxO6NHJdpuysjKuueYa1q5tyhfuGCkpKUyYMIGZM2fy5ZdfctZZZ9nuakl5Nb9+6n2Ky6qatKFwuVzsL6nAMKyCKzM1mXZUHnaUnEyre351rY/DR6pxOiPzhkwkjXmkqpZar4+BPXP5w43n8NLvruC8Uwc12W1aVlbGFVdcwaxZs+xWFyFjNBQlmpjAr5BROA2ZgoyReRwRZvYHLit5yInpKWTe5CVB6/ch42wiMStQURKBcCdVtBuiZVh1CGk7fazhwr/97W9cc8019O3b2Eg1yeXkjqtO50fb9+P1+dtk8moYJv5AgPtumMy4Yb1tt/F6vdxwww2hRtwAIrz69OnDySefzFlnncUZZ5zBwIEDm/QJ8wcM7nl2Pmu3729UkG67nwGDtFSPrUAxTOm2PB4IGCYV1d5WvR8TMA0Tv2Hg8wcwDRO3O4n8jhmcNrQX3z91EKMGdw/Ld23Lli1MmzaNpUtDztz+PVKoryjRZidiWPkfxLOpng7IeJ2fI+aWezg2ALsKqSfzIF5kHZA5fgMR2wQ7PkFqdi1GeYqiJA7RdA59DnFwLqhfUFxczIMPPmg72PnEvvncdvl4fv/cAtJTPK3qGDRNqKzx8osfjuOHZw4Nud2MGTN4/fXXGy3zeDwUFBQwbtw4TjvtNEaOHEmfPn1ISwtvFJhhmDzw3EI+XLaFzGZEmGlK0fm5YweEeK5EMSkPHxNsh5enJidxysBuFBYfqRNkJk6HQ75fBzhwACamidSCmfL5uBxOXElO0lLc5GdmcEKPTgzr14WTT+jK4N6d6ZiZanmtEARefvllx4wZM5whrCpA0kJPteZ9K0orWYNEsn6DHCeD6yd6190mtOK59yK/5/9FLAQURUlgoinEyoA/I8WpR3nuueeYOnUqF198seUBV08ZzprtRby6cE1YQ6KDKa+q4fJJJ3HLpaeF3Oavf/0rjz/+OADJycmcddZZXHDBBebEiRMZOHCgIzm55d2blTVefv/Pj3h9UXieaOVVtVw0YQg/PHOY7fqATboy0XE6HKQmW02mXU4nf7zpHK47byRfb/mWnd8e5mBZJTVeH9W1fqprfbgcDjLSkklP9ZCe4qFDRgpdO2XRKz+bLp0y6dwhvTVec+b+/fuP3Hnnnc5Zs2Y1Na5jI9By3xJFaTsHkTTlTCSleC4wmqYNLENRDiwDZiMdk4citI+KokSZaM/SmYVMdp/ccOGvf/1rJk6cSE5OjuUBv5l2JnsOlLF0/R6yWnDyLaus4Yzhfbn3R5NCRtNef/11ZsyQmtULLriA+++/n5EjR0IbbDy+XLeHR15exNptRWSmeZqt7aqoqmX4CV2550eTQm7T3gr1DdMk2ZNETpZ99NDpdDCoV2cG9bL6phmGCY6Ijjoya2try2fPnl1+3333Ze/evTv0KANpLLkOGSuiKPFifd3tIaTbfEDdrR9SK5ZWd0tHfKrKETPQMiTNuRJxLT9uusgU5btEtIVYAHgAGatxtLhq06ZN3HPPPfz973+3PCA7PYW/3HI+N//5DdZs3x+Wv1h5VS1jC3ry6C3nk5ZiP/rriy++4Prrr8fv94ccuxQuPr/Bso17+M/Ha1mwfCs+f4CMZkSjAzhS7WVAz1we+8UF5GSFTq21t4iYaZqketxNvqdQRKqIH6C2tjbw5ptvFv/5z3/2LV++vAtNz4E7AvwX4qIfUVrahasodZhIneJ2xMhSUZTvALGYLv0pkp6c3nDhP/7xD8aMGcN1111neUB+TgZP3n4RM558jy/X7yYzLdk2YmKaJuVVtYwe3IO//fLCkHVDO3bsYNq0aZSXl3P77be3SoRVVHtZt2M/n6/Zxedrd7Nh5wG8/sBRW4XmKK+qFYuFX1xAr/zQ9gogw8nbE4ZhkpriJjM1dgPcG3Lw4EHeeOMN85lnnjFXrFjRCRkz0hRliAh7P/p7pyiKoiihiYUQA+lIOxsZu3GU22+/neHDhzN8+HDLA7rlZvGPOy7if19ezOufrsXrN0jxJOFyOjAMk5o637ErJp3EXVefQXaImrKysjKuvfZatm3bRn5+PrfddluzO2ticuBwJdv2FbN2exHrdx5k466D7DtYRo3XjztJnN7DMVz1+8Xn6pwxA7n/x2eH9DRriJ2lRSITMEw6ZaWRHsP5mIWFhSxZsoR3332XDz74gKKiIgfh/Z53IOnyL6K7h4qiKIrSPLESYnuBXwNzGi4sKSlh2rRpvPfee/ToYe3AzkpP4YEbv8eUsQN4+cPVrN1RRGW1l/RUD6N69uC/vncyk0b2Dz02x+/npptuYsmSJQCMGjUq5PiZg6WVbN1bzNdbvmX5xr1s3nuIkvIqvL4ATqcDd5ILT5LLtjPQjoBhUFnto1N2GrddOYFp54wI25aj/Qkxg05ZaWHZSLSG8vJytm/fzjfffMOqVatYtmwZGzdupLi4uKVPNR+4EbBY6iuKoihKPIiVEAMZsXEecG3DhfUjht5++22ys7NtHzjhpD6MH9aHQ2WVlB6pITPdQ+cOGbiaqC8yDIOf/exnvPrqq0eXpaeHjkZ9smo7//OvT9h3sJzU5CTSUjx46mYchothmHj9AXz+AFnpKVx5dgHTLxgdcvRPKNpbatI0oUOItPCSJUu47777SE9PZ9CgQfTq1YsuXbqQm5tLUlIShmEQCATw+/0EAgHKy8vZs2cPhYWF7N69m3379lFUVERhYSFer7e1u1gKPIiYZUZ2hIOiKIqitIFYCjGAO5H27IKGC5csWcKVV17JSy+9ZNtJCTISqHOH9LBSeyBpz2eeaTxpac2aNRw5coTMzEzL9pedNYwxBT34YOkWPl29ne2Fhzl8pBp/QESRy+k8WlheL/8M05SbYeLAQVqqm8G9O3PG8H5cMG4w/bvbv5fmCATaV0QMpK7PjpdeeomFCxcCMG/evEbrHA5HtDtEq5HZpw8DW6P5QoqiKIrSGmItxPYDP0GKpBt5Hbz//vucffbZvPzyywwePLjVL1BTU8Mdd9zBk08+aVm3YcMG3n77ba666irbx/bu0pGbLhrD9AtHs+9QOdv2FbNtXwmFh8rZd6ic8ooafP6AiDOHdHh2yk4jNzudE3p0YkifPAb0zMUTRvqyvLyc999/n4suuohg7zIRdu0Jk66drOIWYNu2baEfFR0RZiKt/K8hUVidHakoiqIkLLEWYgCLkaG0Fu+KVatWMXnyZJ588klbw9fm2Lx5M9OnT2fx4sUht5kxYwYjRoxoUuw5nQ565mXTMy+bM0f0a7TONI+lDls7iunAgQNMmzaNqqoqLr/8csv6gGk06cyfSJiA0+Ekv6M1IlZeXt6kEIsgtYif0qfI2JjFSDRMURRFURKaaA39bo5/IOM3LBQWFnLJJZdw2WWXsW5deMGMkpISHnvsMcaPH9+kCAPxeLrsssvYsGFDi3caJEWa5HK2WoTNnTuXsWPHMn/+fLKysmy3CQSMdjP02zRNkj0u2xqx6upqSktLI/2SPsSAdTkyxuV6JN09HBkVMx8VYYqiKEo7IR4RsXpmIE7RP7Vb+Z///If33nuPyZMnc9lllzF27FhycnLo0KEDgUCAwsJC9uzZwwcffMCsWbPYs2dP2C+8du1axo8fz0MPPcT06dNJSor+x7B27Voeeugh5syZczQl53LZpzCla7J9KLGjZq42QuzgwYNUVVUFL34M2AwMAXoCGUia2lN3A6hBhhyXIp5fJcgA5M3IMOSDyAiXQITfjqIoiqLElHgKMYCfA6nImBkLlZWVvPXWW7z11ltkZGTQsWNHOnTogGEYfPvttxw+fDhUndFG4B3g9lAvfPjwYX7605/y/PPP8/Of/5ypU6faFvG3BcMwWL58Oc8++yyzZ8+msrKy0fpQQixgmLSX3KRhmKSnemxng+7YsYOamprgxZ8AbwUtcyAmrPW/Rx8qshRFUZTvAPEWYgHgBsRn7Lc0kSqtqKigoqIinMjXDmAakrrKQnyjQrJ06VKWLl1Kv379mDJlCueddx5Dhw6lZ8+erYqUeb1eNm7cyMKFC3njjTf4/PPP8fvtHRNCCzEDHO1DiQUMk5zMNNJSrGauNmnJANKwEYyJ2EqotYSiKIrynSLeQgzkJHwvEsV6HGid54PwHtKVWa/W/hvYB/wGaHL+zvbt23nqqad46qmnyM7OZsCAAQwePJh+/frRu3dvevXqRXZ2Nh6PB7fbjdPppKKigqKiIvbv38+BAwdYt24da9euZdOmTXaRIAtGCL8wh9PRbiJiAcOgY1aK7ZSBw4cPBy+qAL6NxX4piqIoSnsgEYRYPS8hA5jvB66iZY0EZYhX1KNIWqsePzJe6TXgFuByoFl31bKyMpYvX87y5cst6xwOB06nE5fLhc/na5MFg8/ns13udrnaS4kYhmHSMTPNdt369euDF5Uhw7YVRVEURSF+XZOh2Apcg8ylnI0UZTfFbuAPSMfcwzQWYQ1ZC9wMDEXq0d4ELOGacDBNk0AggNfrbYkImwM8H7wwpBBLchFdn9PI4QC6dLI3c7VJTR4AKm02VRRFUZTvJIkUEWvIx3W3rsBZSIddR6ATElXZCnwDLEM66sKlEHih7tYTEXwjgBOBvkAPwB2RdyDeVu8hfmkfIt5pjQgdEWsn4TAkg9o1x77JwSY1eRBo9ZwiRVEURTneSFQhVs+3yIiaaLAHeK7uBtABEWdD627DgP6IGOxAeMnCfUit2/vA23X/X4+liKo+tRk8tDwpzMHi8cY0xVPNbuxUdXU127dvD158ICY7piiKoijthEQXYrGktO62psGyNKBz3a0b0BvIRkSZA0ntViJdnzuRSN0h7EvtLZX5Xq8XwzAs3ZPupETLGNtjmiZpyR7ybOZM7t+/n2+/tdTl747JjimKoihKO0GFWNNUIQaiuyLwXBYh5vf7bYVYUghbi0TDME0yU9y244127txp8U1DUsOKoiiKotTRPkIvxweWKFmogv/Wjk+KNdIxmUp2utXM1SYaBs03XyiKoijKd4r2ccY/PrAUqft8PgIBq4G809k+ivX9AYPOHdNJ9lgDqzbGuwb2Zq6KoiiK8p1FhVjssDi8+nw+W1NXVzuZ+B0wTTpnWwv1QcYbBaFmroqiKIoShAqx2GHxqghlCOtyOmkXWsw06d45y3aVTWryMGI9oiiKoihKHSrEYoclNWmapm1ELCnJicPRPr6arrlWIeb3++1SkweQrlRFURRFUepoH2f744Pa4AWGYdjWiCUluXAmeEjMNE087iRbD7Hy8nIKCy0NknvRod6KoiiK0ggVYrGjOnhBIBDA77dqE7fLidNBQo85MkxIS3HbuuoXFRVRXl4evFg9xBRFURQlCBViscNSrG8Yhq0Qc7mcJHqRmGmapKd46NzRGhHbu3cvVVVVwYu3xWTHFEVRFKUdoUIsdtQAjfKQfr8fr9c6ejHFk4TL6cDeoD8xCBgGnbLSSEvxWNaF8BDbG/WdUhRFUZR2hgqx2FFBUMG+1+u1ixyRkeIhyeVMYBkmHmL5ORkku61TAGxmTPqROZyKoiiKojRAhVjsqCbIwsLr9dqNASItxS3u+gmsxEzDpEfnbNt1Nh5iZaiZq6IoiqJYUCEWO2oJ6pwMFRFLT/HgcjkxE1iJmUDvLh1s1+3ebanLL0U9xBRFURTFggqx2FGDTeekXUTMneTCk+RK2K5JE3AnOemaa+2YPHz4MDt37gxeXIh6iCmKoiiKBRViscNWiNlFxNxJLlI8Sbau+4mAaUjHpF1q8uDBgxw+fDh4sRbqK4qiKIoNKsRiRw1SsN+I0lJroMjtdpKe4sFITB1GwDDJTEu2NXPdu3evnYfYlpjsmKIoiqK0M1SIxQ4fcCR44f791hr2FI+brPRk2/FHiUDAMMjPySQzLdmybts2W7swFWKKoiiKYoMKsdhiydkdOHDAspEDyExPxkjQ1GTAMOiWmymdnUFs3rw5eJEJWPwsFEVRFEVRIRZrioIXlJSU2G6Yk5mWuMX6pknPvLCtK0pQDzFFURRFsUWFWGyx5CGLi4ttN+yUnZbAwyYd9MrvaFnq8/nsOiYPAPZvUlEURVG+46gQiy2WiNiBAwfw+XyWDTtmpiaki5hhmqSnuBnUK9ey7tChQxQWFgYv3oFNk4KiKIqiKCrEYo0lD1lcXGzrJdalYwZul3V8ULyR0UaZ9LBJTW7bts1uzqTF3VVRFEVRFEGFWGw5GLygpKSEQ4cOWTbsmd+BlOQkjATzsPD7A/TvnkN2eopl3ddff233EEv1vqIoiqIoggqx2FJEUJqurKyMffusteydstPITEu8zsmAAUP75mFYk78AAAhkSURBVNuuW7p0qd1iFWKKoiiKEgIVYrGlBJtRPzadhnTISCE/JwN/IHG8xAzTJD3VzenD+1rWVVdXs3r16uDFpcC6WOyboiiKorRHVIjFlmLAUkS1ceNGy4buJBdD+uThDwRisV9hUev1U9A7j4JenS3rNm/ezJYtFt/WDcCuWOyboiiKorRHVIjFlgA2nlohaqsYXdATh8MR7X0KG5/f4Mzh/XDZGLm+88471NTUBC9eBQnZ/KkoiqIoCYEKsdhjiRCtXr3azvaBUYO6k98xA18CpCd9/gBdO2Vw/vhBlnWBQIB58+bZPeyrqO+YoiiKorRjVIjFHksesqioiBUrVlg2zM/JYNLIE6iptfqMxZqqWh+XnjmMHp2tthWrVq1i+fLlwYtrgWWx2DdFURRFaa+oEIs9a7FJ182dO9d24ysmDSMzLZlAHAeA13j99M7vwH9972Tb9S+++CJ+vz948RfA+mjvm6IoiqK0Z1SIxZ7t2PiJzZs3j127dlkEWkGfPM47dRAV1V7iUS0WMEwCAYNbLx9PXscMy/qNGzfywgsv2D3UNlepKIqiKMoxVIjFniJgW/DCgwcP8tprr9VgEy277vyRdMpKw+uPbQelYZpUVNVy88VjmTphiO02f/3rXykttThylABvRHv/FEVRFKW9o0Is9hhIetLCc889V1JdXW0ZDH5C90789JJTqfFa0n9Rwx8wqKjycuPU0dx2xQTbbb7++mv+9a9/2a2ai8yYVBRFURSlCVSIxYf5dgvXrl2b+u6771qq3gGu+/4pnD3qBMoqLRYREcU0TSqqa/G4Xfzuhkn8+pozbbfzer3MmDGDqqqq4FXVwFNR3UlFURRFOU5QIRYflmBTJwbkPPbYYy6v1/tN8AqHw8ED07/HySd05UhVbcR3yDBNKmu81PoCfH/sIF6+70quPeeUkNs/+OCDLFiwwG7VS2i3pKIoiqKEhSveO/AdpQI4DSgIXrFnz55O6enpr0+YMGEY4Gm4Lj3Fw+kn92Ht9iK27yvBneTC2QbDV9M08foDVNf6SHYnMaqgB3dfexY/veRUOmWnhXzczJkzmTFjht2qg8D1wOFW71QCcf/998d7FxRFUZTjnMSxbf/u8X3gXbsVqampn3300Uc7TzvttKvt1h+pquXxf3/Oqwu/oarWR2qyG5fL2eyXaZom/oCBzx8gYJgku5Po3aUDk0eewLmnDmRw787NCrtZs2Zx0003UVtrG5X7GfD3Znaj3WAm2MB1RVEU5fhDhVh8+QiYZLdi7Nixb3z44YfdMjMzx4Z68Ddbi3hpwdd8tnonB8sqCQRMXE4HDocDh0PaL03DxDBNHA4H7iQneR0yGNSrM6MGd2f4Cd0o6NOZ9FRPqJdoxCOPPMLdd99t5xkGMBu4muNopJEKMUVRFCXaqBCLL99DomJJNuuMc8899+NXX321Z2Zm5sCmnqSo+AirthSycddBCg+Vc6Tai9cXIMXjIjMtmdzsdPp2y6FXXjb9uueQm53eop3ct28fd9xxB3PmzAm1yTLgXMS24rhBhZiiKIoSbVSIxZ//BW4PsS4wZcqU5S+99FJebm5u31juFEBVVRXPPPMM//M//8OBAwdCbbYBSbNaZmi2d1SIKYqiKNFGhVj8SQcWAKeGWG8WFBR8+9RTTyVPnDixUyx2qKamhnfeeYcHH3yQ1atXN7XpGuBSYEss9ivWqBBTFEVRoo0KscTgJCRF2T3UBqmpqd5bb73VcccddyTl5ORE5XvbuHEj//73v3nllVdYt25dc5t/CFwDhAyVtXdUiCmKoijRRoVY4jAGGQvUramN+vfvz2233cYVV1xBbm5um16wpqaGjRs3snTpUubNm8fChQuprq5u7mF+4GHgj0B03WXjjAoxRVEUJdqoEEssRiNiLGRkrJ7u3btz4YUXcu6553LKKafQrVs3XK7QtnCGYXDo0CEKCwtZs2YNn3zyCUuXLmXr1q2hrCjsWArcBSwK9wHtGRViiqIoSrRRIZZ4FACzgFHhPqBjx47069ePHj160L17d9LS0khLS6Ompobi4mJKSkooKipi9+7dFBUVEQi0eHj4FuAvwPMc51GwhqgQUxRFUaKNCrHEJBv4PWKQamdtEQv8wArgn4hH2JE47UfcUCGmKIqiRBsVYonNeOA+4Gxi911tR9Kj/waWAy0Onx0vqBBTFEVRoo0KscTHAUwG/hsRZJkRfv4KYB3wJbAQ+AQoj/BrtEtUiCmKoijRRoVY+6IvcAEizEYAPWnZd2gARcBe4Guk6H4pYsZqO7fou4wKMUVRFCXaqBBrv+QgwmwQMAzIA3KRiFkAEVbVHBNeO5Gi+11AMd/hlGO4qBBTFEVRoo1DTzaKoiiKoijxwRnvHVAURVEURfmuokJMURRFURQlTqgQUxRFURRFiRMqxBRFURRFUeKECjFFURRFUZQ4oUJMURRFURQlTqgQUxRFURRFiRMqxBRFURRFUeKECjFFURRFUZQ4oUJMURRFURQlTqgQUxRFURRFiRMqxBRFURRFUeKECjFFURRFUZQ4oUJMURRFURQlTqgQUxRFURRFiRMqxBRFURRFUeKECjFFURRFUZQ4oUJMURRFURQlTqgQUxRFURRFiRMqxBRFURRFUeKECjFFURRFUZQ4oUJMURRFURQlTqgQUxRFURRFiRMqxBRFURRFUeKECjFFURRFUZQ4oUJMURRFURQlTqgQUxRFURRFiRMqxBRFURRFUeKECjFFURRFUZQ4oUJMURRFURQlTqgQUxRFURRFiRMqxBRFURRFUeKECjFFURRFUZQ4oUJMURRFURQlTqgQUxRFURRFiRMqxBRFURRFUeKECjFFURRFUZQ48f8BXXPaSpsBa7QAAAAASUVORK5CYII=;" parent="1" vertex="1">
                    <mxGeometry x="138.41" y="50" width="434.5" height="199.44" as="geometry"/>
                </mxCell>
                <mxCell id="6" value="" style="shape=image;verticalLabelPosition=bottom;labelBackgroundColor=default;verticalAlign=top;aspect=fixed;imageAspect=0;image=data:image/png,iVBORw0KGgoAAAANSUhEUgAACgAAAALbCAYAAAA2QtlTAAAABGdBTUEAALGPC/xhBQAAACBjSFJNAAB6JgAAgIQAAPoAAACA6AAAdTAAAOpgAAA6mAAAF3CculE8AAAABmJLR0QA/wD/AP+gvaeTAACAAElEQVR42uz9d7hlZ2Hn+f7WPqdKVYqliBIoIIEQqEoSIpogFEzOyYBNsHGO7Xa3p/v2nemZe2fu7ZnbPXeme9rdtrvtGQdsbIMTAqQSYIIxmCCJjABFkEpCVcqVzjl7/li7pFKp6sS9117rXZ/P85ynRCFVnfdde6W9v+ddCQAAAAAAAAAAAAAAAAAAAAAAAAAAAAAAAAAAAAAAAAAAAAAAAAAAAAAAAAAAAAAAAAAAAAAAAAAAAAAAAAAAAAAAAAAAAAAAAAAAAAAAAAAAAAAAAAAAAAAAAAAAAAAAAAAAQN9UpgCAfV7+D8OjB4dnpi/jfWgmh83O5/A+beNBcmzPXtZHLGRu/Wr+w7mZ2a9+4unVnY4MAAAAAAAAALTVrCkA6I7Lr5v/2arKb2VCAffeLCTDHp0E5/r3Glro5Z4zWPF/UaX68Mb1eb2jDgAAAAAAAABtZgVAgI6YdPwH7Ls4qj48e3j1+g+fW+02GwAAAAAAAAC0mYgEoAPEf9DUhZH4DwAAAAAAAIDuEJIAtJz4D5q6KBL/AQAAAAAAANAtYhKAFrvihvmfyTD/yfEaJn1BJP4DAAAAAAAAoHsEJQAtJf6Dpi6GxH8AAAAAAAAAdJOoBKCFxH/Q1IWQ+A8AAAAAAACA7hKWALSM+A+auggS/wEAAAAAAADQbeISgBYR/0FTF0DiPwAAAAAAAAC6T2AC0BLiP2jq4kf8BwAAAAAAAEAZRCYALSD+g6YufMR/AAAAAAAAAJRDaAIwZeI/aOqiR/wHAAAAAAAAQFnEJgBTJP6Dpi54xH8AAAAAAAAAlEdwAjAl4j9o6mJH/AcAAAAAAABAmUQnAFMg/oOmLnTEfwAAAAAAAACUS3gC0DDxHzR1kSP+AwAAAAAAAKBs4hOABon/oKkLHPEfAAAAAAAAAOUToAA0RPwHTV3ciP8AAAAAAAAA6AcRCkADxH/Q1IWN+A8AAAAAAACA/hCiAEyY+A+auqgR/wEAAAAAAADQL2IUgAkS/0FTFzTiPwAAAAAAAAD6R5ACMCFX3DD30xlW/9mxFiZ9MSP+AwAAAAAAAKCfRCkAEyD+g6YuZMR/AAAAAAAAAPSXMAVgzMR/0NRFjPgPAAAAAAAAgH4TpwCMkfgPmrqAEf8BAAAAAAAAgEAFYEzEf9DUxYv4DwAAAAAAAAASkQrAWIj/oKkLF/EfAAAAAAAAAOwjVAFYI/EfNHXRIv4DAAAAAAAAgP2JVQDWQPwHTV2wiP8AAAAAAAAA4ECCFYBVEv9BUxcr4j8AAAAAAAAAOBjRCsAqiP+gqQsV8R8AAAAAAAAAHIpwBWCFxH/Q1EWK+A8AAAAAAAAAFiNeAVgB8R80dYEi/gMAAAAAAACApQhYAJZJ/AdNXZyI/wAAAAAAAABgOUQsAMsg/oOmLkzEfwAAAAAAAACwXEIWgCWI/6CpixLxHwAAAAAAAACshJgFYBHiP2jqgkT8BwAAAAAAAAArJWgBOATxHzR1MSL+AwAAAAAAAIDVGJgCgMcbxX//KeI/mCjxHwAAAAAAAACsnrAF4AD7xX8iaZjoRYj4DwAAAAAAAADWQgAIsB/xHzR1ASL+AwAAAAAAAIC1EgACjIj/oKmLD/EfAAAAAAAAAIyDABAg4j9o7sJD/AcAAAAAAAAA4yIABHpP/AdNXXSI/wAAAAAAAABgnASAQK+J/6CpCw7xHwAAAAAAAACMm+AF6C3xHzSlukr8BwAAAAAAAADjN2MKgD668vq59ybVf474Dyasumrd4dUbxH8AAAAAAAAAMH4eAQz0zpXXz713KP6DJi4zxH8AAAAAAAAAMEECQKBXxH/Q2CWG+A8AAAAAAAAAJkwACPSG+A8au7wQ/wEAAAAAAABAAwSAQC+I/6CxSwvxHwAAAAAAAAA0RAAIFE/8B41dVoj/AAAAAAAAAKBBAkCgaOI/aOySQvwHAAAAAAAAAA0TAALFEv9BY5cT4j8AAAAAAAAAmAIBIFAk8R80dikh/gMAAAAAAACAKREAAsUR/0FjlxHiPwAAAAAAAACYIgEgUBTxHzR2CSH+AwAAAAAAAIApEwACxRD/QWOXD+I/AAAAAAAAAGgBASBQBPEfNHbpIP4DAAAAAAAAgJYQAAKdJ/6Dxi4bxH8AAAAAAAAA0CICQKDTxH/Q2CWD+A8AAAAAAAAAWkYACHSW+A8au1wQ/wEAAAAAAABACwkAgU4S/0FjlwriPwAAAAAAAABoqRlTAHTN5dfP/VRS/XbEfzBh4j8AAAAAAAAAaDMrAAKdcvn1cz9Vif+giUsE8R8AAAAAAAAAtJwAEOgM8R80dnkg/gMAAAAAAACADhAAAp0g/oPGLg3EfwAAAAAAAADQEQJAoPXEf9DYZYH4DwAAAAAAAAA6RAAItJr4Dxq7JBD/AQAAAAAAAEDHCACB1hL/QWOXA+I/AAAAAAAAAOggASDQSuI/aOxSQPwHAAAAAAAAAB0lAARaR/wHjV0GiP8AAAAAAAAAoMMEgECriP+gsUsA8R8AAAAAAAAAdJwAEGgN8R80dvoX/wEAAAAAAABAAQSAQCuI/6CxU7/4DwAAAAAAAAAKIQAEpk78B42d9sV/AAAAAAAAAFAQASAwVeI/aOyUL/4DAAAAAAAAgMIIAIGpEf9BY6d78R8AAAAAAAAAFEgACEyF+A8aO9WL/wAAAAAAAACgUAJAoHHiP2jsNC/+AwAAAAAAAICCCQCBRl1x3dxPpqp+J+I/mPQpXvwHAAAAAAAAAIUTAAKNEf9BY6d38R8AAAAAAAAA9IAAEGiE+A8aO7WL/wAAAAAAAACgJwSAwMSJ/6Cx07r4DwAAAAAAAAB6RAAITJT4Dxo7pYv/AAAAAAAAAKBnBIDAxIj/oLHTufgPAAAAAAAAAHpIAAhMhPgPGjuVi/8AAAAAAAAAoKcEgMDYif+gsdO4+A8AAAAAAAAAekwACIyV+A8aO4WL/wAAAAAAAACg5wSAwNiI/6Cx07f4DwAAAAAAAAAQAALjIf6Dxk7d4j8AAAAAAAAAIIkAEBgD8R80dtoW/wEAAAAAAAAAjxAAAmsi/oPGTtniPwAAAAAAAADgMQSAwKqJ/6Cx07X4DwAAAAAAAAB4HAEgsCriP2jsVC3+AwAAAAAAAAAOSgAIrJj4Dxo7TYv/AAAAAAAAAIBDEgACKyL+g8ZO0eI/AAAAAAAAAGBRAkBg2cR/0NjpWfwHAAAAAAAAACxJAAgsi/gPGjs1i/8AAAAAAAAAgGURAAJLEv9BY6dl8R8AAAAAAAAAsGwCQGBR4j9o7JQs/gMAAAAAAAAAVkQACByS+A8aOx2L/wAAAAAAAACAFRMAAgcl/oPGTsXiPwAAAAAAAABgVQSAwOOI/6Cx07D4DwAAAAAAAABYNQEg8BjiP2jsFCz+AwAAAAAAAADWRAAIPOKK6+bek6r63Yj/YNKnX/EfAAAAAAAAALBmAkAgifgPGjz1iv8AAAAAAAAAgLEQAALiP2jutCv+AwAAAAAAAADGRgAIPSf+g8ZOueI/AAAAAAAAAGCsBIDQY+I/aOx0K/4DAAAAAAAAAMZOAAg9Jf6Dxk614j8AAAAAAAAAYCIEgNBD4j9o7DQr/gMAAAAAAAAAJkYACD0j/oPGTrHiPwAAAAAAAABgogSA0CPiP2js9Cr+AwAAAAAAAAAmTgAIPSH+g8ZOreI/AAAAAAAAAKARAkDoAfEfNHZaFf8BAAAAAAAAAI0RAELhxH/Q2ClV/AcAAAAAAAAANEoACAUT/0Fjp1PxHwAAAAAAAADQOAEgFEr8B42dSsV/AAAAAAAAAMBUCAChQOI/aOw0Kv4DAAAAAAAAAKZGAAiFEf9BY6dQ8R8AAAAAAAAAMFUCQCiI+A8aO32K/wAAAAAAAACAqZsxBVCGK2+Ye3dS/ZeI/2DCxH8AAAAAAAAAQDtYARAKcOUNc+8eDsV/0MBpU/wHAAAAAAAAALSGABA6TvwHjZ0yxX8AAAAAAAAAQKsIAKHDxH/Q2OlS/AcAAAAAAAAAtI4AEDpK/AeNnSrFfwAAAAAAAABAKwkAoYPEf9DYaVL8BwAAAAAAAAC0lgAQOkb8B42dIsV/AAAAAAAAAECrCQChQ8R/0NjpUfwHAAAAAAAAALSeABA6QvwHjZ0axX8AAAAAAAAAQCcIAKEDxH/Q2GlR/AcAAAAAAAAAdIYAEFru8uvnfqxK9YdJZswGTPSUKP4DAAAAAAAAADpFAAgtJv6Dxk6H4j8AAAAAAAAAoHMEgNBS4j9o7FQo/gMAAAAAAAAAOkkACC0k/oPGToPiPwAAAAAAAACgswSA0DLiP2jsFCj+AwAAAAAAAAA6TQAILSL+g8ZOf+I/AAAAAAAAAKDzBIDQEuI/aOzUJ/4DAAAAAAAAAIogAIQWEP9BY6c98R8AAAAAAAAAUAwBIEyZ+A8aO+WJ/wAAAAAAAACAoggAYYrEf9DY6U78BwAAAAAAAAAURwAIUyL+g8ZOdeI/AAAAAAAAAKBIAkCYAvEfNHaaE/8BAAAAAAAAAMUSAELDxH/Q2ClO/AcAAAAAAAAAFE0ACA0S/0FjpzfxHwAAAAAAAABQPAEgNET8B42d2sR/AAAAAAAAAEAvCAChAeI/aOy0Jv4DAAAAAAAAAHpjYApgskbx3x9E/AcTJv4DAAAAAAAAAPrFCoAwQfvFf7NmAyZ6OhP/AQAAAAAAAAC9IwCECRH/QWOnMvEfAAAAAAAAANBLAkCYAPEfNHYaE/8BAAAAAAAAAL0lAIQxE/9BY6cw8R8AAAAAAAAA0GsCQBgj8R80dvoS/wHA8h2Z5BLTANmdZKFD3+8wyef7cHGf5NkFjOOLSebsZgAAAABA00RKMCbiP2iK+A8AVuiEJK8wDdA58+lHADiT5I0FjOOrEQACAAAAAFMwMAWwdpdfN/dW8R80QfwHAKuwwRQAAAAAAACUSQAIa3T5dXNvrarqDyP+gwkT/wHAKgkAAQAAAAAACiUAhDUQ/0FTxH8AsAYCQAAAAAAAgEIJAGGVxH/QFPEfAKyRABAAAAAAAKBQAkBYBfEfNEX8BwBjcJgpAAAAAAAAKJMAEFZI/AdNEf8BwJhYARAAAAAAAKBQAkBYAfEfNEX8BwBj5NoVaLOhKQAAAAAAWD0BICyT+A+aIv4DAID0J4yrbGoAAAAAgNUTAMIyiP+gKeI/AAAAAAAAAIDlEgDCEsR/0BTxHwAAAAAAAADASggAYRHiP2iK+A8AAAAAAAAAYKUEgHAI4j9oivgPAAAAAAAAAGA1BIBwEOI/aIr4DwAAAAAAAABgtQSAcADxHzRF/AcAAAAAAAAAsBYCQNiP+A+aIv4DAAAAAAAAAFgrASCMiP+gKeI/AAAAAAAAAIBxEABCxH/QHPEfAAAAAAAAAMC4iJ3ovSuum3tLxH/QAPEfAAAAAAAAAMA4WQGQXhvFf38U8R9MmPgPAAAAAAAAAGDcBID0lvgPmiL+AwCAVRiaAgAAAAAAliIApJfEf9AU8R8AAAAAAAAAwKQIAOkd8R80RfwHAAAAAAAAADBJAkB6RfwHTRH/AQAAAAAAAABMmgCQ3hD/QVPEfwAAAAAAAAAATRAA0gviP2iK+A8AAAAAAAAAoCkCQIon/oOmiP8AAAAAAAAAAJokAKRo4j9oivgPAAAAAAAAAKBpAkCKJf6Dpoj/AAAAAAAAAACmQQBIkcR/0BTxHwAAAAAAAADAtAgAKY74D5oi/gMAAAAAAAAAmCYBIEUR/0FTxH8AAAAAAAAAANMmAKQY4j9oivgPAAAAAAAAAKANBIAUQfwHTRH/AQAAAAAAAAC0hViKzhP/QVPEfwAAAIe6YTIFAHTME5NcsIr/bi7JnpaMYVeSf7ApmYJTklyeZP6A/WHvaB/ZZ88B/3ucDj/I7+0efU/77Nzvnw/8Xvck+VaSoc0JANB9gik6TfwHTRH/AQAAAEBBTk1yacfHsD0CQKZjU5LNBYzjs0k+aHMCAHSfRwDTWeI/aIr4DwAApsBKHLYXAEyS1Wth9Ur5XOp5NiUAQBkEgHSS+A+aIv4DAAAAAID9zBQ0Fp8VAwC4qIPmif+gKeI/AAAAAAA4QEmfT1kNFACgAAJAOkX8B43d84v/AAAAAKBcoh9YvZI+o/JZMQCAizpojvgPmiL+AwAAWOmNlCkAAOgNjwAGAMBFHayU+A+aIv4DAAAAAIBFWAEQAAAXdbAS4j9oivgPAAAAAOgMK/AyLQJAAABc1MFyif+gKeI/AAAAAOgR8RysXkmPAHYsAAAogACQ1rryhrk3i/+gkft78R8AAAAAACzPjLEAANAmAkBa6cob5t48HFZ/HPEfTJj4DwAAAAAAVqCkz1etAAgAUABxFa0j/oPG7uvFfwBA18wnuTPJcL/fW0jSteuZ3aPvuysWkuxJssFLsFFzpgAAAFqppGjOYjEAAAUQWNEq4j9oivgPAOicW5L8YZL7TAUAAABTZNU8AABaRWRFa4j/oCniPwCgc+5N8ntJHjYVAAAwFpUxAAAAlMGyzrSC+A+aIv4DADrpcxH/AQDAOJUQzw1tRuw/AAAgAKQFxH/QFPEfANBZ3zEFAADAAURYTIvPVwEAcIEK+4j/oCniPwCg0+41BQAAADB2QloAgAIIAJka8R80dv8u/gMAAAAAgPEoKZrzKG0AgAIIAJkK8R80RfwHABTBfQMAAIyXVb/A/gMAQCEEgDRO/AdNEf8BAMVw7wAAAEBbVMYCAECbCABplPgPGrtnF/8BACVZZwoAAAAAAAAeTwBIY8R/0BTxHwBQnBlTAAAAHMDKZUzL0BQAANAmAkAaIf6Dpoj/AIAiubaBgm9iTAEAOAevkggLrz1jAQAgAkAaIP6Dpoj/AIBizZsCKJYPHAGA1fKDBLiGNRYAACIAZMLEf9AU8R8AANDNmxlTAAAAUyMABAAogACQibn8+rk3if+gCeI/AAAAAABoyEJBYxEAAgAUQADIRFx+/dybqlTvi/gPJkz8BwAAAACsmFV4YfU8AhgAgFYRADJ24j9oivgPAAAAAAAaJgAEAKBVBICMlfgPmiL+AwAAAACAKRAAAgDQKgJAxkb8B00R/wEA/bsAMgUAAAC0hAAQAIBWEQAyFuI/aIr4DwAAAABYMz9kAyQCQACAIggAWTPxHzRF/AcAAAAAMCJiZFqsAAgAQKsIAFkT8R80RfwHAAAAAAAtsFDQWASAAAAFEACyauI/aIr4DwAAAAAAWsIKgAAAtIoAkFUR/0FTxH8AAPFoLwAAcI0N7SEABACgVQSArJj4D5oi/gMAAAAAACZGAAgAUAABICsi/oOmiP8AAAAAAKCFrAAIAECrCABZNvEfNEX8BwAAAAAALSUABACgVQSALIv4D5oi/gMAAAAAJq4yBbBqAkAAAFpFAMiSxH/QFPEfAMChLpRMAQAA4D6BlhAAAgDQKgJAFiX+g4ZU1YfEfwAAAABAQ8RzsHrDgsYhAAQAKIAAkEMS/0FDqupD6zZWbxT/AQAAAAAsm4iRaRHNAQDQKgJADkr8Bw0R/wEAAAAArIYIC+xDAABEAMhBjOK/P474DyZL/AcAAAAAsFpWAAQAAIgAkAPsF/+tMxswQeI/AAAAAGB6xHMAAACFEADyCPEfNET8BwCw4isoUwAAAAAAAPB4AkCSiP+gMeI/AAAAAAAAAADGRACI+A+aIv4DAAAAAAAAAGCMBIA9J/6Dhoj/AAAAAID2qEwBrNrQFAAA0CYCwB4T/0FDxH8AAAAAAAAAAEyAALCnxH/QEPEfAMBYrqpMAQAAAAAAwOPNmoL+ueL6uTdG/AeTJ/4DAAAAAJgUPygEAAAQKwD2zij+e1/EfzBZ4j8AAAAAAKC9RLQAAIUQAPaI+A+aumUW/wEAjPsKyxQAAAAAAAA8ngCwJ8R/0BDxHwAAAADQfn7IBgAAoBACwB4Q/0FDxH8AAAAAAAAAADRIAFg48R80RPwHAAAAAAAAAEDDBIAFE/9BQ8R/AAAAAAAAAABMgQCwUOI/aIj4DwCgkasuUwAAAK6xAQAAeDwBYIHEf9AQ8R8AAAAAwLSIGAEAACIALI74Dxoi/gMAAAAAAAAAYMoEgAUR/0FDxH8AAAAAAAAAALSAALAQ4j9oiPgPAOieYQlXYTYjAAAAAADA4wkACyD+g4aI/wCAjl7FmAIAAMB9AozNTEHHAZ8VAwAUwEVdx4n/oKnbYPEfAAAAAFAMASCs3mxBY/FZMQCAizqmSfwHDRH/AQAAAAAAtZI+X52xOQEAXKAyJeI/aIj4DwAAAACgjaxiyLSUtAKgABAAoAACwA4S/0FDxH8AAAAAAMBjzRgLAABtIgDsmCuum3uD+A8aIP4DAGjV1ZkpAAAA19jQEgJAAABaRQDYIVdcN/eGVNWfRPwHkyX+AwAAAAAADq6kaM5nxQAALupoivgPGiL+AwAAAAAADs0KgAAAtIoAsAPEf9AQ8R8AAAAAALA4ASAAAK0iAGw58R80RPwHAJRrWMLVms0IOE4BANASswWNRQAIAOAClUkS/0FDxH8AAAAAQL9UxgCrtr6gsfgMEtprQ5Kjkhwx+jpstM9uSB3vbhj976Waj91J9oy+do1+3ZtkZ5IHR18PpYwfIgZYysZFjp1zo2NmJ7sRAWBLif+gIeI/AAAAAABg+dYbCzCGfe+40dfxSY4d/XpUHo3+mmw5FlJHgA8luT/JA0nuGX1tH/36oM0GtNgxo+PoCaNj6jGjY+nRo+PqvvBvuXamDqbvGx0T9/36wyR3j772tmkCBIAtJP6Dhoj/AAAAAACAlTmsoLEIAGHy+9jJSU4ZfZ2c5KQkR7bs+xzk0fjw5EP8O3tSh4B3J7kzyR2jrx2xeiDQ7HH1lCSnJTl19OtJGX9ftXH0dcwh/v9hknuTbEtye5LbRl9Ti6UFgC0j/oOGiP8AAAAAAICVswIgcDDrkjwxyRmjX09JvcJfKY+s3xfdnJJk836/vyePBoG3J7kldRAjCgTG4egkZ46+zhodgwYt+L6q1CsNHpvkvP1+/94k30tyY5LvpF45sBECwBYR/0FTh2LxHwBA167gTAEAALjGhpawAiCQ1KtCnZk6+Dsj9UpUMz2ch/VJnjT6es7o93YluTV1DLjv111eMsAyzKQO/c4bfZ3Use9/U5KLR19JcleSbyX5yuhYOLE4WgDYEuI/aIj4DwAAAAAAWL2SAkCfS8LK9pezkjw1yVOSPMGUHNKG0Rw9ZfS/h6lXB/xOkm+njmDmTBMwsj7J+alXFz23sGutk0ZfL0zyQJKvpo4Bv5sxx4ACwBYQ/0FDxH8AAAAAAMDqDVLW56tWAITFnZDkaamjv7Pi8/zVqlI/FvmJSV6SZG8efUTmt1I/Mhjol9nR8fXC1Cv99eH4elSS542+diT5QpJ/TP3Y4LFMKFMk/oOmLivFfwAAAAAAwJqsT1mP0BYAwuOdlOSC1CtRnWI6JmJd6qjyqUleleSHqVfF+mqS2zLBR2QCU3dykmenfkTu4T2eh2OTXJnkitGx7w/W+gcKAKdI/AcNEf8BAAAAAOyvMgZYlfXGA0V6Qh6N/k42HY07Icmlo6/7k3wtdRDz3SQLpgc6bzbJliTPT70SKI+9pzlrXJPMFIj/oKnDpfgPAAAApuS4JEekXr1hIcmu0e/PpX7k06FsPMTvVcv495Jkdxb/kGh+9O/sHn0fe2wqWuCwJE9a5P/fO9p3puHhFf772wvdRkePvtZq7hDHneF+x8n9rcvyPss5LMlM6phnZr//bv3oeLlh9HXY6H+X8MHbIMnxefwqQUudB5aybx6zzPNRRnO9ls979ozOTwfb93bt9/ro8opIxyU5fTTOPcsY/86Gx3vg9cnORfa1kqxbxb6w3OPSUtq86s/DBZ/PeNSG1I+efFYEKW275tr3iMz7k3wx9WMy7zY10DlHJnnuaH8+ynRMlgBwCsR/0BDxHwBAMVd2pgCgky5K8tKOfK+7UscHD6b+kOmh0T8/kOSm1I+hgkk6IclPFzCOPUn+VaHb6IVJXuyl2irrkvxmD8e9LwTcPfrnnaOvXQf59Zuj81obnJPkTR0+ts0Xen/6zNQrnm1wSHmMLyd5n2ko0r6Vlp41eu37vL7djk7yktHXzUn+Mcn18UNcrMylSU4dXTvt78AfGpk/yL8zaYf6IaB9P4hwa5J7Ozjnx47220uiS2uMiW6Y+A+aunwX/wEAAMC078479L3uWxnr6NQfDOzvExEAYn/Be/q065yVHHol3P39XtoTAHZZyY/JnRl9QR/24+ekXonqRNPRSWeOvl6b5IYkn3WfxgpeO+d39Hv/8ySf79D3e2ySy1KHf64vGiYAbJD4Dxoi/gMAKO4KzxQAADBl600BHTRnCmBVvA9RjsOT/Mjo63DTUcw12SWjr+8m+bsk30qzj43HMb0ph3Xk+zwyyY+mXl1V+DclAsCGiP+gqdO3+A8A4MArpALG4A08cIzC9nUewv7CtHlvny7a6zgH9NSRSZ6X5IXxiOuSPXn0dWeSzyT5YsTvlHUN0vbj17rUgfVljrXTJwBswBVfnntlquqPvUEAkz51i/8AAA6ihGjBB0XgGAUA02YFQLpo3hTAqngfors2JbkiyTNjFao+OTnJG5NcnuRTST6XZI9poQBtjeqqJBcleXmSY2ymdhAATtgVX557ZQbVX6Q7S3NCR2/FxH8AAIvcjAM4RmH7gv2lCSWH3X7Any5q0ypIrguASTosyYuSXOqc3Wubkrw6dQj4iSSfjhUB8QjgcTshyeuTnOul1S4CwAkS/0FTp2zxHwDAIqyuBThGAcDaWQGQLrICIFC62STPT/34ycNNByOHJ3lFkuck+UiSG+L9B7qpTa3RbOq49tJYYbW1J0QmQPwHDRH/AQAAAACTZzUhusiqR7A6Vqzsxja6KMnLUq/6BgdzfJJ3JHlxkquSfMeUOKZ3TFtCuycmeWuSk7yc2ksAOAHiP2jqVC3+AwDoy5WfKQD7N7bvFFkpAvsLiRUA6SYBIDgvl+iUJG9IcoapYJlOT/IzSb6Z5ENJtpkSWJaZJFckeUmSgeloNwHgmIn/oKlbL/EfAAAAANAYKwDSRW0KAAVVwFqtT/KjSV4QIQqrc16Sc5P8XZJrk+w1Jb1Q+d5X5aTUK2ie4iXUDQLAMRL/QVOnOfEfAAAAdOEOvpBxWAEQ+4v9JbECIN1kBUDo93m5JOcneW2SY00FazST5LIkFyb5QJJvmxJ4nItTr7TqHqhDBIBjIv6Dpm65xH8AAAAAQON8nkIXzZsCoOOOSR2hPM1UMGbHJXlvki8l+ZskD5kSWqjpIH1d6tj62abeDWsvif+gqdOb+A8AAAC6dCdvCgDHNJiqBVMAjvkddlGS1yXZaCqYoItTPxr4b5N8wXQ4pvfYpiTvTnKqqegmAeAaif+gqdOy+A8AAACAYvlQyjaCSRjah4AO2ph6BaqLTQUNOTzJW1I/FvhPkzxgSlzHt8RcQ3/PGUnemeQoL5fuEgCugfgPmjoli/8AAPp+RWgKABy/wf4CAFC8pyR5c+pH/8I0Xn//JMn7k3zTdNACTQSAFyV5U+rH/9JhAsBVEv9BQ8R/AAAAAACwUkNTAKsmzG/ebJJXJ3mu+WfKjkzyniSfTPKRJPOmhCnaO+E//8rRF4WcSFkh8R80dXsl/gMAAIAu39kXMg4BBfYX+0tJ2wjsQ0DbbEryE0meaCpo0TnrxUmemuSPk9xpSlyDTMmkAsBBkteljq4pxMAUrIz4D5o6DYv/AAAAAKBjKmMDwDGfFTg/9SNXxX+00clJfinJxaaCKZnECpSzSd4e8V9xrAC4AlfeMPeK4VD8B5O/rRL/AQDw2CtEUwAA0AmlrgDoehT7o/0IGK9BkpelXmXN8YE2W5/kx5KcmuSqJAumxLV8g8a9AuBsknelXt2SwggAl2kU/30g4j+Y8OlX/AcAAACl3OWbArC/AIDzMgc4Ksk7kpxtKuiQF6VeEfCPkuw0HY7pDZkb458l/iucRwAvg/gPmjr1iv8AAAAAgNYRggDAeOx7pKr4jy56SpJfSfIEU0FDxrUC4EySn4j4r2gCwCWI/6Ah4j8AAAAAoJ0EgHSRRwCD12vbnJfkF5McayrosONHr+PzTQUNGMcKgIMk70zyNNNZNgHgIsR/0NRtlPgPAACAbt/ZmoKi52VoU2J/AQDnZdbk+UneHZ+7U4YNqR+l+iJT4Zg+YXvHMPY3RfzXC7Om4ODEf9DU6Vb8BwDA0leNpgAAAACgcwZJXpXkBaaCwlSj1/aRST4cPzjGZKx1BcCXJbnENPaDAPAgxH/Q1GWR+A8AAABKvvM3BWB/KYQPdAGcl1m5dUneEY9KpWyXJjk8yQeSLJgOx/QxW0sA+PwkL7H5+8MjgA8g/oOmTrPiPwAAAIohDAEo+3joOE8XVb4fYIrWp37kr/iPPnh2knemjl5xTTROqw0Az03yGpu+XwSA+xH/QVOnWPEfAAAA9OEdAFMA9pdCCAABYPk2Jvnp1AEK9MX5SX4qyQZTwRjtXcV/c1ySt0cP1js2+Ij4Dxoi/gMAAKDAu11TAFA8ESCuT8D+w9KOSvLzSc4wFfTQ2Ul+NskRpoIxmV/hv78hyXu8BvtJABjxHzR3uyT+AwAAgD69E2AKwP5SEAEgOM4Bizs2yS8kOdlU0GOnJXlv6pUwcQ2yVit9BPCbkzzBJu+n3geA4j9o6rQq/gMAYPVXk6YAAIApEwDiPgrsPxzacalX/jveVEBOi8cBMx4rCQCfm+QCU9ZfvQ4AxX/Q1G2S+A8AAADoLNEPTRAaAI4tQFcdk+RnkmwyFfCIJyX5ySTrTQVrsNxHAJ+c5NWmq996GwCK/6Ah4j8AAMZwVWkKABy/AaZMDAzgOpbHOzJ1/HecqYDHOTPJu5OsMxWO6RP83tcleYfXGb0MAMV/0NTpSPwHAMBY+LAVcJzqJh+cQv/2F8dDwHUB9MfG1I85PdFUwCGdk+RdSWZNhWuQCd1fvTTJE2xmehcAiv+gqdOo+A8AgPFdXZoCwHEKgClbMAW4RgH7Do/YkOS9SU4zFbCkpyR5m2MLEzgfPSnJC0wTSc8CQPEfNHUaEv8BAAAAAADQSSKdxc0meU+SJ5oKWLYLkrzCNDimj/lY/Ob09MmvPF5vXgiX3TD3cvEfNHH6FP8BAAAASXxwCvaXslgBkC5q02O5HeegnGuWH0tylqmAFXtxkueYBsZ0/XRZPPqX/fTiOeOX3TD38sGw+mDEfzDh04/4DwAAACjO0BQA4BwGkKRewWyzaWjEniR3J7kvyUNJ7h/9+lCSB5I8OPp39tl1wHF/JnUfsXH062H7/e9jkhyb5Lgkm5Icbbob8/okO5J821Q0pss/hDBziN8/LsmlNi37Kz4AFP9BU6dN8R8AAJO72jQFAABMmZAKr1noD+9DHNzzU69gxnjtTPKD1LHfXaOvu5PcO4Zj+YPL/PdmUwdFxyc5Nclpo69jbZ6xGyT58ST/McmdpoMlHKpzenV6suAby1f0C0L8B03dBon/AAAAgMfxwSnYX0oipsJr1nEO+uz8JK8xDWNxT5Kb9/u6qwXH7Lk8Gh9+Y7/fPyKPxoBnJDknyXqbcM02JPnJJP8h9cqOuAZZ7LVyoHOTPN1m5UDFBoDiP2jqdCn+AwAAAACKJwDEaxb6Q7D6WKcneXvqlctYuQeTfD3Jt1IHfw906Ht/KPWjavc9rnYmdQj41NQR0mn2l1XblOSdSX4rybzp4BAO7J0GqVf/g8cpMgAU/0FTtz/iPwAAAOCQfBAE9hdgeqwACIzDkUneFau+rdRdqaO/ryW5NeVE2fNJvjf6+nDqFQKfkmRzkvNSB4Is35NSx1x/aSo4hAObpwuTnGxaOJjiAkDxHzR1qy7+AwAAAHrBCkpgf3EsAOgXwWptkOQdSY4xFctyT5IvJLkhyd09GfNDSb48+jo8dQh4cepVAu1Hy/P8JDclud5UOKYfxGEHHJOvsDkPau/oePRgkp2jryTZnWRh9M8bRq+F2dHxauPo64gUEi8XFQCK/6CpU6T4DwCAZq9ATQGA4zfAlAkA8ZoF+uaVSZ5sGhY1l+SrST6f5Ls9P/Y+nOQfRl/HpQ4Bn5nkeC+TJb0pyR2pV46E/R213z8/M8kJPZ6LhdE+8v0k21JH19uT/DB16Lda1Wiejxl9HZ/kxNFcn5R6JdxOKCYAFP9BQ8R/AAAAADBugtn2E1PhNes4h/Nyn1yY5IWm4ZC2Jflcki+lDt94rO1Jtia5Nskzkrwo9aqAHNxhSX48yb9PvZIZjun7HDv6tY+r/+1J/bjx7yS5OXUkO4n9Y5jk/tHXbQf5/49MclqSU5OcnuTMPDbMbI0iAkDxHzR1ahT/AQAAAMtWygenoh/sLzgW4DUL9MnJqVck4/HuSHJNkq85zi77XPSV0deZqUPAp7v2PeR+94Ykf2oq2M++AHDzfv9csvtSP0b9a0luSTLfgu/pwSTfGn3tc1KSs5KcPfo6pg2T1/kAUPwHDRH/AQAAAAD9dVXq1R9m9vu9KsnGA/692STrFvlz9mRtH2TN57GPuDrwe5hJsn70z+tG38+G0a/rU3+WsmmJ77Fr22XnAb93WOpVUg5m3SrHvtifuVxr3fbLMdxvPuZbtq1uTvKJQl53Zyd5UiFj+XjqR+ct9voeZOnPYddn6c+dNzY0pl2jfWH//WFhv2PnXB5dQWj//XL//+7BHp/vDkvyzv3OJdS2pQ7/vhLh31rOAzenfqzmi5M8awzn1tI8M/WjpL9gKsaqy8HpcaNfS16R9f7RsfX61NFfF46xd42+Pjf638ePrg/PTfLUBq95Hncj2lniP2jqlCj+AwAAAFbMqg5gfynJlwsayzlJfiqPjRm7vF3u8/LshO+MvkrwipQTAN6U5JtenuzndakDLWo7knw4dZgi/BuPHyb5iySfGh1Pzzclj/Ga1BHgDlPhXivJEUmekuSJhW2T4ei68O+TfL2A4+s9o69/HN1jnZ368efnp8HVATsbAIr/oKnTofgPAIDpX5WaAgAAGJvvJPlikmebCgD2c2HqFcioV4r8uyQfy6MrRjJedyX5/SRPTvLKJKebkiT1ys1vTvI7EZ1Se1VBY9kzug/5zOgYUKL5JDeOvv4yyWmpH33+jCRPmORf3MkAUPwHDRH/AQAAAACUaN4UALCfY5O83jQkSb6d5K+S3G0qGvHdJP8+yUVJXpZkkynJOUmel3p1NNau6z9cfnIB22BX6lU/P51kZ49ee8Mkt4++PprklCSXpA7ujxr3X9a5AFD8B02dBsV/AAAAwJpYwRX6t79YpQTAcZvuGSR5W5KNPZ+HB5N8MMlXvCSmciz6UpKvpl7t7DnuJ/OKJN9K/VhR6Ko9qVf7+7skD5uO3JHkb5J8KPWjnZ+ZenXAsehUACj+g4aI/wAAAAD28cE4gGM0QMkuS3Jmz+fg60n+PHUEyPTsSfKB1BHmm9Pv1QDXJ3lrkt9yvUMHLST5bJJrHVcPOT/fHH1tSHLeOP7QzgSA4j9oiPgPAAAAGA8rAIL9hfbyQTLgWECSnJbkih6Pf2/q1Zj+wUuhVW5M8u+SvDrJs3o8D2cmeWGST3pJuNfqkFtSh7x3mIpl2ZXkunH8QZ0IAMV/0NSpT/wHAAAAAAAAPTBIvcraoKfjvz3J+5Lc7aXQSruS/FnqxwK/McnRPZ2Hlya5Icm9XhK03MNJrkryj/EDBlM7qbfaKP77QMR/MFniPwAAWny1agoAADrBBz0A0B0vTnJqT8f+j0n+Y8R/XfCNJP9bku/1dPzrUq+EyOp5b3nyrk/yPyf5vHvC6Wn1CoCXXzf3qmpY/UXq55sDEzKsqg/eu6d66xc3V3vNRvtdcf3wuVUWXjOsqs3VcOHEYaqZYYYPVRnsSX1G3VklG5PhsQ1dM+2wVSjvuDi8c2Y4+Lmrt1QPmQ0AAFj9DaMpAPsLANBKJya5sofjXkj9yN/PeAl0ygNJfjvJy5O8qIfXzhckeUqSb3sp0DK7kvxlki+ZiulrbQB4+XVzr6oq8R9M2iPx3yXiv7Z7+T8Mj967cfgHycJrhkkyHGY4ur6tUmVfTN/8Fa+In+LcOZPBL4v/AAAaIXihC9z4AjhGg32I0u7D3pSWLxY0AQ8n+aMkN3oJdNJCkg+lfnTzW3v4+n1dkn+XZM5LYVXHPMbv1tSPUb/HVLRDKw+K4j9o6K5O/NcZdfw3/9Gkeq7ZgIneAtwxyOCyqzdX3zQZAADN3JqagsKvsAH7C9h3ANrmuUnO6tmYtyX5vSTbbf7Ouz7JfUneleSIHo37hCQvSPIJLwGmbJhka5JrU4e5tMSgbd/QZTfMvbyqqj+L+A8mq6o+tH5j9TbxX/uJ/6C5NwDmFwZXiv8AAAAAOsMPEwCszJGpH6PaJ7cl+a2I/0pyc5L/I8mOno37iiTH2Pwr5gdGxmd3kv8ryTUR/7VOqwLAy26Ye/lgWH0gyQabBiZ5iqs+tG5j9cYPn1vtNhntJv6Dxmwbzg8u+/iF1ddMBUA7r2BNAYDjNwAAsGYvS78+i/9Okt9O/fhfyvLDJP8xyV09GvP6JK+06ZmSe5L8hyQ+S22p1gSA4j9oiPivM8R/0Jhtw/nBZddeXH3dVAAAADAlglkAYNJOT/KsHo33a0n+a+oVqyjTfalXd/xBj8a8JclpNj0NuzHJ/576ceq0VCsCwMuv3/sy8R80QPzXGeI/aIz4DwAAJkfQBPYXAKA91xqv7dE1x5eS/EGSOZu+eA8l+Z0kd/ZoX36pze5eq0HXpY6pd5qKdpt6AHj59XtfVmXwwYj/YMKnNfFfV4j/oDHiPwCAFtytmgI6YGgKwP6C1xzYh+i4i5Kc0ZOxfi3J+5Ms2Oy98VCS/5z+rE52XpKzbfZl897T6n02yfuSzJuK9ptqACj+g6ZOaeK/rhD/QWPEfwAAMHneZAf7CwAwfeuTvKInY70xyR9F/NdH+yLAu3syXqsAuteatE8k+WD8sEBnTC0AFP9BU6cz8V9XiP+gMeI/gA5e1ZoCKJY3EQHAORiAybo0ydE9GOf3kvx+PPa3zx5M8rtJ7u3BWM9Kcq5NzoT8bZKrTEO3TCUAFP9BQ8R/nSH+g8aI/wAAAAAA6IsjkrywB+O8PXX8t9cm770dSX47yQM9GOvL4genGb+rk3zSNHRP4wGg+A8aIv7rDPEfNEb8BwDQwrtXU2D7AvYXAGBiXpLksMLHeG/q+G+Xzc3ID9OPIPSJSZ5mc7vXGqNPJNlqGrqp0QBQ/AdNncLEf10h/oPGiP8A3LsCAAAAj+Vx4GU7OsnzCh/jniT/Z5L7bW4OcFuS9/XgOHepTc2Y/H089rfTGvsQRfwHDRH/dYb4Dxoj/gPovgtMAUAnlfJT9j4Yx/4CAHTR5UnWFTy+YZI/SfJ9m5pD+GqSDxc+xjOTPMmmdq+1Rtcl+SvT0G2NBIDiP2jq1CX+6wrxHzRG/AdQhgtSP7IGAAAYj6FxABTtuCTPLnyMH0kdeMFi/q4Hr5MX2syswS1J3u+6uvtmJ/0XiP+gIeK/zhD/QWPEfwCFXUYlOT/Jl5LcmeThPPpT7BtS/yTnMMkuU9UKG3s89ltSP4IIAPrIh0YA0A5XJJkpeHw3JPm4zcwyr0/fn+SUJMcXOsYLkhybZIfNzQptT/L7SeZMRfdNNAAU/0FDxH+dIf6Dxoj/AMp0xugL2uzfpY5UAY/ZAfsLADANxyS5qODxbU/y5zYzK7AryR8k+aU0sEjWFAySvCDJ39jU7rVWYGeS/5rkIVNRzoFgIsR/0NTpSvzXFeI/aIz4DwAAAABgaVZuLdMLU+7qf/NJ/iieAMHK/SDJRwse37OjzWFl5//3JbnLVJRjIgGg+A8aIv7rDPEfNEb8BwAA7eGn7MH+AgA0a2OS5xQ8vg8nuc1mZpU+meSmQsd2WOH7vnut8fp4km+ahrKMPQAU/0FTpynxX1eI/6Ax4j8AAGiXUt5ktzIO9hcAoCuelzoEKtE3k3zKJmaN93Z/mmRPoeN7tvsK91rL8L0kV5uG8ow1ABT/QVOnKPFfV4j/oDHiPwAAAID+EWmDfYhHzSZ5fqFjezjJn3nNMgbbk1xT6NhOTHKGTfw4AsBHPZT60b8LpqI8YwsAxX/Q1OlJ/NcV4j9ojPgPAAAAAGDlRBFleWaSowsd218necAmZkw+leSOQsd2ic3LIQxTx3/3mYoyjSUAFP9BU7dh4r+uEP9BY8R/AADQXj5QBvsLAO1mNbWy/Eih4/pmki/ZvIzRQpIPFHoM3JJkvU3MQXwuybdNQ7nWHACK/6Ah4r/OEP9BY8R/AABAE3wwDvYXAMdt2u7MJCcXOK5dqUMtGLdbkny5wHEdluQCm/cx/LBVsiPJh0xD2dYUAIr/oKlTkvivK8R/0BjxHwAAtJ832cH+AgA0o9TPpT6U5F6blwn5SJK9BY7rWTYt+xkm+bMkWpPCrToAFP9BQ8R/nSH+g8aI/wAAAADWxqpfAOU4PMnmAsd1W5LP27xM0L1JPl3guM5KcrzNy8jnknzHNJRvVQGg+A8aIv7rDPEfNEb8BwAAAAAAj7okyWxhYxom+esI1pm8jyfZWdiYqiQX2rSPmY++ejDJVV4C/bDiAHAU//1lxH8w2avaqvrgjj3V68V/7Sf+g8b8YDgcvEj8BwBQFI+8tH27wIeO2F/wmnOMBmjz8fw5BY7ry0lusXlpwK4knypwXE+3ad1rJfnw6DVOD6w4AJypZm9Ole2mDiZ5Cqo+tH5j9bYvXlLtNRntJv6Dxmwbzg+uvPbC6tumAgCgKD60BwDnYABW7+wkJxY2pj2poxVoyqdT3iqApyXZZNP22m1JvmAa+mPFAeDVm6tvDjK4LFXuMH0wAR772xniP2iMx/4CAEA3WdEM7C8AtJsYuPsuKXBMH09yn01Lg3aljgBLu78436bt9fn9r5zn+2Wwmv9IBAiTOg2L/7pC/AeNEf8BAAAAAMDjrU9yQWFjejDJJ21apuDvk5T2dL5n2KxJ+vnDVl9KcqtN3y+D1f6Hj0SAyZ2mEcZx2hH/dYX4Dxoj/gMA6MHdsCmwfTvAT8xjf7G/AEAbbU4dAZbk4ykvwqIbHkryxcLGdHaSw23a3r33NJ/kGpu9fwZr+Y+v3lx9c1ANXhIRIKzxlCP+6wrxHzRG/AcAAN0n8ARg0kSnYB/qs9Ie/3t/kn+wWZmiTxV2XBwkOc9m7Z3PJ9luGvpnsNY/QAQIayT+6wzxHzTmTvEfAEBv+MARAFgLsTnYh/rquCRnFTamj8Xqf0zX3Um+U9iYnu481yt7k1xrV+6nwTj+EBEgrPZ0I/7rCvEfNObODMR/AAAA9I4AA4Bp8AM53XVxYdcP96ZetQqm7QuFjeepSWZt1t74bOrVVOmhwbj+IBEgrJD4rzPEf9CYOzMYXLb1guobpgIAAIogaAL7C0yaeAnoq82FjeeTSeZsVlrgq0l2FTSe9UnOsVl7YW+ST5iG/hqM8w8TAcIyif86Q/wHjRH/AQD09A7ZFAAAAKzIiUlOLmg8O2P1P9pjb5LrCxtTnx8D3Kf3nb6Y5EG7cH8Nxv0HXr25+mYGg8siAoRDnGLEf10h/oPGiP8AAPrLqj0A4BwMwMpcUNh4Pp9kj81Ki5T2GOCnxQ9g9uHa/tOmod8Gk/hDt15QfUMECAch/usM8R80RvwHANDzO2VTYPt2gEgG+4v9xWsOKJXjdjeV9PjfhSSfsUlpmVuS3FXQeI5OWauGuuZ9vG8W9pplFQaT+oNFgHDgqUX81xXiP2iM+A8AAMomLgFg0sRLQN8cl+TUgsZzQ5J7bVZa6IuFjedcm7RonzQFDCb5h2+9oPrGcDB4aZIfmmp6TfzXGeI/aIz4D6A5PhADAGg/wSzuE+w7AMtR2uN/rf5HW11X2Hj6GgD24VpxW5Lv2mUZTPovuPaC6oaZmcEVEQHSU8Oq+uCOPdXrxX/tN4r/PiL+g4n7frUweJH4D6AxPhADAABK5QeegL55WkFj2Zb6UavQRjuS3FHQeM5OMmuzFukfTQFJAwFgknz0GdX1w8Hg8ogA6Z3qA/fuqd76xUuqveai3fZb+e95ZgMm6s4MBldec1F1o6kAAIDiidDB/gJAu4lou2VDkjMKGo9ohbYraSGLdUlOd59VnIUkX7arkjQUACb1SoAiQHp2LvmLHXurHxP/tZ/H/kJjPPYXAADoIh+MAzhGA7TBOUlmChmLaIUuKO3zrDNs0uJ8PckDpoGkwQAw8Thg+qT6ix17q7eJ/9pP/AeNEf8BAED/WNEMAADG56kFjUW0QhfcmuTBgsbTxwCw9PclvmA3ZZ9B03/hR59RXS8CpOwzSPXn4r9uEP9BY8R/ANNlRQwAAACA7ispAPT4X7pgmORbBY3nTJu0KA8X9vpkjQbT+EtFgJSqSvXne7eL/7pA/AeNEf8BAADA0qyYCQAs5glJNhUyloeTfNsmpSO+XtBYjkxynE1ajG8kmTcN7DOY1l8sAqQ81Z/t3V697RMvqebMRbuJ/6Ax4j8AAADoF6tPA8BknFPQWL4e0QrdcWOShYLGc2rPtl/JP2j1Vbsn+xtM8y8XAVLQaeP9c9urt4v/2k/8B40R/wG06WoVAKZjUMg4BE24ZgOgVK5zuuPsgsbyFZuTDtmV5I6CxnOa+6wi7I2VVDnA1N+EEwFSwCnj/XP3DN4h/ms/8R80RvwHAAAAK1PKB1NCEgCYjDMKGcfu1CuqQZfcUtBYTrU5i/DN1BEgPKIVP4W7XwR4j01Cp4j/OkP8B40R/wG0jw9hAZp4hwAA3CcAMBknJjm6kLF8I4nPVemamwsai0cAl+HrdksO1JrHcHz0GdX11YIIkE75U/FfN4j/oLEr6NtnZgcvFP8BAACP3iYAAABrVNLjf79qc9JBNxc0lqOTrLdJO+87poADDdr0zVxzUXWdCJAuqJI/mds++HHxX/uJ/6Cx4+Ltg9nBSz769MoFJwAAAKzq1hpYBSsZAn1wViHjWIjH/9JN946+SrnvON59VqdtS3Kf3ZIDDdr2DYkA6cAZ4k/2bh/8hPiv/cR/0NhxUfwHAAAAAACTcWYh47g9yU6bk466uaCxnGBzdpqQmoMatPGbEgHSYu/b9C0r/3WB+A+aIf4DAAAWv2UA7C8AtJhVNNvv8CTHFjIW0QpddnNBYzne5uy0W0wBBzNo6zcmAqSFt0C/94LNgx//s7dU8yaj3cR/0AzxH0CXDtkATJgPTss+B9m+AIDrWKbl9IKuqwWAdNkPChqLFQC77WZTwMEM2vzNiQBp0e3P771gy+C9/7qqFkxGu4n/oBniPwAAABj3rTYAwOM8sZBx7Elyq81Jh92ZcqJpKwB21/1J7jMNHMyg7d+gCJCpq/JfxX/dIP6Dpg6L4j+AjvHT/ACNXCYDAACM3WmFjOPmJHM2Jx22K3V8VYI+rQBY2nvj37crciiDLnyTIkCmpsp/fcEFg58W/7Wf+A+aOiyK/wC6efgGYMLE1mWfg2xf7C/2F7zmAKallBUArf5HCe4sZBxHJ1lvc3bSXaaAQxl05RsVAdK0Kvkv4r9uEP9BY8dF8R9AN/lADKCRy2UAAICxOiLJMYWM5TabkwKUEgBWSTbZnJ0kAOSQBl36Zq+5qLouw8GVEQEyYcPkd39k8+BnxH/tJ/6Dxu4ExH8AnT6MAzBhYmvnIAAA17GM28kFvc6sAEgJthU0liNtzk4SAHJIg659w1svrL4sAmTCV6C/+8LNg58V/7Wf+A+aIf4DAABWfzsB2F8AgFV6QiHj2J7kIZuTAtxZ0FgEgN0kAOSQZrv4TW+9sPryFdcNr0y1sDXJcTYjY/Q7L9w8+DnxX/uJ/6AZ4j+AIpT60/y7kjycZC7JniR79/vn9Yv8d+u6ei9MZ+w1BX29dAYA9wkAjFUpAeCOJKcv8e9snMDfO4k/c8ME7v8Oy/gXblqf8b//NZv6fbW2/5kzWfy9wdUYjLbTTEHHFwFg9zyYZKdpYLEDaieNIsArRICM0e+8QPzXCeI/aIb4D4AW+WKS21K/Ybwjyb2pA0AAAACAUp1UyDjOSfIrNie0igCwe7aZAhYz6PI3P3oc8BWplw2G1Rvmt7d67G8niP+gGeI/gNIO6533D0n+Psk3Uj9qQ/wHtI1VlMo9B9m+2F/AMRrsQ0zLE0wBMCECwO7ZYQpYzKDrAxABMoZbm9/eumXwc6kqNzktJ/6DZoj/AAq84gWggctoAMcRsO+AfYixOSICHWByHF+650FTwGIGJQxCBMiq72qq/GfxXzeI/6Ch46L4D6DQw3vnuV4HHKecgwDHQ/CaA/tQnxxvCoAJEgB2zwOmgMUMShmICJBV+E/XXDD4efFf+4n/oBniP4Biud4FaORyGgAAYGyOMwXABB3Rk3GW9N64FQBZ1KCkwWy9sPryQgZXRgTI0v7/WzcPfkH8137iP2iG+A+AlnPdDjhOYfvSg1tzAIBHWAEQmKSNpqBzBIAsalDagD62pfqSCJBFDfO/bt0y80/Ef+0n/oPG3Cb+AwCANRHumBcAgC7yWVl7HWsKgAlaZwo6xyOAWdSgxEGJAFnkNuZ/3XrhzK+biPYT/0FjblsYiP8AAABgygSzsDriJaBUHgEMTJIAsHusAMiiBqUOTATIgaoq/0781w3iP2jMbQuDwUs+dkH1XVMBQMv5UA+gmwRNAACwOgJAYJIGSWZNQ6fsNAUstVMXSwTIPsPk316zeeafmon2E/9BY8R/AAAAAP1Vyg/ZiM2BElVJjjENwIStNwWdunafNw0sZlD6AEWADJN/e+2Wmd8wE+0n/oPGiP8A6OBlPQBA0UqJmFy3ec15zQGs3eFJZkwDMGEeA9wde00BSxn0YZD7RYA7bPLe+f+J/7pB/AeNEf8BAABNEZdA//YXAFznsHZHmQKgAVYA7A4BIEsa9GWgH9tSfWlQiQB75n/ZumXmn5mG9hP/QWPEfwB0lQ8kAADANTZAXwgAgSYIALtDAMiSBn0a7NWbqy+KAHvjf9m6Zeafm4b2E/9BY8R/AAAAAADQfkeaAqABfXgEcCk/9CIAZEmDvg1YBFi+apj/WfzXDeI/aIz4D4CuszoJQDcNTAEsm0cAg3sFgH2ONgWAexBj3M+clytL6eWbcCLAom/1/801F878poloP/EfNEb8BwAAAECpxLNAiawACLiOGo9Sflhk3suVpfT2p3BFgEUeuv/N1gtn/hsT0X7iP2iM+A+Acq72AQDKJmIC9wpgH2Kfw00B4B4EWIleP4bj6s3VF4fV4JWpcr+XQudvT8R/HSH+g8aI/wAAgGkr5cMEH4yD/QUAmrTBFAAAKzHo+wRcu7n67DCDl4kAO+1fi/+64Zw6/vuQ+A8m7rZUg0vFfwAAANAZVt8AYBqE2+200RQA7kGAlRiYAhFgx/3rrVtm/nvT0H7nXDU8eu+D8x+9ecdgNsleMwITc9vCYPCSrZur75kKAAriAwkolzebbV8AAOCxrAAIuGcHVkQAOCIC7ODZaJj/TvzXDedcNTx67/r6sb9754bPvWl7dd1wmN1mBsbOY38BAACgm3z4BgDsYwVAAGBFBID7EQF2x3CY//aaC2f+BzPRfvvHf/t+b25++Kybd1Q3iABhrMR/ABR9C2AKAAAA9wpAT1gBEGhCH34IybUivSEAPIAIsANH6GH+22svnPl/mYn2O1j8t48IEMZK/AcAQGdv800BADgHr4HVM4ESrTcFAOxH24UXyWqIAFt9K///FP91w2Lx3z5z88Nn3bS9+sow2WXGYNXEfwAAdPtOH9u3/YSq2F/AMRrsQzRp1hQADZg3BZ0xYwpYigDwEK7dXH12oRq8XATYKv9q6+aZ/7dpaL/lxH+PXFUsDC+56Z7qqyJAWBXxHwB94QMJgG4SNAEAwMrMuI4GGiIA7Na5ARYlAFzExy6o/n6hGrw8yQNmY+r+1dYtM/+jaWi/lcR/j1xZLAwvuWm7CBBWSPwHAAAA5bBiJgCQiDyA5ggAnRsoiABwCR+7oPr7hcHgZREBTk2V/D/Ef91w9jXDY1Ya/z1ydTEvAoQVEP8B0Dc+SAYAANwnAH3g8b9AUwSA3SEAZEkCwGUQAU717v1fXrNl5n8yE+139jXDY+ar+Y+sJv575ApjfnjJTffkayJAWJT4D4Ce3hoA0EEeXQb2FwBgZQSAQFMEgM4NFEQAuEwiwOYNk3957ZaZ/4+ZaL9xxH+PXGUs5JkiQDgk8R8AAAXe/gMAzsEAjFjlCWiKANC5gYIIAFdABNigYf6F+K8bxhn/PXKlsZBn3nRP9bVhstMMwyPEfwAAQNdY0QwAAFxDA+3UhwCwlB96EQCyJAHgCokAJ38ArpJf23rhzP/XVLTfJOK/R642FobPvOme6usiQEgi/gMAq5NAuXy4Zfs6D4H9BQDHbWwToHl9CABLuc+aiffQWIIAcBU+dkH199XC4OURAY79grZK/sk1W2b+N1PRfpOM/x654lgYPvN79+TbC8PqITNOj4n/AAAo+r0AUwAAAOAeCWjcnGNqZ1TRd7EEL5BVuuai6jMiwPEeeIfJr4n/uuHsa4bHzGf+o5OM//ZZWMiWm+4ZfmdhGBEgfST+A4DR/YIpgGL56WWch8DxEAAAaN4eU9ApHgPMogSAayACHJthhvnVa7fM/O+mov0eif+q6jlN/Z0Lw2y56Z6IAOkb8R8AANB1giYAJkmgDfYj2wRg9ceaedPQKbOmgMUIANdIBDiGE8swv7r1wpl/byrabxrx3z4Lw2y5+Z58VwRIT4j/AAAAoF8EswAAQFP2RnDcNQJAFiUAHAMR4KoNU+VXxH/dMM34b5/5YTaLAOkB8R8AAAAAAPSTFbmAJnj8b/d4BDCLEgCOiQhwxYZVlV/eunnmP5iK9mtD/PfIXc8wm2/enu8Oh3nQlqFAt4r/AODg9w+mAKCTrGgG9hcAYGX2mgLAsYaDsAIgixIAjpEIcNmGVZVfvmbzzP9hKtqvTfHfPvML2XzT9nxPBEhhbk0l/gMAAACgEX7IBqCdRDmAYw0HYwVAFiUAHLNrLqo+k+HgFREBHspwmPyS+K8b2hj/7TO/kM03/TA3iQApxK2pBi/Zurn6nqkAgIPfR5gCgE4qZUUz5yGwvzhGA47bNGUhHgMMTJ5HAHePFQDxAmna1gurT19x3fAVqRY+nORIM/LoTcQw+aVrt8z8R1PRfm2O//aZTy646Yf5ylkn5Kyqsq/RWeI/AAAAQIxF00Q/gPNPe+2NlZ4o89pjV8/nYHfqyLcN7vGS7BznBRYlAJyQUQT4chHgY07ov3jtlpnfMhXt14X4b5/55ILv3ZOvnH28CJBOEv8BAAAAADAtYuB22ptkQ8e//397kN9vU/w0DXPx2FVoWkmhu74LL5BpEQE+evNQDfML11w485+8KtqvS/HfPgvDOgI88/icOVPlKFuRjhD/AcAK7ilMAUAnWVEGAPcJACvX9UhsXZKHY7U3gHGyAiCLGpiCydp6YfXpDAcvT/JgX2/AxX/d0cX4b5+FYS64eXtumR/mAVuSDhD/AcAK7ytMAUAnlRIAOg9hfwEAmrSzgDEcbTMCjJUF3liUALABPY4AF6pq+JPiv27ocvz3yAtuIc+4+Ye5fX6Ye21RWkz8BwAA9EUp4ZwwCwCAJpUQAB5jMwJAcwSADelhBLgwzPAnr9k8+/u2fvuVEP898sJLnnbzD3OHCJCWEv8BwOpYeQmgm6wACP3bXwBwncPaWQEQwH3WgTxWnUUJABu09cLq08MMXpHyI8D5YYY/ee2W2f/TVm+/kuK/fR6JABeywxamRcR/AABAn4iZoJ+EJACwdg8XMAYrAAJtUNJ7EzttThYjAGzYtVuqTxUeAc5H/NcZJcZ/+ywkT7t5e7aJAGkJ8R8AAADQB+JfAFg7KwACcCArALIoAeAUFBwBzlfD4Xu2bpn9v2zl9is5/ttnYZjzRIC0gPgPANbOSjKA41T3iIBgZUp5r97xEK83gLUrIQC0AiCAcwMNEgBOSYER4Hw1HL7nmgtn/8DWbb+zrxkeM1fNX11y/LfPwjDn3bQj2+aH1XZbnikQ/wEAAAAAACvxUAFjsAIgwPgsJNltGliMAHCKCooA56vh8N3iv27YF/9VqZ7dlzEPF3LeTduHd4kAaZj4DwAA+sMKRAA4dwGOBYzLAwWMYZPNCDA2u52zWYoAcMoKiAD3xX9/aGu2Xx/jv0fuYBdy3k33DO8WAdIQ8R8AjPlyzhQAjlOdU9m+0Nt9Bq85wHUOa3N/AWM4KskGmxJwzTsWHv/LkgSALdDhCHB+WA3fJf7rhj7Hf4/cxQ7zVBEgDRD/AQAAACslwMBrDpgGMXA7PVDIOE6wKQHGQgDIkgSALXHtlupTg2rwynQnApwfVsN3Xbt59o9svfYT/z3q0QgwIkAmQfwHABO6jDMFgONU5/gwGVZmwRQA4DqWkQcLuTY40aYEGIvdpoClCABb5OrN1Sc7EgHOpxq+U/zXDeK/g9zNDvPUm36YH4oAGTPxHwBM8BLOFACOU4DjiHGA1xvQEwtJHi5gHFYABKatlB9OnLcpWYoAsGX2iwAfauuBpcrwJ7Zunv1jW6v9xH+HNkyeIgJkjMR/ADBZVpECAEpXygqArtvwegMYj/sKGMPJNiPAWAgAWZIAsIVGEeAr0r4IcL7K8Ceu2TL7Plup/cR/SxtFgPfOL+Qus8EaiP8AoJFLNwDHqY6pbF/o5T5jf8HrDexHjMe9BYzhFJsRYCwEgCxJANhSLYwA91bD4ZvFf90g/lvRne3ZN92TB0WArJL4DwAau2wDACjarCkAAPZTwhOsjk+y3qYEWDMBIEsSALZYiyLAvdVw+NZrLpz9oK3Sfmd+fLhJ/Lcyw+Tsm7bnwbmFapvZYAXEfwDQ6CUbgONUx3gsI6zMjCkAAPazo5B7Ao8BBqZ9HCqBAJAlCQBb7urN1SeHg4XXJ9k5pW9hz7AavkX81w1nfny4aWF+/qPiv5UbDnP2zduHD4kAWSbxHwAAADBOVscBAPa3vZBxnGpTAqzZgilgKQLADrj2gnXXDAcLr03zEeCeYTV867WbZ//SVmg/8d/aDYc5++Z7hg+LAFnCrYMMLhX/AQAAAGN0pCkAAPazo5BxnG5TAqyZFQBZkgCwI6YQAe5JNXyL+K8bxH/jM0zOqiPAiAA5mFsHGVx69ZbqJlMBAAA89naSA1TGAisiAAQA9ldKAHiGTQmwZgJAliQA7JAGI8A9qYZv2bp59q/MevuJ/8avjgAjAuRA4j8AmOolGoDjVMcIAGH5NiRZZxoAgP3sSvJgAeM4aXStA+B+fvU8ApglCQA7poEIcE+V4ZvFf90g/pucYXLWTduzUwTIiPgPAKZ+eQbgOMXUeA+VSStp9T/HQ7zewH7E+NxVwBiqeAwwwDiOpbAob1510AQjwD1Vhm++ZsvsX5vl9jvz48NNmZ+/Wvw30dveM2/anp1z87nTZPSa+A8AAGDlSnpz2nuoTJrH/wIAB3NXIePwGGCAtREAsiRvXnXUtResu6YaLrwu44sA9wwyfJP4rxv2xX/DVM8yGxM2zJk37cguEWBvif8AAIDl3T1SMm+0M2lHmQIA4CDuLmQcT7YpAffzxsFkCQA77JoL1109igB3rfGP2jPI8E1Xb5n9G7PafuK/KRAB9pX4DwAAgMR7qEzeMaaAKRCvA7RfKSsAnplk1uYEWDUBIEvy5lXHjSLA12b1EeDu4XD4RvFfR66OxX/TM4oA9y7kDpPRC+I/AGjb1RiA41TXeAQwLN8TTAGO04DrWA6ilBUAZ+MxwIBrXuNgorx5VYA1RIC7h8Phm669cPZvzWL7if9acRt85s33ZH7vQm43GUUT/wEAAIzjLroc3kNl0k42BThOA3AQO5LsLmQsHgMMsHrel8CLpC9WEQHuzsLwjeK/bhD/tcrpN9+TSgRYLPEfALSTDycBx6nu2VvQWNbbnExQFSsAgvMvwKGPc6V8HvVUmxMAJkcAWJAVRIA7Uy28autFsx8ya+0n/mul026+J9Weueo2U1EU8R8AAMD4zCVZKGQsG2xOJmhTYa8xQRYAjFcpAeDpSY6yOQFWxSOAWZIAsDDLiAAfTrXwmq2b1201W+0n/mu1027ZMRyIAIsh/gMAABi/PYWMY6NNyQR5/C8AsJhSPoeqYhVAYDrHnhJou/Ai6aNrLlx3dYYLr8vjI8CHq4j/ukL81wmn3bJjOLNnLiLAbhP/AUD7WUkGcJzqplICQCsAMkkCQHD+BfsRiynpM6in2ZwAq6Ltwoukr7ZeuO6jB0SAD1dZeM01W9Zda3baT/zXKafesiMiwO66RfwHAAAwMVYAhKWdbgoAgEXsSPJgIWM5N8msTQqwYo6dLEkAWLD9IsDtgyy8WvzXDeK/TtoXAd5qKjrllkEGLxH/AUAnWJEAaPsxynHq4KwACIurkpxtGgCAJZSyCMWGeAwwwGrMmAKWIgAs3NYL13103c7BWVdvWfcxs9F+4r9OO/WWHVm3Zz63m4pOuGlhfvBi8R8AdIKoBqC7rAAIizs5yRGmAQBYQkmfPW2xOYEGVYWMwwqALEkA2AMffm51v1loP/FfEU65ZUcGVgJsvVsGGVz+sYurW0wFAAAwBkLlQxMAwuLOMQUAwDKU9LnT+UnW2aQAK2IFQJYkAIQWEP8VZJhTb7k3s7vnIy5rJ4/9BQAAaE4pAaAV2pgUj/8FYNr8MEs33JRkvpCxrE9ynk0KsCICQJYkAIQpE/8Vebt86m3bs14E2DriPwDo6tUVULISHsXiOHVoDxcyjsOSHG5zMmaDlBkAOiYCOG4zfnuSoj5zutgmBRpSyiOABYAsSQAIUyT+K/qO+ZTbtmfj7r35ntloBfEfAAC09vaJgj1c0FiOtTkZs1Pj8dI4BwPTV5mCzrixoLE8LclRNinAss2aApYiAIQpOfPjw03D+flrxH/lGiYn3XZvjhQBTp34DwA6f1kF4DjVUQ8VNBYBION2vikA52CwH7ECJQWAgyTPtEkBls0KgCzr5Ao0bF/8l1SXmI3i75zrCHAu3zUbUyH+AwCAdrPiSNmsAAiHtsUUAAArcHuSnQWN51nuBwGWTQDIkgSA0DDxX/+MIsCjRYCNE/8BAEAnbpmMoWBWAISDOy3JiaYBAFiBhaSoz5lOTHKWzQqwLAJAliQAhAaJ//prOMyJt92bo3fPV98xG40Q/wFAQZdSpgCKZsWHsgkA4eBKXv3PtRuA4zaTc2Nh43mBTQpMWCnvOwkAWZIAEBoi/mM4zIm37RgeIwKcOPEfAAB06FbJGIrmEcDweFWSzaYBgBadl+iObxc2nvNdZwMsiwCQJQkAoQHiP/YZDnPirTuGm3bujQhwMsR/AFDgJZQpAOisklYAPC4+IGc8Th+9ngDAPTcrdU+SOwsazyDJj9isAEsSALKskyowQeI/DnI7fcLt90UEOH7iPwAAYDp3eRzKziQLhYxlQ5JNNiljcJEpAADW4CuFjedZSQ6zWQEWJQBkSQJAmCDxH4ckAhw38R8AADC9OzwWm5uSVgE8xSZljdYneaZpAOdggDW4obDxbEzyfJsVYFGDeCoBy3iRABMg/mNJowhw11xuNBlrIv4DgNKvmoCSefOyfPcWNJaTbU7W6JmpP+QGAPfcrNa2JHcVNqYXp/5BCQAOTd+FFwg07UmfGh4r/mOZt9Yn3Lojx4kAV+2W2YXBpeI/AADo8F2RMZRuR0FjsQIga/U8U4DzF9AyfiCnm0p7DPDhrpPoqM1JzncspSEeA8yiBIAwZk/61PDYavf81eI/VnB3ffytO3Lc7r3Vt83GitwyuzC49CMXVTebCgAomg8mofhbIgpXUgB4hs3JGjw5VpEEwD034/GVAsf04iTrbFo65Kgkb0ry7iS/nuSSCLSYLK8vFiUAhDES/7FaVXL8rfcOT3p4rvqG2VgW8R8AANAWPjRd3L0FjWVTkmNsUlbpRxwTaRkRPkB3/SDJ3YWN6cgkL7Rp6ZBXJtkw+ucnJHlLkn+Z5MokG00PEyAAZFECQBgT8R9jsOn7O4anPLwnIsDFif8AoF98iAzQbTsKG8+TbFJWYVPqR4OB62wAxuWrBY7p0tQhILTd2UkuOsjvH5U6APxvkrzM65kxEwCyKAEgjIH4jzHa9P37IgI8NPEfAKycD/YAHGenqbQA8EyblFV4SbwXDwCM1xcKvBfZkDqegjabSfL6LL6a8sYkl6VeEfANSY43bYzptQeH5E0HWCPxHxOw6fv35dSde/N1U/EY4j8A6CdhDUC33VvYeM6xSVmhY5M82zTQQiU8Ati9AtiP+uzuJDcXOK7nJDnJ5qXFLk/9yN/lmE3y3CT/PMk7kpxi+lgDASCLEgDCGoj/mKBjbr83p4kAHyH+AwAA2sqHpovbmWRXQeM5OR7jxMpcGR/U0E4lBIA+4wL67vMFjmmQ5LU2LS11SurVvVdz3bUlya8leXeSJ5pKVsF9JW6OYBLq+G/hGvEfE3TM7ffmtF17q6/1fB7EfwAAAN1W0mOAqyTn2qQs04lJLjYNMDGHpYyQEWC1bkhZP2yzz7lJLrR5aZlBkjdnbRFWleT8JL+c5KeTnG1aJ66kH9oUALLkQQpYoUfjvzzTbDBhx9x27/D0HkeA4j8AwMpagONU991V2HieYpOyTFfGe/C0VykrAK6zKYEe25vkukLH9uokG21iWuTSJKeP8c87N8nPJfl595gskwCQJW+OgBUQ/zEFx9x27/CJO/embxGg+A8AAOgCAeDS7ixsPE+LN95Z2smpH/MFTNYGUwBrYhXN7vt8oeM6KsnLbF5a4vTUP9wzCWcleW/qVQHPd1xmEfouvEBgXMR/TNHRt9+bPkWA4j8AYB9hDUD3lRYAHp7kyTYrS3hV+vnhnWu37ijl9SkAhLWximb33Z7kB4WO7blJzrGJmbL1Sd6Wyf8Q2BOTvDvJr6X+QSIhILAiAkBYJvEfLdCXCFD8BwAAdInYZWl3FjimZ9isLGJLPMYLmiIAhLURAJbhc4WOq0rylngUMNP1miQnNvj3nZLkHUn+aZKLo+kBlsnBApZB/EeLHH37vXniw3uqrxY6PvEfAABAebYn2VPYmJ4RjwHm4A5LvfoftF0pq8ocblPCmggAy/DFJA8XOrZNSV5rEzMlFyR59pT+7pOS/FiSf5bkWe4/iR9AZQkCQFiC+I8WOvr79w/PKDACFP8BAAfjjQ3AcaqMOdpW2JiOTHKeTctB/GiSY0wDNGaTKYA1mTUFRdiT5LMFj+/i1CssQ5NOSPLmFnwfx4++j3+e5HmO273m/ScWJQCERYj/aPHp/ajv3zc868Fdub6Qq5WbxX8AAEB3b2lYhjsKHNMlNisHODXJj5gGOqKUz4c22ZSwJutNQTE+k2Su4PG9MXWQBU1Yl+Qnkmxo0fd0bJLXJ/nNJC+IFVz7yPtP9OIGD8ZO/EcHHHHHAzmn6xHgMLl53cLgJeI/AODQlwsAFGBbgWM6L/VKgJDUj1N9Q7znDk3bZApgTY4yBcV4MMmXCh7fhiTvjGiVZrw+ySkt/d6OSfKaJP8iyaVpV6TIZHmfnEV5MwIOQvxHhxxxxwM556E9ua6jVyniPwBgGZcMAI5TBShxBcCZJM+2aRl5YZInmQacvxq3yaYE+xCP+GTh9ycnp14JECbpuenGau9HJnlF6hDwpUmOsOlcv9NvAkA4gPiPDjriB/fl3K5FgOI/AACAXvlBynyz+vlJZm3e3jstyctMA0zFsaYA1mSTKSjKXUm+UfgYL0r9+FOYhHOSvLZj3/PGJJcn+ZepVwZ0XC/XgilgMQJA2I/4jw6rI8Dd3YgAxX8AAEBB/AT28jyc5IcFjuvoJBfavL22PsnbIwR1TLStpuUY+x+sySZTUJxP9mCMr0pyvk3NmJ2Y5MdTr/TeRetSx7G/meQtSU6ySV2/0y8CQBg556rhidXuhU9E/Ed3HfGD+/OUtkeA4j8AYOWXDwAU4tZCx/WiJJXN21uvTf1hITAdgySnmAZYtU2moDjfS3JzD479b0/yRJubMdmY5N1JDi9gLDOpH2H8T5O8M8npNm8x5k0BS50coffOuWp44t71C1uTbDYbdNzhP7g/T3lwT77cxm9O/AcAABRIqLx8txQ6rpOTPMPm7aUtSZ5lGnD+mrpTbU5YteNMQZE+0oMxrk/yHq9hxmA2ybtS3g/1VKP71F9JvSKga97u22N3ZTECQHpP/EeBDr/jvjy1bRGg+A8AWP1lBIDjVCFuKXhsL433WvvmuCRvMA04f7XCaTYnrNrRoy/K8r0k3+7BOI9M8lOjX2E19q0meXbh4/yOTV0EASBLHtCgt865anji3PqFayP+ozx1BLi7HRGg+A8AAIAkdyZ5uNCxnZTkYpu4Nw5L/YiwjaaCDttb0FgEgLA2HqNapo+kHz+sdGLqCHCDTc4qvC7lr+Z+e9LOJ8exYgJAFiUApLf2xX/D5AKzQaEOv+P+PPXB3fnSNL8J8R8AAFA4KwCubK6+V/D4rkyyzmYu3r5VQk42FXTcXEFjOSXJjE1Kg3YXNh4BYJluT/K1noz1tNSPA3Ytzkr8aJLn9mCcfxvvW5RgfvQFhyQApJfEf/TI4Xfcn6dNKwIU/wEA47mkAKAgJT966Ngkl9nExXtFkqeZBgpQUgA4mzoChKbsLGw8AsByfTTJQk/GelaSn4ggnOW5PMkVPRjn11L2D+H1idX/WJIAkN4R/9FDG++4P097oOkIcJjvzGfwQvEfAExdZQoAJnz3w0p8t/DxXZr6ccCU6ZIkLzINjomFmCtsPOfapDSoxADQewdl2pbkuh6N97wk74gGgsW9KMlLezDO+SRX2dzFEACyJCc/ekX8R49tvPP+PP3+XcN/bORvG+Y7c9XgJZ/YUt1u6gFg6oa+fwBa5K4k9xc8vpkkr7OZi/TkJG80DRRkb2HjEQDSpF2FjWdDrKJZsqvTr8dGPiPJm6KD4OBenORVPRnrZ5PcbZMXQwDIkpz46A3xH+SwbQ9UmyceAYr/AACAfhEqr3y+vln4GM9J8lybuiinJ3lnPFKOsuwubDxnpo6YoAkPFzgmj7cv1/Ykn+zZmC8ZXbuts/nZzxVJXtmTsT6UZKtNXhQBIEsSANIL4j94xGHbHqi23L97YhHgjeI/AAAAlvCNHozx1fEo4FKckuS9STaaCgrzUGHjmU1yvs1KQ+4rcEwCwLJdW+jrdjHnu4ZjpBrdn/1oj8b8NykzVgcWIQCkeOI/eJz12+6vtty3u/r8mP/cGxeG4j8AaKGq49+/lbUAx6ny3JhkrvAxrkvytlgxrutOSvLTSQ43FRSoxA+FN9usNOT+JAuFjemJSY6zaYu1J8mHejjus5L8QpJjvAR6a5DkjUle2KMxfzfJl2364ljRlGUd8KBY4j84pPV33T+88L7dw3FFgDcuDAcv+diF1fdNLQC0jjAFgLbZk/pDidKdluRVNndnnZTk55IcaSooVIkB4FOSHGHT0oCF1BFgSaokF9m0RbuuJ9fgB3pCkp9PcoKXQO+sT/KuJM/u0Zj3JvnzeD+41NczLEoASLHEf7D0hcJd91fjiADFfwDAJHnDCnCcKtNXejLOH0m/PnAqxYlJfibiP8q2K+WtYDab5BKbloaU+DjVi9P9pwiwuL8s8Ni/HMcl+aXUoTj9sCnJL6Z/jzffmuQem79IAkCWJACkSOI/WP7Fwl33Vxfev7P63Cr/e/EfAADQdwLA1flqkvmejPX1Sc62yTvj9NQr/x1tKujB+WtngeN6TgRMNGN7gWM6Mcm5Nm3RtiX5TE/HfniSn0pyhfNE8Z6U5JeTnNKzcd+Z5JM2f7EEgCxJAEhxxH+w8guGbQ8OL7p/53ClEaD4DwBogrAGoEwPJ7mxJ2OdSfIT8dixLjgvdfx3lKmgJ3YUOKYTkpxv09KAuwod1wtt2uJdk+SBno69SvKjSd6dZKOXQpGe2dPr+WGSv0h/fsiuj2aj72IJXiAURfwHq7Z+24PVSiJA8R8AAEBNqLx61/dorEck+dkkx9vsrfWc1B8GW1nBMbFPSn1E3OU2LQ3YVui4npLkVJu3aLtSPwq4z56W5FeTnOblUIzZJG9M8tbRP/fNp5Lc4mVQ/P3JOpuTxQgAKYb4D9Zs/bYHq4uXEQGK/wCAJvkQGaBcX0uyt0fjPSZ1BHicTd8qVZKXpv7A0Pvl9M32Qsd1euq4Ayap1ACwSvIym7d4X0lyXc/n4Lgkv5DkR+KRwF13fJJfTP0DPX10R5KPeBn0ggCQRXlDgyKI/2B8Fw7bHqwuvnfXISNA8R8AAMBjCZVXb1fqDx/7ZFPqR1KJANthXepVQqwWRl/dU/DYXpX6Eewwyf1nrtCxnZfkbJu4eH+Z/j4KeP9rwdeOrs+t1N1NF6bfqznOJfnjgs9HPJZrWxYlAKTzxH8w/hueux+oLr5vZ/UPB/y++A8AAIBx+3wPx7wp9UqAT7D5p+qkJL+U5GJTQY+VHACemOQFNjETtJDkzoLH97oIDUr3cJIPmIYkyVlJfj3JC2M1wK44PMk7krw9yYYez8NVKXdFWh5P34UXCOUS/8HErLvrweGz7t01/PvR/xb/AQDTYmUtwHGqbDel7ADlUI5N/Ziqp3oJTMXFSX4lySmmwjGx5+4ufHxXJjnBZmaCbit4bCcnebFNXLyvJfmSaUhSrwb46tSPBT7RdLTa01IHm1t6Pg/fTvIZL4deESizKAEgnfXkjw5P2nvYwsfEfzAxM3c/UD1r+8PV34r/AAAAmJBh+rkKYFKvVPGeWKGqSeuSvCXJjyVZbzog9ye5r+DxrU/ytljFjMm5tfDxXZH+PlazT/5qdD6gdkaSf5LkpUkOMx2tctTovP6eJEf3fC4eSvL++OGbvhEAsigBIJ01vz6DJLNmAiZq3R033XX2Z/7Nf/E4HABgWryRBThOle/zSeZ6OvZBktckeUO8zzVpJ6de9e8SUwGPcVvh43tikpfZzExI6QHgbJIfT78fr9kHO5P8hWl43Gv/8iS/meQ50VS04Z7p+Ul+I8lFpiPDJH8W4W5f9wXwAqE8N7+kunN2bvDi1MtTAxOw5667vr3jrz90cjXMXxz+tt99nRkBAAB4HAHg2j0Ujx57bpJfTh2pMV7rUq/g8qtJnmA64HFu7cEYX5zkWTY1E/DD1PFUyY5PveKWz5TL9o0knzYNj3NkkjemXhHwqaZjKs5I8ktJXpdko+lIknwiyddNQy9ZAZBFuVij07770uqu2fnBZREBwtjtvWvbt3b89VUnJMPjkqxbGOZPRYAAAABMyKcjpjwl9Qp1L4o39sfl3CS/nnoFF48AhYO7rSfjfEOSp9jcjNkwyfd6MM6nJXmT65PifahH54SVekKSn0ry3tQry9LMnL8ryS8mOd10POLGJB81Db3lPMyiBIB03ndfWt01yODyiABhbPbete1b2//6qhNH8d8+60WAAMAUWFkLcJzqhzuTfNc0ZDbJq5L8dJJjTceqHZnkx0bzeLzpgEXdnmShB+OcSfLu1CETjNONPRnnJUlenf7FB2f06JpsPskfJnnYbn1IT0m9avfPRFQ+KZuSvDn1qotPNx2PcW+SP+7JdRsHJwBkUQJAinDTFdU2ESCMx9677vpmHf/luIP83+sXhvnT9W/9ndeaKQAAgCQCwHH6uCl4xDlJfiP1o2vXm45lG6R+nPJvJLnYdMCy7E5/VnyaTfLOJBf2ZLzPSPJ2L/GJu7FHY31B6sC+D6vqHjvaf34hyVE92sY7krzfPc6yrtXfm+RXk2yJ5mIcnpDkLUl+M8mzzOnjzCX5gyQPmYoVGxoLfeHASTFEgLB2e+/c9s3tf/OhJ+Tg8d8+6wdV9X4RIADQEG9sAPTHjUluMQ2PWJf60bX/LMlF8dP+i6lShy7/NPVjPg83JbAiX+3RWGeSvC31aqulRkxnpX5k4juTnODlPXF3p16VqS8uSh0+HV3o+I4YHR9+I3Us3Mfrr68n+aRde1lOS/KO0fX685NsNCUrdkbqR/3+euqVRmdMyUH9ZTyie7VKWjFx3uZkMQJAiiIChNXbe+e2b2z/0FVPyHBZy9mLAAGApggAAcepftlqCh7nmNSxyi8mOS9CwP1VSc5P8kupQ5cTTYljIqvSt/fTqyQvSvJzKesx4Wcn+dkkP586qKA53+7ZeJ+c5NdG1yWlOCLJy5P8i9HxYV3PX9MfTnKzXXvZjk/yuiT/anTdfo5r9kVtSPK80XHkF1M/6td8HdrnknzeNLg/icc/s4RZU0Bpbrqi2nbW1uHlC1n4WOo3AIEl7L1z2zfu+dCHT6mG2bSC/2xfBPiWPX/6039lFgEAABiDbyW5NcmTTMXjPCnJTya5I/Xjkm9Ifz8AGKRe8e+yJKd6acCa/TDJttSP3+uTM1KvHPqJ0XF1b0ePh+enDpbO9FKemq8meXbPxnxkkvckuS7JVUnu6+g4jh/tP5dE9Le/hSR/lPoRt0eajmVbl3qVzItSP075C0n+Mf1aJfRQqtQr1F6S+rHJ9rfl+Xbq1f9YPQEgvSEApEijCPAyESAsbe/t3//K9o9efWY1zFGr+M9FgAAAQN9Z7Wr8rk79aDkO7pQkb0/y0tSPZ7suyc6ejH1j6sDi+cmynmDQRXcmOdnLnCn4WvoXACb152RXJHlmkmuSfCnd+HD1iNQRRcnHwy75TpJdqVe16pMqdej09CR/l+TTHbkmqZKcm+S5qT9D9MS8g7svye+nXllUrLVyxya5cnSOuSX1o5W/nuSuHs3BIHX0tzn1D+8c5WWxInck+cN47OtaCQDp1Y0NFEkECEvbF/9luKaL7vWDqnr/YT/2X968+09+6q/NKv93e3f6LNdd33n8031lSZZZbBZjYsxiGwj7DtlBxsAMCamZmgID82AKMElN1UzV/Al5MFUzk2SyMIQEbAwhYFuWhFlsEi+yJO+b8C7ZlhdZljdZ69VyF6m758E5F8mylrv1ds7rVXXqSsLG6m93nz7d592/AwDzTFgDUD+Plts7jOK4XpvkPyb5QpIHUqww8lgFXzsbKVa1+niKk4dVPgH9fJKVKS6FBr32YIpVNevqtCRfKmdwfYq4etBOsjaTvDNF+PfuJCMetgPjYJINKWK4OlqYInT6wyS3JLkpyf4B/Hu+pryPPlb+errq/LnE5iRXpPjyiUu0zu1Y9q1JPp9ke4rofn2KyyxXLeh5Rfk+bmqzguTs7E5ySYq4nLmp0j5cDMpxCQCpNBEgHNvE01se2HXtdW9LZ14Ovhc20lkuAgQAAGpIqNwdVyX5H7Eiy3QsyEsvNXZvihOKm4f48dlMcZL0nUnel+R1Nbgf96dYZccKO/TLlhSXAn5dzefwuiRfThFp3JXkznLf2i8jSc4t94XvSbHyH4PpgdQ3AJyyOMmnU4SA95fPoU19Ph45rXz+vD/JWRGxzcZ95b7xc0YxL6YuO/1H5fHfpsO2LSmC4mF7L/K2HAr+zvA8m7PxFPHfbqOYF223hboQAFJ5IkB4uYktz9y/69rrzp6n+G+KCBAA6AZhDUA9PZ/ipPEnjGJGTkuytNz2JXk4RQy4MYO/esRrk5yTIvp7e+p1GcV2ist77Ug9L8HK4LgnxSpeJK9KETKdl+TxFKu7rU+xclO3nZ4i+ntHkrNTv8vKDqtHUlz+9mSjyMIUK1V+NEVYfF95TPJ0uh8vLEzxJYJ3JPnt8vnE3K1KEQF+xCjm1ZIU566nzl+3UkSAT5Xb8+XrzqBEPwtSBH5nHra9MZqT+dRK8i8pLv/L/HAJYGrDzphaEAHCIRNPb75/1zU3nJPufFtUBAgAANSNULl7rk3ywSSLjGJWTklxkvYj5eP0hRw6mfhUihPy/Xr8Lk7yW0necthW51Wtfpni8s32KfTbvREAHqmRIsY7N8Ul17emWKXp6RQrrW7N7C/H1kxxGdLTU0QUZ5WbVf6G04EUodvvGMVLvC5FTPvpFKudbSyfP8+U21y+oLC4fP5MBUlvTRHSW0G6O1ak+LLJ2UbRNSOHHRtPaZXH7VsP27YlGU2yN/N/SdCRJKeW9/XUz9eUx+6nx+Xnu/3ZwopyP8n8zrUqBIAclwCQ2hABwuHxX6ebHyKJAAEAAJgPe1KsNvJ5o5izRoqT42fk0KqKY0lePMq2J8XqgXN1SpJXplhF67UpTsifXm6vcpf8xp1JbqnQ7REwDrcXU6w89CajOKap/djHy9+3U0QYO1JcKngsyUSKqKmdQ6HEghQrPZ2S5BUpoorXREhRNXdHAHg8S5J8oNymXjP2lM+d3eU2kWSy/NlOsaLfSJKTyufPq8vn0GmOJ3quleRHSf57eWxHb4yUx9HHWiV6/2HH71M/J4/433PYa9ZIipVKF6b4otXCFDHtovK16ZVxCd9+HUP/LMk6o5h3VYrmWu5OjkcASK2IAKmz8aeevm/3dTec2+X4b4oIEACYL04iA/ZT9XZzimDNScb5d3KSN5fbkdopVhTZV/4cK/+8lZeeUBxJcdLwpBSfNS9KcdLwlfHZ83RsSnKlfQoD5tcRAM5EM0UwcapRkGJVyBficu7T1UgR8Qn5hsf+JBcl+a8pYkz6b0m5MdyuSnKbMXRFx22hTm9MoFaePL/xQjPN85KsNw3qYnzz5vt2X3d9r+K/KVMR4J+6BwAAgArzAWx3HUxxeVR6q5niZPwbk7w9yfvL7UMpgsyp7aPln7+r/OfenGJFHvHfie1KsYqOVRwYNHflUPQLzO45BFW2I0UEuNcoYF78a5KbjKFrqvKZTTs+f+IEBIDUkgiQOhl/4sl1u6+9/h0plsfvNREgADBXPtgAYH2SDcZAhRxI8s85+olzxz7020SSO4wBZu2uvHS1XIaf1+aX25oiAtxvFDAn1ydZbQxd13YbqAMBILUlAqQOxh9/Yt3uG9a8J2mc3Me/hggQAAA4lkYFboMTgr2xMlakoho6SZYnecY+hQF2S6xOCbM1luRuY6AGnksRATpGh9m5Kcm1xsA0OTbnhASA1JoIkCobf/zJu3evXvueJIsH4K9TRIBfufgL7hkAAABmYTTFpZFg2F2f5N7j/O8CQAbB7iT3GQPM2s3259TEMylWNT5gFDAjq5P80hh6xgqA1IIAkNoTAVJF4489cffu1Wvem8GI/6YsbHSyQgQIAMyQkyaA/RRT7kjyuDEwxO5OEQDCMLghTjTCbG1LssEYqIknUkSAB40CTqiT5Or4cls/5j7sHJdzQgJAiAiQahl/7Im7d69ZO2jx3xQRIAAAALPVSbIsLjPGcNqY4lLWnWk8zmEQbE0RXgOzc719OjXyaJIfJpk0Cjimdvl+YK1R9FzHbaAOBIBQEgFSBeMbH79r95q178tgxn9TRIAAwEz4cAOwn+Jwu5IsNwaGzAtJfpykZZ/IkLk2ybgxwKxsSXKPMVAjjyb5bpJ9RgEv00pyWZI7jaIvXAKYWhAAwmFEgAyz8Y2P3bV77Y3vT7JoCP66IkAAAABm68FYlYrhsSvJxZn+ypUCOgbJvlilBubi35IcMAZq5OkUEeCoUcBvTCa5JMl9RtE3VgCkFgSAcAQRIMNobMPDt+9ee9MHMxzx3xQRIAAwHT7cAOynOJpfJHnWGBhwe1PEf7uNgiF2Y4qQFZi5XeVzCOrk+STfSbLdKCB7k3wvyUaj6KsqfG5jBUBOSAAIRyECZJiMPbT+9tFbbvtIkpOG8K8vAgQAAIadALA/DiT557jEGINrPMVKH1vtU6jA/vYKj02YtRsihHK8Xz87UkSAzxkFNfZ8km8n2WwU9uNuA70gAIRjEAEyDMYeWn/76G13DGv8N0UECAAcjw83ADiWnUkujW/CM3imLvO1xbEPFfFYkruNAWblQJIV9u/U0J4k/5Rkk1FQQxuS/EOKGJb+q8JnBo4jOCEBIByHCJBBNrZ+/W2jt93x0Qx3/DeliAAv+N6fuGcBAACYgY1JrjYGBsjBJD+Kk91Uzy/jctYwW48nud0YqKGxFJc/XWcU1MjaFKvVTxjFwHAJYGpBAAgnIAJkIN8xrV9/2+itd3wsyYIK3ayFjUZzpQgQADiCbzcCg86HsP13U5KbjYEBcDDJj5M86tiHChpPstJjFGbtVylWL4Y6Hh8tS3KV905UXCvJ8hRfUPNYHyxtt4E6EADCNBwWAW4wDfpt/4MPVTH+myICBAAAYDZ+meQBY6CPDiT5Yeb+JWJxFYPs4RTRNTBzE0kuTRGIQB3dmOSSFKsCQtWMpljt8i6jGEgdt4E6EADCND15fuOFxogIkP7a/+D6W/fcfmdV478pCxuNpssBAwAAw8KHsINzP1wel12lPyaSfD9zW/nPPpFh8askTxgDzMpTKVaGgrp6NMm3k7xoFFTIxiR/l+RJo/AexW2gnwSAMAObljaeFwHSL/vvf+DWPbff8YlUO/6bskgECACUfLgBwHQdSLGqyNNGQQ+NJbko8xdEOfZh0LWT/CTFSjfAzN0cqxZTby+miAAfNgoqcEx0TZKLk+w1joHWqcjjDY5LAAgzJAKkH/atu+fmPXfe/TtJRmp0s4sI8MsX/7FHAAAAMMDEOoNlPMUJmGeMgh6YutTXZqOgZvYk+XFcyhRma3mSrcbgeL/GxpL8MMm1EbUwnHYn+W6SVfYRQ6EK+xmPM05IAAizIAKkl/atu+fmvffc+3s13WcvaiQrRYAAUGs+3IBq89kU3TCWIgJ8zijooudSrF4z37GpYx+GxaYUEZPHLMzceIpLx1tJkzprJ7k+yT8m2WkcDJGH45K/w8YKgNSCD1lhlkSA9MK+dffcVOP4b4oIEAAAqqsK73WEDwP6ljrFigxWZqMbHk7ynSS77FOouV8n+ZUxwKzsTPKDJJNGQc09leRvk9xrFAy4ySQ/L/fd+4xjqHTcBupAAAhzIAKkm/asW3fT3nvu/X376iQiQAAAqKqGEdBF+1NcnvVRo2Ae3ZHiknUTRgFJkrVJbjQGmJVnkvxLrOoz6EQX3Tee5NIUl5cfMw4G0KYkf5/kFvsE+/E+cazACYlKYK6v9iJAumDPunU37b/nfvHfS4kAAaCefKgG1VaFANB+arBNpoi1HjAK5uhgkiuTrEx3T77YpzCMrk6xGiAwc48kuSxO7EOS3J/kW0meNgoG6P3kz1JcqvpF4xhaVXiP5Qu0nJCwBOaBCJD5tOeuu2/af8/9f2AffVQiQACoHyfBodq876EXDqZYTeQ6o2CWdib5pyS3GYVjN455v1+R5C6jgFm5L8lPkrSMArI9yT8k+UVcIpv+ejLJ3yW51THu0KtCZD/ibuREfMgK80QEyHzYc9e6G/ff98AfRMV/PCJAAACoDisA0sv76bokK+LkOjPz6yR/k2SzfQocV7vcxwplYXYeSHEJVMcpULym3Fwegz1iHPTY/hSrfv9Tkm3GUZnPA4adAJATEgDCPBIBMhd7b71j7f777v/DiP+mY1EjneWLv3TJ+UYBAABDzWdT9NqdSS5OstcoOIHJJMuSXJ5koof/XQEgw6yT4jJ5a40CZuWBJD+KVc9gyo4k308Rx+4xDrqsneKLDH+Z5A7H5ZU7Rh12AkBOyIesMM9EgMzG6C23r923fv0nI/6bgcbJabZ+IQIEgMrzYRtU/MDefoo+eDzJ3yd5yig4ho1J/jbJOvsUmNVj+Ookv/J4hlnZkGLVKV9WgEPuTfLXEWXRPU+U7xGvTLECINVShUsAL3A3ciICQOgCESAzMXrLrWvHNmz4pEnMhggQAACG/aC+ArfBCajhtDvFyfWbjILDjKZYYeaiJNuNA+ZkTaxkBrO1Jcm3k2w1CviNsRSXZf3H8jkC82FXkp+U7w2fM47KsgIgtSAAhC4RATIdozffsnZswyPivzkRAQJAxQlroNraRkAftZL8MskPY5Ud+6LklhQry9zr2AfmzUNJvpPi5DowMzuS/EOSh40CXmJTkv+XItryhQ1mazzJtUn+Ksl9xlGL93vDTtuFBwn09Qh0aeP5gyPNz6aTx0yDI43eeMvasYcfFf/NCxEgAAAMqSqsCiTWGX7rk/xN+ZP62ZxilaWfpzgRCMyvZ1OEGk8aBczYWJIfJLkmvjjjeJ8j75P7Unx542fxZR6mbyLJqiT/K8n1SQ4Yif34kHAJYE5IAAhd9szSxpaDC5pLRYAcbvTGm9eOPSr+m18iQAAAGEI+bGdQ7E2xEuDyFCfbqb7RJMtSrK40SJeRExlQRXuSfDfFiXYRE8z8dWFVku8n2Wcc8BKtJLcm+d9JrksRd8HRTCZZUz5WrvGer5avpcNuobuRExEAQg+IADnc6Nqb1449ulH81xUiQACoICfBodqqEADaT1XLXSkuA3WvUVRWK8naFCvGrPMchp5pp7jU3vfiksAwGxuT/G2SDUYBLzOZIgD8P0luTnLQSCgdSHJjivDvVxFS11VVVgA8yV3J8QgAoUdEgCRl/LdR/NddZQT45Ys/bRYAADDwDkR8w+DZm+TSFCvtbDeOSnk4xeWer87gXu532PeJ9umcyBNJ/i7J/UYBMzaa4pLAy+Oy9XCs4/hfpIi9hID2l9emuNTvVXGZ6LqrynuUxe5KjkcACD0kAqy3XatWrxH/9Urj5CQiQACoBieRofrP8T32UwyoR1KsEnd1XCJq2D2e5B+TXJLkRfsU6Lv9SX6c4tLru4wDZuyuFEH7I0YBRzUaIWBdbUlyeYrw7/oI/yi0K3I7TnZXcjwCQOgxEWA97Vq1es3Ek5s+ZRI9tSQiQAAAGAY7jYABNnW52L9Mcmv5e4bHk0m+W25PGgcMnPVJ/m+KOKNtHDAju1KsVvwjx9NwTIeHgGvjSz1V1U6xsvB3knwrya+9b+MIVgCkFgSA0AciwJq9C79e/NdHIkAAABh8O4b872+1rnrYl+RnSf4qyZ1xQmnQPZXkohSr/j1unwIDbSJFnPHtCHVhNh5MsWLxqljlDI5lNMWq3v8zycokzxtJJbyQ5F9TrPb34ySbjISKv8eyAiDHtcAIoD+eWdrYcubqztIFB9ur08i5JlJNu66/Yc3Epqc+ZRJ9NRUB/un45ReuMg4AGDpOgkP17TAChuzxuiLJDUnOS/Lh+Ix1ULSSPJBiJbHNFTj+aTh2o2a2pIh2353k80lONxKYtgNJrknxJYXzk3wkFoGBYz1X7ii3c5L8XpL3eL4Mlb1J7k2xyt8W46Bm71EEgByXD6egj0SA1bbrulVrJp7a/CmTGAhFBPiVi74wftk3bzAOAAAYKJuTbCx/PZlDK6u1yt9POdrlmg4e8c9M1+Ic/STPSJKFx/h3Fh3j33HSoZ6mQsBrkvxuuZ1iLH2xL8ntSW5LsbpLFfy03BeNdPG/sWgW///TOeFkn8hcrU/ycJKPpQiZXm0kMG07kyxPsibJZ5O8P8MblA8ScXs1PV5ur0rywSQfSnKmsQykyfL44J4kj6S45C/MxDA+Zg6k+Myrk2TcXch0OOiDAXDm6s6bRIDVsuuaVWsmnhb/DaD9aXREgADUzUl5+Ze/Ginil369D506eXx4aHP4Se7F5T/XTHEi/yF3IwBD8Hr7oSSfSHKWcXRdJ8Vlfu9MsQKISx5CNS1IsdLqJ5O83jhmZUuSbxlDbZ2R5I/KY5QR45i1v06y1Rhq4Q3l8+VDSU4zjr7akWRDuT3heJ85eksOfankyC+XHu330wm/F+TYXyCd7nvaqf/2gcMe42PuLmZLAAgDQgRYHeK/gScCBAAAoJvOSLFy1YdjVcD59mKKlT9+HZcPhzppJHlvkqVJ3mQc07Y5xUpwDxpF7RquYZ4AABQlSURBVL0qye8n+Z24fOB0HUjxJYNbkzxjHLV83XlzissDvytFGEh3tZM8mWIV4A0R3QLM6sULGBAiwCHXSWfXv/7bjRPPPvdJwxh4IkAAAAC6bSTJuUnelyJcWWIks7InyQMpor/NxgG19+YkH09xucaFxvEyk0nuTxEtuSQ3R1qY4rLAH0/yVuM4queS3J1kXZL9xkHpNUl+O8m7k5ydl19pg5kbL4/tn0qyqfz1hLEAzJ4AEAbMmas7b1rQaq9Jco5pDJFOOrt+9W83Tjwn/hsiIkAAAAB6pZnis553pogC3xifzR5LJ8mzOXTJry2Z3iWYgHpZlCIC/FiKKLDu+80nUkRLD6SIAOFETs+hmPZVNZ/FzhQrZf46VvvjxBamCGjfmiIGPCvJScZyXO0k25I8nUPB3wuO8QHmlw+ZYACdc03nrIMj7dURAQ6HTjq7rrr6pokXtv6RYQwdESAAAAD9cEqKEHBqe23t358Xl/x6JEX0t9tDBJiB03JotdW3pB7nvtpJHk8RLT2UZNTDgFlqlM+b95XbqTW4zZ0Uod9DSdanWPUPZmskRQT4thRB+m+Vr0t11EmyK0Xc93y5vVBuBz1UALp/UAcMIBHg0BzKdnZcdfVNB8R/w0wECAAAQL+9KsUJw7PKn29KsbpVVe1OsVrVpvLn1lgBBJi//em7k7w9xcpMp1Totu1M8mi5PZZkzN3NPGskOTPJO8rn0FtTxE1VsDfFymOPpoj+fNmAbjo5RQg4tZ2R5PWpzqXrR8vXpBfLbdth2wF3P0D/DuSAASUCHHCddHb88uqbDmwV/1WACBAAAIBB0kxxab6zkrwhxUnD0zN8q/J0UpwcfO6wbUv5ZwDd1ij3n+eU25lDtB8dL/eXW5JsLn/ucpfSYwvL585bcugLCouH4O/dTrHy2FOHbdvdnQyAVyR5XYrVv6e208o/f1X6Hwi2kuxLsqfc9pbH7TvL16CpzWp+AAP65gcYYCLAASX+q6L9aTf+ZPyKb6w2CgAAAAbU4hQh4BkpTh6eWm6npThp2K/Pe/cl2VFuO8ufU5f9Gne3AQNkSYrVmN5Ybq9J8upyW9CHv894ijBpZ/nz+SRPp1hRycqoDJpGeRxyZoovKJxe/nxNii8v9NrB8nnz4hHbc0km3V0MoYXlMf0rym1J+WeLym1x+XNqZc5Fx3nujZevI53Dfj2eYvXY8XKbKH/uSxH77XMXAAz3gRow4ESAA8Zlf6tMBAgAAMCwGkkRsJya4pKXSw7bTi5/LkpyUg5FLieV2+HGUpwgbKU4ed5Osj/FCcH9R2yjKWI/J9mBKnhFDsWAp5b7zanY4uRym/r9iWLBqaji8NBirNx2p4iWdpT7UqjCMcgrcyhcOqX89Snl709OESmdnOLc9NTvF5X/frt8zqQ8Bhk77Hk0FSVNbXvLbVe5tY0fAEAACENDBDgoOu0dV/7i1gPbd/yBWVSWCBAAAAAAAAAAGAoCQBgiIsA+63Ra26/8xW0Hd4j/akAECAAAAAAAAAAMPAEgDBkRYJ90Oq3tP/3Z7Qd37vp9w6gNESAAAAAAAAAAMNCaRgDD5fHPNZ5e0GouTfK4afRIp9Pa/tOfi//qZ0manasWf+n7S40CAAAAAAAAABhEVgCEIWUlwB75Tfy3U/xXX1YCBAAAAAAAAAAGkgAQhpgIsMtc9pdDRIAAAAAAAAAAwMARAMKQEwF2SafT2r7yyjsO7tr9e4ZBaX/S+ePxy7+5xigAAAAAAAAAgEHQNAIYbo9/rvH0glZzaZLHTWOedDqt7St/Jv7jSEuSxlWLv3zRp4wCAAAAAAAAABgEVgCEirAS4PzotNsHti1f8ev2nn2fMA2OYV/S+RMrAQIAAAAAAAAA/SYAhAoRAc5Np92e3LZ85T3tPXvFf5yICBAAAAAAAAAA6DsBIFSMCHB2xH/MgggQAAAAAAAAAOgrASBUkAhwZjrt9uT2K1bc29q77+OmwQyJAAEAAAAAAACAvhEAQkWJAKdH/Mc8EAECAAAAAAAAAH0hAIQKEwEeX6fdnty+bMW9rX3iP+ZMBAgAAAAAAAAA9JwAECpOBHh0nVZrYvvylfe39u77mGkwT0SAAAAAAAAAAEBPCQChBsoIcE2Ss00j6bRaY9suv2JDe2z8w6bBPNuXRvOPxy/7+lqjAAAAAAAAAAC6TQAINXH2dZ03txrt1al5BNg5eHD/tmXLHxb/0UUiQAAAAAAAAACgJwSAUCN1jwCL+O+KR9pjEx/yaKDLRIAAAAAAAAAAQNc1jQDq44nPNDaPdJpLkzxRt9texH8rxH/0yinptK9e/JVLPmkUAAAAAAAAAEC3WAEQaqhuKwF2Dh7cv+3yKx5tj0980L1Pj1kJEAAAAAAAAADoGgEg1FRdIsDOwda+bZcv2yj+o4/2pZ3Pj19x4Y1GAQAAAAAAAADMJ5cAhpqqw+WAi/jvCvEf/XZKmvnV4i9d/EdGAQAAAAAAAADMJysAQs1VdSXAzsHWvm2XLnusPTnxAfcyA8JKgAAAAAAAAADAvBIAApWLANuTk6PbL1++uT05+V73LgNGBAgAAAAAAAAAzBsBIJCkOhGg+I8hMNrodD43tuybtxsFAAAAAAAAADAXAkDgN4Y9Aizivyuebk8eeI97kwEnAgQAAAAAAAAA5kwACLzEsEaA7cnJ3S9edsWWHBD/MTREgAAAAAAAAADAnAgAgZcZtgiwiP+WP5MDk+927zFkRIAAAAAAAAAAwKwJAIGjGpYIUPxHBYgAAQAAAAAAAIBZEQACxzToEWBnfHzX1mUrnsuBA+9ybzHkL8a70+n8OxEgAAAAAAAAADATAkDguAY1AmyPjW3ftmzF9s7Bg+9wL1GRF2QRIAAAAAAAAAAwIwJA4ITKCHBNkrcNwt+nPTa2fdvly3d0Wq23u3eo2Ivy7qT5ubHLv36HaQAAAAAAAAAAJyIABKZlUCLA9tj+bdsuX7FT/EeFX5hFgAAAAAAAAADAtDSNAJiOJz7T2DzSaX4qyZP9+ju0x/Zv27Zs5S7xH1XWSV6dtK85+cuXfMI0AAAAAAAAAIDjsQIgMCP9WgmwNbb/xe2Xr9zdaR08171ATV6grQQIAAAAAAAAAByXABCYsV5HgOI/avwiLQIEAAAAAAAAAI5JAAjMSq8iwNa+/Vu3L1+xp3OwdY6pU9MXahEgAAAAAAAAAHBUAkBg1rodAbb27d+6/YoVezut1tmmTc1frEWAAAAAAAAAAMDLCACBOelWBNjeu/e5bctXTnZa7beYMogAAQAAAAAAAICXEwACczbfEWBr775nty9fcUD8By970d6dZj47dumFd5oGAAAAAAAAACAABObFfEWArdHRZ7ev/NnBTqv1ZlOFo75wiwABAAAAAAAAgCQCQGAezTUCbI2OPrt9+ZWtTqd9lmnCcV+8RYAAAAAAAAAAgAAQmF9vW9V5S7vTXp0ZRoDiP5jxC7gIEAAAAAAAAABqTgAIzLuZRoCt0dFntq+4st1pi/9ghi/iIkAAAAAAAAAAqDEBINAV040AW7tHt2xb+dOk3XmTqcGsXshFgAAAAAAAAABQUwJAoGtOFAGK/2DeXsxFgAAAAAAAAABQQwJAoKuOFQEe2L17044VVy5Op3OGKcHcdTrZ1RzJ50SAAAAAAAAAAFAfAkCg646MAA/s2Llpx5U/F//BPOt0smsk7c/uX/Znd5kGAAAAAAAAAFSfABDoiakI8MCOHdlx5S+WpNN5g6nA/BMBAgAAAAAAAEB9NI0A6IUnP914qpPm+Tt/ftVu8R90T6ORU9uN5jVLLrjkw6YBAAAAAAAAANUmAAR6ZvP5jSc6ndZ/SLLJNKCrTmulvWrJBd/7mFEAAAAAAAAAQHW5BDDQc4u/evFb0s6aJG81DegelwMGAAAAAAAAgGoTAAJ9IQKE3hABAgAAAAAAAEB1CQCBvhEBQm+IAAEAAAAAAACgmgSAQF+JAKE3RIAAAAAAAAAAUD0CQKDvRIDQG51Odo00Gp/Zf/k37jYNAAAAAAAAABh+AkBgIIgAoTdEgAAAAAAAAABQHQJAYGAs/vIP3pq0VkcECF0lAgQAAAAAAACAahAAAgNFBAi9IQIEAAAAAAAAgOEnAAQGjggQekMECAAAAAAAAADDTQAIDKRFX7z43MZIVid5k2lA94gAAQAAAAAAAGB4CQCBgVVEgJ01SeNM04DuEQECAAAAAAAAwHBqGgEwqCaWX/hYp7lgadJ5xjSgexqNnNpO59olX/7+R00DAAAAAAAAAIaHFQCBgbfoqz94e6N9cLWVAKHrdjbT+KyVAAEAAAAAAABgOFgBEBh4E5d+baOVAKEnTmunc+2Sr170EaMAAAAAAAAAgMFnBUBgaFgJEHpmZ7PZ+cz+S7+5zigAAAAAAAAAYHAJAIGhIgKEnhEBAgAAAAAAAMCAEwACQ0cECD0jAgQAAAAAAACAASYABIaSCBB6RgQIAAAAAAAAAANKAAgMLREg9IwIEAAAAAAAAAAGkAAQGGoiQOgZESAAAAAAAAAADBgBIDD0igiwtSbJb5kGdNWL7Ubn/MnLvnm/UQAAAAAAAABA/zWNABh2E5d+bWOn016a5FnTgK56fbPTuH7hf/7B+4wCAAAAAAAAAPrPCoBAZSy64HvvaDSaq2MlQOi2F9sjI5+e/MnXHjAKAAAAAAAAAOgfASBQKSJA6BkRIAAAAAAAAAD0mQAQqBwRIPSMCBAAAAAAAAAA+kgACFSSCBB6RgQIAAAAAAAAAH0iAAQqSwQIPSMCBAAAAAAAAIA+EAAClSYChJ4RAQIAAAAAAABAjwkAgcoTAULPiAABAAAAAAAAoIcEgEAtLPri99/ZGOncEBEgdJsIEAAAAAAAAAB6RAAI1IYIEHpGBAgAAAAAAAAAPSAABGpFBAg9IwIEAAAAAAAAgC4TAAK1IwKEnnmx3cl5k8sufNAoAAAAAAAAAGD+NY0AqJuJ5d94pNNqnJfkWdOArnp9s9FYtfCCi99rFAAAAAAAAAAw/6wACNRWuRLg6iRvNA3o6uHG1nan82krAQIAAAAAAADA/BIAArUmAoSeHXKIAAEAAAAAAABgngkAgdoTAULPDjtEgAAAAAAAAAAwjwSAABEBQg8PPUSAAAAAAAAAADBPBIAAJREg9OzwQwQIAAAAAAAAAPNAAAhwGBEg9OwQRAQIAAAAAAAAAHPUNAKAQyaWf+ORdqN1XpLnTAO6qXN6s9FYtfAr33uPWQAAAAAAAADA7FgBEOAoFn7lu7/d7IzcECsBQrcPRba2G63zJi/7s4fMAgAAAAAAAABmRgAIcAwiQOjZ4YgIEAAAAAAAAABmQQAIcBwiQOjZIYkIEAAAAAAAAABmSAAIcAJlBLg6yRmmAV09LBEBAgAAAAAAAMAMCAABpkEECD07NBEBAgAAAAAAAMA0CQABpkkECD3zQrvR/rQIEAAAAAAAAACOTwAIMAMiQOgZESAAAAAAAAAAnEDTCACmb/KyP3+43WgtTfK8aUBXvaHZaa5a+MVL3m0UAAAAAAAAAHB0VgAEmAUrAULPvNBuNc+bXP719UYBAAAAAAAAAC8lAASYpYUXXPSuZqNxQ0SA0G0iQAAAAAAAAAA4CgEgwByIAKFnRIAAAAAAAAAAcAQBIMAciQChZ0SAAAAAAAAAAHAYASDAPBABQs+IAAEAAAAAAACg1DQCgLmbXPbNDe1G53NJtpkGdNUbmiPtGxZ+8ZJ3GwUAAAAAAAAAdWcFQIB5tPArF72/2WmsSvI604CushIgAAAAAAAAALUnAASYZyJA6BkRIAAAAAAAAAC1JgAE6AIRIPSMCBAAAAAAAACA2hIAAnTJSRd8/wMjjc71EQFCt4kAAQAAAAAAAKglASBAF4kAoWdeaHc6SyeXfXODUQAAAAAAAABQF00jAOieA8u+cV+r0zg/yTbTgK56Q7PRuGHhBRe9yygAAAAAAAAAqAsrAAL0gJUAoWeeb3c651kJEAAAAAAAAIA6EAAC9IgIEHpGBAgAAAAAAABALQgAAXpIBAg9IwIEAAAAAAAAoPIEgAA9JgKEnhEBAgAAAAAAAFBpAkCAPigjwFVJXmsa0FUiQAAAAAAAAAAqq2kEAL13YNk37htpts9Pst00oKvOaDYa1y764sXnGgUAAAAAAAAAVWMFQIA+OuWr3/tgq928PlYChG7b0mll6cTyCx8zCgAAAAAAAACqQgAI0GciQOgZESAAAAAAAAAAlSIABBgAIkDoGREgAAAAAAAAAJUhAAQYECJA6BkRIAAAAAAAAACVIAAEGCAiQOgZESAAAAAAAAAAQ08ACDBgRIDQMyJAAAAAAAAAAIaaABBgAIkAoWe2dDqtT00s+/PHjQIAAAAAAACAYSMABBhQS7560Ufa7cZ1SU4zDeiqp9Nsfmr80q8/YRQAAAAAAAAADJOmEQAMpv2XfnPdSLN9XpIXTQO66qy022sWXfDdc4wCAAAAAAAAgGFiBUCAAbfwgovf22zkuiRnmAZ01eY0m0utBAgAAAAAAADAsLACIMCAm1x24YPJyO+mkUdMA7rqzVYCBAAAAAAAAGCYCAABhsD45V/btOBg8w/TyI2mAV11VqMxcsPir15ytlEAAAAAAAAAMOhcAhhgmPzFXzQXbzjzv3Qa+W+NND6QZCTJviSThjO0WklGjWHgbF7Yyn8aXX7hDqMAAAAAAAAAAADm17//1qJ84btLDAIAAAAAAAAAAAAAAAAAAAAAAAAAAAAAAAAAAAAAAAAAAAAAAAAAAAAAAAAAAAAAAAAAAAAAAAAAAAAAAAAAAAAAAAAAAAAAAAAAAAAAAAAAAAAAAAAAAAAAAAAAAAAAAAAAAAAAAAAAAAAAAAAAAAAAAAAAAIAB9f8BTddrXNqhxBcAAAAldEVYdGRhdGU6Y3JlYXRlADIwMjEtMDUtMjFUMTI6MTA6NDYrMDA6MDCELT7jAAAAJXRFWHRkYXRlOm1vZGlmeQAyMDIxLTA1LTIxVDEyOjEwOjQ2KzAwOjAw9XCGXwAAAABJRU5ErkJggg==;" parent="1" vertex="1">
                    <mxGeometry x="120" y="360" width="471.33" height="134.59" as="geometry"/>
                </mxCell>
                <mxCell id="7" value="" style="shape=image;verticalLabelPosition=bottom;labelBackgroundColor=default;verticalAlign=top;aspect=fixed;imageAspect=0;image=data:image/png,iVBORw0KGgoAAAANSUhEUgAAARcAAACDCAMAAACQja8HAAAACXBIWXMAAAsSAAALEgHS3X78AAACDVBMVEX///8Ab7YAb7YAb7YAb7YAb7YAb7YAbrQAb7YAb7YAbrUAbbMAbLIAb7YAbrUAb7UAb7YAbrUBcbcAb7YAcLcAb7YAb7UAcLcBcbcAb7YBc7kUerwAcLcAcLcBcbgBcrgAb7YDdrsIhMYAb7UAcLcDd7wAcLcCdLoGfsEBcbcBcbgAb7YAb7YAcLYAb7YAcLcAcLcAcLcGc7gAb7YAcrEAda0Ad7AAe7YBcbgBcrgBc7UBfbgCdLkCdboDdrsDeL0Dgr0EebwEeb0Eer4Ee78EhL8Fe74GfsAGfsEGhsEHgMEHgboHgcQHiMQIg8MIhMYJhr4Jh8gJicMJjcgKhcUKissLiMYLjc0Lkc0MisgMkM8MlM8NjckNk9IOgroOj8sPg7oPks0PltQQlM4QmdYQmtYRl9ARmNERmNIRmdIRmdMRmtQRnNkSm9USm9YSnNcSndgSntkSntoSn9safr0df70hpd0th8EuotUwq+A8j8U8lL49lsA/seJLmcZNt+ROXGRUqNBaoMxfrNFkcHdmud1pqNBrw+lveoFvtNZ0v993w+V6yet+vNh/vdqIuNiJz+2QmZ6XwduY1e+bo6en2/Kv1uixt7u10eO8wsXE5/bU4urW5+7f7vbi8/vj6u7q8vbx+f3y8vLz8/P09PT09fX19fX29vb39/f4+Pj5+fn6+vr8/Pz9/f3///8/HpedAAAAM3RSTlMAECAwQFBgYXCAgYKDkJGXoKGmsLXAwcTI0NDQ09bZ3ODg4OHk5Obo6Ors8PLz9PT19veYCnP4AAAIUUlEQVR42u2c+X/TZBzHc7QxUavRWLWe2TxAoqJ+xU1FZVqZIg4rygSp064GBkwm8UYF7/u+8Z6i4tG/0efKkydZtha2lzZPn89PYQvd8t73fp48mqakpKSkpKSkpKSk9B+oCqJKCoji0oXLcBTrPMUlxaW5b18rarcVlwwXaDbrUaOhuCguiovioriofKTql/9JJehFioviwrlwfxmGIX491NWPqmXZuTQno8l21CBcJpvooj1JuDTa6KLZzOfiAHi63Fwa9ajejIBwqTfQBUrPQ13ytInd6wJdcVmQr+o7bpQYzAlyQebSjloSgzlBLi7chQIyAuMpLqJ82IEz1Q6Asrxc2q2otS9qEi6tNrpA5f/Qkn2AAbCPpPDNcKlMMBLZgKyCaTWs4terYDW/vhhs4X9QmrfR0qYtVc0HyxEtXuqs5tsMFZm4rBpiWgUQXw6tgbX8ei2s4ddXJrcPxVwajMsOuAjbnykJl2Zc4zd76gP47VGWS5vbUa1SkoBLqx5NTkZbWpjL5BZ0EdUJly2T6KK1hXCpt9AFuuu85PYo60eR6GI1s/BcmoAzcL3Z7ClP89sZFx53owPj26ZCrKlt44iMM9hcDFzuEu0PEz22HqqDzUWrwYPUXHaLXIqetJfPxYZbSGE3K2AJx+DcAY8vmh7AZmwuuwQsEwDFj7vLy9OmG5AII5rLtiJHXcPBAlg9zLQaIL4cvgzW8Os1cBm/vjy5fRg9vFNFUOCWVhQ9mZjL9EaAM4trKTasjO4i7fTemMrU+CgUuiE4Gdbffkd9WWo0HmRuNYecZ2Ji09gYJnVpoVPRqTAR7olWSLvD6VFmP17BxzCYy8wKYXkCx9orULgqF79rPAVx2bUyWHDQXV/wwl+ILxNhuDJcZrC5XKtLxGVuhbwImcuZmixcNobh/hXyIlTJGdKMucfCcHZFcpFE0YWsh4Xh7uVjmSX90LXyrKoBoDHSgeVimcNThVGw5Rl5nw3blh9gSF80hife0ug0GA/DvfmP+9KRTueLZ7pjIcOoBwo/VUipDKNhuCvfkX7ofPNV50hvWKZAnqBLFMD2RRzpUOebw68f7TzTQ0EXTq8v+mwuqzOwI83kc3n78OHPO4e6YNlLR5bXSLbDAy3UT+eXvM93jr79SefnXrCMS7gV8RLcCuQazGedo53OW0vHlhmGxZINi3YSjC5iMNGhjz9+vnvIxVgcTT5dApsWpKSHH++5bsFYXAmxoFSNa17Rkx7aMHJnjy20vFhwzXvrdFLcPXzvzSMjI68c6lq27CFz/1tBpvI/JeNquOme++67f+vWrXdvQExGHnnn+84PXeqWOeJDO0dlDLmCJ12/bt26GzCTkUdf+7KD9cWSkWUmXlK8ytTk1ekALx88ePDFDz788vtOrPcXp0IXinYiHzpL4r3vGt5/Cx/Nz8//8mdH0FtLUnkMBdxrbE1yITCv/ojI/PrX0mAO7Kc7OaYnUGQ5x9CkVwXgqa/nsc0c+4eD+SxjKfv3sJ0tm0aLvqLYe/BFq++vfovJzP/6x59/UzBH4nr3wNwTe+M9P9s34nVWSxsQGfhsCkYGw/nt92PHjv303uzs7MxMsn1jO16ShwsHhgrprX30yC98ytEQffcGZzL1wEYMZa1ragMmi5xn8uybn34tknn3uamdaJ8CWZG/yi1rgyijUmN7El6I9TTf5lJ1BvnNacOqnH9dZuPPBVXHMjUl8pJJGW/aKMmy219JSUlJSUlJApnHXZcYg1DuVo97q7qFXs2Tv9qPX/LtXbjdlr5rLB0/FwA5V1wVF8VFcVFcFBfFpU+KFqdKz5Qw01xKLpnqVu3McrPl4Xc6fc/K4aJXgmQvQ9nFxU2QfABadUHbYnSbvBTqu31dKOuVZGBbtRIupnCquWgPeKmNyS9nuZBFlfgDavzGgN2AFnbBcpIP6OMFJ9PPPdRGs4LUIRzcZNzUrU6Ki06/GcT9gaCqzrqMlPz+xRLkH/ZjZb4Wg3EzXzcELrElOYt+QJZL355goVNb913b4ktEmIsZH2Nj2S41KNobOtQgPKfkeMwTYhK6x3zG5gEcry2V7QrF5Qlc0M8rozfP+/coGEcMH3bAuRBGQVkMQHbcVkLV4AEo4H4U+x09D1MnMGs0sOr0p5Q5l0q/7xvSg9QBscypmBP4ujBKoFGDeFGy0dK04rhrsCdmKOkr+7X0B/gxl/5f3ie/rzBvsRkXL3Oerkf/3noaV1K/1JixuPH3sL0Fwo0EqEm5FOD0Qy/z61P/oc8q7r/VKb8S5MxahOxSSt3vCefZWdTbCJcCbL6rZnMCiQQ0jKR2ydXIjU7eY+Vll/wDnl3y8/z+x7Kwhi8TLqUFx1K7nIuvLcolMbF8LlXCxR0oLrSuqSzJpUK4FKGXWuBHlRPzI1SI2GKqyeWC0ntRuOTGXR+/x5dOG4YQd61FbM4VwUC+wxSFi5X5/W32by+TeKpCng70RXyRgAnMJK8ZheVC6zorXdeZzA8CI4XLjx89MaSyJXKhPQUFY6XrOqOsF4oL6wNYXe7wPoYaCO104sbH4n0Aa2vwTMEXYzcFQ+s+sQ8wvBhyYbhQg8eNoOPR/pC6CesIai47WCwOz+xIrmrFobMslLWEnGYE3EzixhNtOiNTLBrGi8NFr6WTBosPNGF3nzMgimKupzjdvDlDqVhcMmAC3vmXgoVjJZ7JxYFbel632GDL1QrGBYWV5AFcIdcYXkJLrGVKyYCPxA8vlXksPq/TjGQKFVgJ1OKsZes2ji1oPG0smIcjZDXPymTmskvqQXb0sun5qfGv7yf5rUI+wOVfMNxAopO+lZSUlJSUlJSUlJSUlJSKr38B2JVxnNwCi1oAAAAASUVORK5CYII=;" parent="1" vertex="1">
                    <mxGeometry x="380" y="595" width="404.66" height="190" as="geometry"/>
                </mxCell>
                <mxCell id="11" value="" style="shape=image;verticalLabelPosition=bottom;labelBackgroundColor=default;verticalAlign=top;aspect=fixed;imageAspect=0;image=data:image/png,iVBORw0KGgoAAAANSUhEUgAAC7gAAAfQCAMAAABlzOIIAAAABGdBTUEAALGPC/xhBQAAAAFzUkdCAK7OHOkAAADDUExURUdwTACZAACZAACYAACZAACZAACYAACbAACWAACZAACZAACXAADRAACZAACZAACZAACZAACZAACZAACZAACZAACZAACYAACZAACZAACbAACZAACYAACYAACZAACZAACZAACYAACZAACZAACZAACZAACZAACZAACYAACYAACfAACZAACZAACZAACZAACZAACZAACZAACZAACZAACZAACZAACWAACYAACYAACZAACZAACZAACZAACZAACZAACZAACZAACZAHFkXU4AAABAdFJOUwDGw5D92PkzEbLhYwGAeWx9TYj77/UDRFkLVmYiGWBKFCjpvB7No4UPBtyqmOXRLpN1njo/CN/VUnC3ya82i8BeWu9dAAAgAElEQVR42uzBAQEAAACAkP6v7ggKAAAAAAAAAAAAAAAAAAAAAAAAAAAAAAAAAAAAAAAAAAAAAAAAAAAAAAAAAAAAAAAAAAAAAAAAAAAAAAAAAAAAAAAAAAAAAAAAAAAAAAAAAAAAAAAAAAAAAAAAAAAAAAAAAAAAAAAAAAAAAAAAAAAAAAAAAAAAAAAAAAAAAAAAAAAAAAAAAAAAAAAAAAAAAAAAAAAAAAAAAAAAAAAAAAAAAAAAAAAAAAAAAAAAAAAAAAAAAAAAAAAAAAAAAAAAAAAAAAAAAAAAAAAAAAAAAAAAAAAAAAAAAAAAAAAAAAAAAAAAAAAAAAAAAAAAAAAAAAAAAAAAAAAAAAAAAAAAAAAAAAAAAAAAAAAAAAAAAAAAAAAAAAAAAAAAAAAAAAAAAAAAAAAAAAAAAAAAAAAAAAAAAAAAAAAAAAAAAAAAAAAAAAAAAAAAAAAAAAAAAAAAAAAAAAAAAAAAAAAAAAAAAAAAAAAAAAAAAAAAAAAAAAAAAAAAAAAAAAAAAAAAAAAAAAAAAAAAAAAAAAAAAAAAAAAAAAAAAAAAAAAAAAAAAAAAAAAAAAAAAAAAAAAAAAAAAAAAAAAAAAAAAAAAAAAAAAAAAAAAAAAAAAAAAAAAAAAAAAAAAAAAAAAAAAAAAAAAAAAAAAAAAAAAAAAAAAAAAAAAAAAAAAAAAAAAAAAAAAAAgNmDAwEAAAAAIP/XRlBVVVVVVVVVVVVVVVVVVVVVVVVVVVVVVVVVVVVVVVVVVVVVVVVVVVVVVVVVVVVVVVVVVVVVVVVVVVVVVVVVVVVVVVVVVVVVVVVVVVVVVVVVVVVVVVVVVVVVVVVVVVVVVVVVVVVVVVVVVVVVVVVVVVVVVVVVVVVVVVVVVVVVVVVVVVVVVVVVVVVVVVVVVVVVVVVVVVVVVVVVVVVVVVVVVVVVVVVVVVVVVVVVVVVVVVVVVVVVVVVVVVVVVVVVVVVVVVVVVVVVVVVVVVVVVVVVVVVVVVVVVVVVVVVVVVVVVVVVVVVVVVVVVVVVVVVVVVVVVVVVVVVVVVVVVVVVVVVVVVVVVVVVVVVVVVVVVVVVVVVVVVVVVVVVVVVVVVVVVVVVVVVVVVVVVVVVVVVVVVVVVVVVVVVVVVVVVVVVVVVVVVVVVVVVVVVVVVVVVVVVVVVVVVVVVVVVVVVVVVVVVVVVVVVVVVVVVVVVVVVVVVVVVVVVVVVVVVVVVVVVVVVVVVVVVVVVVVVVVVVVVVVVVVVVVVVVVVVVVVVVVVVVVVVVVVVVVVVVVVVVVVVVVVVVVVVVVVVVVVVVVVVVVVVVVVVVVVVVVVVVVVVVVVVVVVVVVVVVVVVVVVVVVVVVVVVVVVVVVVVVVVVVVVVVVVVVVVVVVVVVVVVVVVVVVVVVVVVVVVVVYQ8OBAAAAACA/F8bQVVVVVVVVVVVVVVVVVVVVVVVVVVVVVVVVVVVVVVVVVVVVVVVVVVVVVVVVVVVVVVVVVVVVVVVVVVVVVVVVVVVVVVVVVVVVVVVVVVVVVVVVVVVVVVVVVVVVVVVVVVVVVVVVVVVVVVVVVVVVVVVVVVVVVVVVVVVVVVVVVVVVVVVVVVVVVVVVVVVVVVVVVVVVVVVVVVVVVVVVVVVVVVVVVVVVVVVVVVVVVVVVVVVVVVVVVVVVVVVVVVVVVVVVVVVVVVVVVVVVVVVVVVVVVVVVVVVVVVVVVVVVVVVVVVVVVVVVVVVVVVVVVVVVVVVVVVVVVVVVVVVVVVVVVVVVVVVVVVVVVVVVVVVVVVVVVVVVVVVVVVVVVVVVVVVVVVVVVVVVVVVVVVVVVVVVVVVVVVVVVVVVVVVVVVVVVVVVVVVVVVVVVVVVVVVVVVVVVVVVVVVVVVVVVVVVVVVVVVVVVVVVVVVVVVVVVVVVVVVVVVVVVVVVVVVVVVVVVVVVVVVVVVVVVVVVVVVVVVVVVVVVVVVVVVVVVVVVVVVVVVVVVVVVVVVVVVVVVVVVVVVVVVVVVVVVVVVVVVVVVVVVVVVVVVVVVVVVVVVVVVVVVVVVVVVVVVVVVVVVVVVVVVVVVVVVVVVVVVVVVVVVVVVVVVVVVVVVVVVVVVVVVVVVVVVVVVVVVVVVVWFPTgQAAAAAADyf20EVVVVVVVVVVVVVVVVVVVVVVVVVVVVVVVVVVVVVVVVVVVVVVVVVVVVVVVVVVVVVVVVVVVVVVVVVVVVVVVVVVVVVVVVVVVVVVVVVVVVVVVVVVVVVVVVVVVVVVVVVVVVVVVVVVVVVVVVVVVVVVVVVVVVVVVVVVVVVVVVVVVVVVVVVVVVVVVVVVVVVVVVVVVVVVVVVVVVVVVVVVVVVVVVVVVVVVVVVVVVVVVVVVVVVVVVVVVVVVVVVVVVVVVVVVVVVVVVVVVVVVVVVVVVVVVVVVVVVVVVVVVVVVVVVVVVVVVVVVVVVVVVVVVVVVVVVVVVVVVVVVVVVVVVVVVVVVVVVVVVVVVVVVVVVVVVVVVVVVVVVVVVVVVVVVVVVVVVVVVVVVVVVVVVVVVVVVVVVVVVVVVVVVVVVVVVVVVVVVVVVVVVVVVVVVVVVVVVVVVVVVVVVVVVVVVVVVVVVVVVVVVVVVVVVVVVVVVVVVVVVVVVVVVVVVVVVVVVVVVVVVVVVVVVVVVVVVVVVVVVVVVVVVVVVVVVVVVVVVVVVVVVVVVVVVVVVVVVVVVVVVVVVVVVVVVVVVVVVVVVVVVVVVVVVVVVVVVVVVVVVVVVVVVVVVVVVVVVVVVVVVVVVVVVVVVVVVVVVVVVVVVVVVVVVVVVVVVVVVVVVVVVVVVVVVVVVVVVVVVVVRX27nUtbaUNA/ClIhYVrQLu6haVWkERxbqt5vyP6vNbP1dXK0lmDIn3fQTJGzJ55s1kAAAAAAAAAAAAAAAAAAAAAAAAAAAAAAAAAAAAAAAAAAAAAAAAAAAAAAAAAAAAAAAAAAAAAAAAAAAAAAAAAAAAAAAAAAAAAAAAAAAAAAAAAAAAAAAAAAAAAAAAAAAAAAAAAAAAAAAAAAAAAAAAAAAAAAAAAAAAAAAAAAAAAAAAAAAAAAAAAAAAAAAAAAAAAAAAAAAAAAAAAAAAAAAAAAD4EIc3Ww8vg36/0e8NmqtrRz+U5APdLtyvfv+n+v3B+sPWr7OKn++XBd5RvYt+crAy12vMXp6+PvavV+4NMQCQxdlB87ib/Etrvrc63FCc6DZuHvo/a/8u/2JjZXxb3ZPuJbzjoFo/8u/H7d+GmLurtWmaoe6N91eu+v3H40a/9/I2e942OH3kU+jX1sNLr984fuz3r1b2x3tTdXTbC/vNQePp9Pz8/PSpcd3cr3xvZboaW8Odr1fPM6fzb+U/fbxe/zY+VBQ+s93Ra+uP4aF7vePpFdOX/X77j9XvPK7uVfO0F2qC+XtmKnO1t7d6f/yRt2ZG0/Ab/7L2/fX3Y1x8Ht14LRDfj/HoefG36rdfv0/HvG732/X8fwxY573VI9fuA+bTW1en/xFRLp5HvzQW+ZQOV5/eyw+d3qbbI9Lz6v65/k71a8f7VZw5Hcvl79usxrU+Wu++9xvfKTYdH63M/rl30e4vfTFUxXwGLT3/uXfReh0VG46Xb+bm//Lb/Xnl6RjVsHn6lyZPt3d/q0Z8MkdznYkSxPnIoyvCA2u0OFH124PK9XU2pfIJvFbgSi/fz05yqt2Vwqanhw+n7x1d/fle3z1S72Kn8V7vInlaPSzq8E6a5+/+dhdf9N0j+fL+vfn2ePylUHwiC4+TZ4h204q+sPau6hNXv9XbrdS5Lz9J5ZMYl3+GdjrlI8ykvYvu+p4xq7DeRb03LOLwxv3WRIdXaxwsu5jBDQeT3ZvJ05Z5NZ/EUSPdMuP2yDupcM5eOqmq37quUm7Ykcknclzy6zyeSTfCfPiig2F/8kGwPhDdA8f29RSD4PGH91Vv0qznu9wR3QMHlF5r8vL//GbBEp/AdrOeOkacr6lbGMv73dTV7zQrM3HamJfJJ3NT6snpIO0XyJcfe75Hz+kOsLPuQ/3iehe15w997ThM+xnOjBUbAe31Ug4e89IJlXewmClH9A+VLoDd2Ux7qlxWZWfvVVvKTKhR4qu8lmGMqfU+7mOaLL2LC429UL2LnfQ/j9bch02czuZa6X+81x6PgfwYddIPHo+7CkeVbQ+yJqeuaW3+R9a3Tsbqt5qViA3bFxL5pFmgtHO1s362M178qKb7ZrbexfGJESyAk2zbSv3cnOofR3vLlQ1heJqp/PWRaTXVdXSZI0oMfAaSM7b2c1R/tgrLbL8K5BN7LusYc5f1jFujj1gsvH2VtXfRXjKG5baUtXdRu/qABYPZG1tJ3x4OuW2s1DM/H02rqaqddq4oMesTrVyJJt/67oub0lfgsC2PTx5UhqW8xludPJOV+OFnN0/vomelez631zmqf3c01T+ORSvd8z4fHnOUv32vgFTSQ94FxhdDRcxsnDe11kv/NvZFHE/TwivhFV7OeYnvYvfN1vLdhZcW0+bqXVzmqn57bap/HJ19VziPhZ/5Oh1Nu/tQPRuD/FmiPVbHrJ3Ieu7q10blLsFJXRqvdst94zrvSUfuDeTuXRgBc7jpTvUIuNTK++tdFx2z28z9PrZv22oql9t7IcJE3Seq2ewH2U5lvdQ16Anj6RZmlO0C/+jnP+l2xBVhG3P5j6/jjXxW9wEm7i/RovHyeoBb9to3ksVNm5Lk2FI25HbJfcpye7mT+7Ali6f7WLNk6zK2HwOcdK0Traed/33AP1dlx3CWyVaQ+38QKbkvzwW5Z/t2cMgmzEbBM5I7lTIIlSbqB4qZ2k6w7ctLvFqmIYqn7d+VqzfwHOas25E2wlwehLkLW3b+Ky63x2pqB8rtkntGD4GekJI7VfI1XJrQc09tHG5xd620H0DdCOLVbrlfhTrtbpzdQ+aCXRa9i/SWgvUuXmIcXjPYTfssuWfI7cHK/2qdO9XpdoT8w0o995R22wHLXy/rrpCzgnj6dQElur7hok9yHmPf2VG44+vcGNRS2g84BD5EmFYEvGkbomNxuT1J+j4QpiKGnaBxQs89ldvToNXvlnM3/TUxPMOdVp5/FdkPed4z4buW9yF7F13/9pIyGIesfi3482cc9PMbPfcCc3uSfFVQKuFsPnSe0HNPIfRmKq9l3Llg404Mz+Dqk/YG5kIf327Y//560lVNNaurBa1+O/Baqr2LsHetnnuBuT2pSSdIjnru09SKLG1LYUkIz3SjleT1ynboeVngTRe3Lz/rjGoqbv5a4OpfBv0E8cdM6NtWzz2FUejqex9GFcRYpCC5T9zNaQcvfqt8/619uyiET8+XeOFdhz7vwE3VQfALYzv3yVsXteDVDzpvaoa/bR/13AvL7Ukyazd9Su+wGyNQWC0zoccIxb8sXUNnJIJn/A7ysAyXdyf8ic+EfPhuho+O3UNjW2G5PehyiIUI/y9Rk9yLfDI8qCtlN4iTKPTcJ3Ifpfhl2839rC2CZ1SGv9w6u4hw4t8CHl+M9z19g1thuT1JFoMtlvlxGeW+bVgtU1xHp7OrspTbQqz/q5TcJ3D7M0rt2yXbWWZdAK9yy/1qyn/jLzGOzzdwBeb2gBPah0g3rp57Ybn9bdqktJTba7wP5zy53rUSqfbl+k/NvY4Anlnzs/YGgrW0j+Ic352eanG5PakH+ghiL9rLQMm9sNyeJLIJpbYZMVLoub8n2hKR1lGZynAtfufoPJ9N+dVdfop05uNAB9iIdHyrBrjCcnuwpuog3p1rV8iC2lr/n1X7PpUym0kk9+I0o5W+V6IqDFvidw4rU355D2Kd+HGY4/sVKzxeCGbF5fYkCbK31kk94hHquRfUb3+zpb6U1zhuprBa5q+2432T2SrRXrWPwnce3Sl//M9GO/MwLffjaMdn84oCc3vyGOIQ474MlNyL6be/mddyp7wakUOFnvvfrEas/EtpqjCWvavcPIq4GC9Iy30h3vFdWOVeXG5PkoX8h7hXTyT3CvbbE3+0QImdRF+kILn/2fJdxMK3t0tShY1T0Tufmam+vq8RzzxEy70X8fi8jy8wt4f4Qv977HtXci8otyezakxZfY+fKiT3glrN+2V5fkveU9BajGYY88QDfMkRtac6Y5ArLrcn9cO8x3jbTST3Qnz93KMm/K3le55I7sUZRK37cTmKcLv4P/buRC+NZAvAeKu4BIlJZFFGDCjiEo0YjRG32O//VJO7TH53ZnIDmao651Sd73sCuujq/lP0ArwNLC0mayXpsWXD+MrelKOcmtsj3GMwE5i8yF1jvf1bVwwz5dmNCCu4Q/X/kDXt60LbebyEaQt3B9fdMPv19tKuWYY/cfEy6ec74TCn5/Z6Evopn2rkXqrb60PuQKE8W5FxBWvuP2yYeNj3chiEUQd3G1haTNbMOM2maT9fk2dX6Lk9+A+PjbUauSv0WuaoyYIi5dlqjdzL/dn0ikHw0mrL6vd7nnjLQ180ltoIzxzn9Nxevw37mLtC03eM3BXcXl8w1JRjAzFYcLXMD0p9g0E3g9PBYA11x2jH6PfbS/2HSui1Mo+JP99rjnN6bg+9OfhYavq+9NkpxN1ef2wx2JRhe3KwYM39bx0lH/TP9gfhHHMX/e/Ks/ENH6Um5CMHOj231+1R0K/OQ7H5y5r7907kjprcOk45dl0jd71+Sz7mW+bH4LmBuaPUGNj8gpPfetw5sz0JG6cc6dTcHviWnangBGbNXXq9vY5xazuRfKuStEDufyn91d32L3JfhtyRMvr4knHyDb8xPgl3ONLpuT3s/dF7khMYuYu7vT5nvCm/+rLLncj9z70kH/Gm9SGYAe5YHZr8r73XTb7hn4I+4GPyz/eWI52e28Nej3ktOoPHyF30OplvfWHAKb/WhW2B3P9U+gsoG8ZPBWergDtauxa/YYHb34NePiXww+KJI52e2+tuyP2HE9kZvIzcT4QPmlzHRvm1K20L5P4/bQgMuPGXOr+B2/FasvgND41vt8APizsOdXpur+ujf/5ZW13hz+pe7tJu52GtlGHy76zkqZCy/3f8ZnoE+odwu/BfaffpN7tj/IdFm/czKro95BaDI/Ep7Fzu4m6v3zMlKbuu5HHBmvv33gkM973pETgB22auGUnUhcB27xv/z2fAsU7P7SGvj/4sP4ddy13hfMBbFii/NJ6hjdz/SOKRBSeWB2C/C7ajXs67Ye87fiWw3SEPY5awwg3HOj23h9BsV2ESO5a7xjoO706l/HrR4AVXy/y3Le/HpWusXfz/K2PjMJbYB2cc6/TcHnIIvNeYxG7lrvL/K3eOU349qvCCNff/JPHA2mPD2z9tQ+24fei5PMSEPCj9yfbFGrg9uHPbR+i/5/R57l91BptpSdl1qeML5P7vtm2ftZL3gLRjN3R5iJkZ3wl5PaOi20NeQretM4tdrrkr3e/0yLyk7LpT8gVXy/yrFdtnrdTt4GwHX/cHga0OeTKExNWCnzjW6bm9Hts+QiN3zd9I9SUTk7JL7fU3rLm7h3tvgrOj1zD3AJOmwFZvBny+JYHP95ZjnZ7bQ16deqU1j93JXesnEi9ZIOCO3IH74idymJ2gbeAO3HF7JLh/VZvHS77e6LmtNtATpiYBd+QO3BfrtomyE3R4C9yBO26PA3fF90x4kntrRXGcmZsE3JE7cF+srZpSZO1NgMAduKu6PQTumgepJTdXy2i6PeQOCCKHcEfunuE+6mDsJFl7SgJwB+6qbg+B+6bmTPay5q7qdtPPSyYyCHf3cvcM9yuInah14A7ccXsUuA9VZ7IPueu6vf6KAgm4I3fgvkiDNYSdqGvgDtxxexS4r+tOZQ9ybykv4dxXRMAduQP3BXqqKVHdEXAH7rg9Btz7yh99soHbE8cbZQi4I3fgvkjPjZpSZet1P8DdOdy13R4C90r70Vely13d7fWgIgLuyB24z28ZXqfrQw+4A3fcHgPuD9of/rHoq2VaF+r/T/YqIuCO3IH73Gbo2s2/v8DdNdz13R4E9xP1T1/ymrv+envQzkHkF+6O5e4V7merNXn5zoG7Z7gbcHuQzYb6H79cuRtwu703TRPlAXe/cvcK9zfYOmkNS9dtAnfHcLfg9iC4bxjYgFKvltG/TuZbMxBIwB25A/e59Q+xddosPZsYuPuFuwm3h10N8WhgA8pcc7ew3l63Tysi4I7cgfu8tpF14jqG3pYO3N3C3Ybbw+D+2sIWTEa4PU0vGJCAO3IH7nPb7yLr1L0H7sAdt0eA+7qJTShvzb13YWJgP1VEwB25A/d5XePq9Cd64A7ccXsEuBs5RZa25t6y4fYGT3En4I7cgfvcprx7SaBn4A7ccXsEuL+2sRFlyb11YWPv4EoZAu7IHbjP76Gm9F0Dd+CO28Ph3hoY2ZCSrpbpWfnXdQ8CEnBH7sB9XsOaJCaTmQU64O4R7obcHvqOnbGVy9+KWXM3cp2MrZv4ifKEuz+5O4R7bwKqRTJz1xVwdwh3S24Phfs7K9txWYjczbjd1GNziTKFuzu5O4T7e0gt05cecAfuuD0c7j0zJ8ky1tzNXCdTt7k1lYA7cgfu87pt1iSTlakE3N3B3ZbbQ+FuaLGhhDV3O243dCMQUc5wdyZ3f3DfAtRSPQB34I7bI8C9d4fcS3Q7C+4E3JE7cJ/bqAOopWocAHfgjtvD4V7N7GxL7nLvHdsZyyv8R8AduQP3eV3habmM3HkF3H3B3Zzbw+Fu5sEy37rbz9vtdvaOzqgiAu7IHbj/vMEanBY8Mdl41hlwdwV3e26PAPeDNnIvbb2dZ7gTcEfuwH1+T2hask0TXzpw9wR3g26PAPdq29Dm5Hu1jCm3L/UqIuCO3IH7z7tp1CTYBLgDd9weA+5nl4a2ZzXTNXdTbu9yZyoBd+QO3Oe2jKVlewbuwN2922PAvZpausovzzV3U26v34A/Au7IHbjPa1aTbMfAHbi7d3sUuFdvLG1Rjmvuttz+1AJ/BNyRO3Cf09lqTcKzyMLKHHD3Anejbo8D9+ra0iblJ3dbbl89xX4E3JE7cM9qycpJW8AduHt3eyS49x8tbVNuz5bpnVsavc5BRQTckTtwn3feO8TR4jUNPDkBuPuAu1m3R4J7NTJ1ssxrzd3WevvaDfIj4J5odg2Be0Fw365JPgO/foG7C7jbdXssuFcHptYeclpzt7Xe3p4BPwLurLkD97ntd1G0Qg/AHbg7d3s0uCP3Mty+i/sIuCN34D6/45oUauhfzAncHcDdstvjwb2ampJ7LlfL4HYiR3AvXu5+4D7l3Us6rQB34O7b7RHhjtz/idtNLdq036M+Au7IHbgv0BhC69TpA3fg7trtMeFeHXxE7ridCLj7lbsbuA8RtFab2t89cC8d7sbdHhXuyP1X3W7rOhncTsAduQP3hQ7eEwCt1QS4A3fXbo8Ld2Ny/2Bc7mdPuJ3IHdyLlrsXuL/Hz3ppP7MYuJcNd/Nujwx31txxOxFw9yt3J3C/bdak1jFwB+6e3R4b7qy55+p2nidDwB25A/fF2kLPmtNH+cQO3EuGewZujw53a2vuR7h9Mbf3KiLgjtyB+wKNOuhZsy3gDtwduz0+3I3J/YtRubPeTuQY7sXK3Qfcr7Czak3dhSbgXi7cs3B7Argjd9bbiYC7T7m7gPtBGzvrpjt5gHuxcM/D7SngjtxZbycC7i7l7gLuTzXpNgbuwN2v25PA3ZrcB7j9525vgT0C7sgduC/WTaMm3RoHwB24u3V7Grgj95+7/RXr7UTu4V6k3D3AfRk4q7cC3IG7W7cngjtyx+1EwN2f3B3AfSa+n3QGG3m0LTckfeAO3L26PRXcjcm9aUjuuJ0IuJcq9/Lhfia/g33K5dsXfEzmHnAH7l7dngzuyB23EwF3b3IvH+738qevfjZf/1exQbkE7sDdq9vTwb0aIHfcTgTcXcm9eLifHorvIxkdpve7YqNyA9yBu1O3J4Q7crfv9hnKI+CO3IH74m2L7yGTHt//DzoG7sDdqdtTwr2F3HE7EXD3JPfS4S64pPxHOzl9//trYvNmH7gDd59uTwl31tz/2i1uJwLuJcu9dLgfi+8er/LaAS7EBmYLuAN3n25PC/fWoGlpW7XljtuJgHvZci8c7lPxM3x7mtcOcCS25N5Uu4QIuJcF9912bqeM5cST+Atyt+n2NdxOwB25A/dfaiy+b1zktgdciw2N2jkMuBcF9/zcnhruLeSO24mAuxe5lw33ofie0d3PbQ8YiDFoDNyBu0u3p4Y7a+7f3T7GCUTAvfAZWTTcexPxHSNDH8ndBqB1FRFwLwjuObo9PdyNyf2jktxxOxFwL39OFg33TfkTVj+/XeBA7D6AFeAO3D26XQDurLnjdiLg7mNWlgz3W/mHLWzmuA+cS41OR+lnDXAvBu55ul0C7qy5V33cTgTcHczLkuH+VnyfuOvluA/IPXpnD7gDd4duF4G7Nbkf4HYi4I7cgfuvNOqI7xLDPHcCsQcx3LWAO3D353YZuDuXO24nAu4+5mbBcL8S3yHGme4E62JL7p+BO3D353YhuFdHH/zKHbcTAXcns7NcuB+In+Ub67nuBQ9SI3QO3IG7P7dLwd2Y3A8F5Y7biYC7l/lZLtyfxPeG62z3ghupIWqrPOYeuJcA94zdLgZ3t3LH7UTA3c0MLRbuNw3pfaF7lO9uIHbaU/EjcC8A7jm7XQ7uTuWO24mAu585WircW0viu8JJxrvBjth1r2fAHbh7c7sg3K3JXeSla7idCLg7mqWlwv03+VPUac77wbLUMM2AO3D35nZJuFu7Q1VA7sbcPqyIgDtyB+6/2pn8yetN1rNwKDVMGk/eAe65wz1zt4vC3d2ae/8FtxMBd0dyLxTu9+J7wepZ3tPwUWqgpvLbBtwzh3vubpeFuy25N1LL3ZbbuzuQjoA7cgfuv97pofhOkPt1je+kBuoKuAN3Z24XhrurNXfcTgTcncm9TLhvi+8CL7lPw9ZEaEctyUUAACAASURBVKQ68vcCAPes4Z6/26Xh7kjuuJ0IuHuTe5FwP+qK/x/8O3v3opXWuYVhGLcnVIwaDopKREAEBYkHJDZGuf+rajraMbp3Nx2NNnxrHt73CuI/nawnS2Ddu99D2cd59R8GAO6e4R7A7XK4p5E7bicC7unkHhLuffn8+/73sHEjOqtZBbgD91Ru18O91JplkDtuJwLu+eQeEe4T+bOXNk4DLOKR6rQegDtwT+X2AuCeQu64nQi4J5R7RLjrv9X3JcIiNlSbeA3cgXsqtxcB9wRyH6xY+glxOwF35A7c39mZfPS1cohN3BEdV7UF3IF7JrcXAvfwcsftRMA9pdzjwV32Xu0/e4qxicNH0XntAnfgnsntxcA9uNxxOxFwzyn3eHDfkc/9cRpkFfdEBzYWP6wKuPuEexi3FwT30HIffLX0s9UfSkTAHbkD93c13ZaP/TjKKk7HohP7AtyBeyK3FwV3Y3KvbeJ2IuCO3IH7X9qXD/1rJcwuPomOTPy4KuDuEe6B3F4Y3MPK3Zrb41wDiNLB3Z/co8G9XZPP/D7OLspuuU+kPxZwdwj3SG4vDu5B5c79diLgnlfu0eA+kk/8OtIy3ooO7TNwB+553F4g3EvtgHLH7UTAPbHcg8H9XH65r55GWsZmR3StGwB34J7G7UXCvdS+sXQSP0PuuJ0IuGeWezC4P8vHvRprG/dFx7YH3IF7GrcXCndrcv+G24mAO3IH7n90vya/DLVjbeNA9BmBmfLTXMDdGdyjub1YuJdaoeSO24mAe265h4J7Rf9IjttoXyewKzo45fUOuPuCezi3Fwz3UPfccTsRcE8u91BwP5ZPersZbR3Lolvuys/0AndXcI/n9qLhHkjuuJ0IuGeXeyS4D6/kgz6Kt48fNSdX7QF34J7E7YXDPYzcBxemfo77EhFwR+7A/f09ycd80Yi3j+265ux2gTtwT+L24uEeRO64nQi4I/dAcB905FM+jLiQq5qzGw+BO3DP4XYDcA8h9zJuJwLuyD0Q3F/kM94KuZAt0S33Y+AO3HO43QLcA8gdtxMBd+QeCe69unrC1UnMjRQ9ffYVuAP3HG43AXdr7v2W7d9PBNyRO3D/n/ryAY+CbmRvQ3N+sv/3AHcncI/qdhtwdy5f3E4E3JF7KLhP5M9eqreiruRdsP/4AHcfcA/rdiNwd/1ek2jPfyUC7sg9O9y78unuh13JUw2g6gPgDtwzuN0K3B1/KwtuJwLuyD0W3M/ksx034+6k6G1He8AduGdwuxm4u5U7bicC7sg9Ftwb+tf1ncA7ea5539GsAtyBewK324G7sSeP/qjccTsRcEfuweC+Ix/srBF5Ka81hyj6Hnzgbh/uod1uCO7G5F5/wO1EwB25J4T7dFs+17PQSyn6qO8zcAfuCdxuCe4O5Y7biYA7co8G9335VLvBt/JZcorVHnAH7vHdbgru7uSO24mAO3KPBvd2TT3Ttc3gW7mpueW+C9yBe3y324K7M7njdiLgjtzDwX0kH+ld+LX8RXKO4yFwB+7h3W4M7q7kbsztmyUiygB3y3KPAPdz+XW/3gu/lveakzwC7unhHt/t1uDuSO7tGW4nAu7IPRrct+TzvEywl904ogHuluGewO3m4O5G7i3cTgTckXs4uD/Ip9kZJNhL0bEqLoXA3TDcM7jdHtydyB23EwF35B4P7pUV+TD3UizmfyRnOQLuqeGewu0G4e5C7ridCLgj94BwP5aPcn2YYjHPNFfsMnBPDPccbrcI99JgxdIJ1Q+tu70zAWtEyeBuVO7u4T68kk/yIMlmam7JCf58Adytwj2J203C3bzccTsRcEfuEeH+JJ/ja5bNPND8/aIC3LPCPYvbbcLduNxxOxFwR+4R4T7oqKe4dp9mNS8kB3oI3JPCPY3bjcLdtNxxOxFwR+4h4f4iH2I/z2p+kRzoM3DPCfc8brcK91Lz1arccTsRcEfuIeHe25CP8DTPalYkDy2sLv1pVsDdItwTud0s3M3KHbcTAXfkHhPuffkEXzLt5pHkSJf+OCvgbhDumdxuF+5G5d67svSvwu1EqeFuTu6+4T5ZU8+vVs60mw3JcnamwD0d3FO53TDcTcq9ZwoFuJ0oOdytyd033Lvy8T3lWs5PkkM9Au7Z4J7L7ZbhblDu3G8nAu7IPSjcz+TDe5zmWs7hYwTWAHdrcE/mdtNwNyd33E4E3L9n6pVg4wy4/5QaN/LZHWfbzhPJsS75WeLA3Rjcs7ndNtxLza6p6+MYtxMB9/l875J77vHgfiKf3NdKtu0cKtA7HwH3THD/ZMrtiguQbbgbkztuJwLuv8G9hNzDwX26LR/cfb713JP8eXy5H/kF7qbgbut+++0ucEfuf+f2c4BGVBzckXs4uO/Lx3adcD2nkj9cL/czv8DdEtxtuf1DCbgjd9xOZBLuyD0Y3Ns19dCqpxn381ZxtFcN4J4E7tbcDtyRO24nMgp35B4L7iP5zFZT7mezozjbQ+CeA+7m3A7ckTtuJ7IKd+QeCe7ncgDU2jkX9IPicJ+Bewq423M7cEfuCxvjdiIDcEfugeC+JR/YbSXngg4U70mq9oB7ArgbdDtwR+6L3Z709Z7IGNyRexi4P8jHtd3MuqEK2cwvgXt8uFt0O3BH7txvJzIMd+QeBO6VFfm0jtJuaFlxy72zxGfSAncbcDfpduCO3BfcpjnlfjuRFbgj9xhwP5bP6qKRd0UPTwS1lvfv//Bx+X0D7j7dDtz/qyly/8PtwIzIDtyRewS4D6/kozpkU2lJ5YC7UbcDd+TO/XYi23BH7gHg/iQf1BaLSsA9oNuBO3LnfjuRcbgjd/dwH3TUY6pOWFQC7gHdDtz/IvetefJwO5E9uCN373B/kU9pxJ4ScI/oduCO3HE7kXm4I3ffcO9tqGdUb7GnBNwjuh24I3fcTmQf7sjdNdz78hHts6YE3EO6Hbgjd9xO5ADuyN0x3Cdr6gGNm6wpAfeQbgfu/99wC7cTkTW4I3e/cNd/7cEOW0rAPabbgTtyx+1ELuCO3L3C/UA+nVmDLSXgHtPtwB2543YiH3BH7j7h3pjJh3PGkhJwD+p24I7ccTuRE7gjd5dwP5GPpsuOEnCP6nbgjtx/7xG3E5mHO3J3CPfmWD2YtU12lIB7VLcDd+SO24ncwB25+4P7rnwud6woAfewbgfuyB23E/mBO3L3Bvd2TT2Veo8VJeAe1u3A/e/l/ozbicga3JG7M7iP5EO5ZEMJuMd1O3BH7t/dzv0ZIjdwTy93X3A/l0ugM2BDCbjHdTtwR+64ncgV3LPL3Rfc9W+63GNBCbgHdjtwR+6PvQqvQkSO4J5c7q7g/iCfx/qQBSXgHtjtwD293Ne5307kDO655e4J7pUV+TgO2E8C7pHdDtyzy329xUsQkTe4p5a7J7gfyYfxynoScA/tduCeXO64ncgj3DPL3RHch1fqUazds54E3EO7HbjnljvvkyHyCffEcncE91v5JPpsJwH32G4H7v9Y5Zr77URkDe555e4H7oOOfA48k4OAe3C3A/d/rtGP63a+T4bIK9zTyt0P3F/kY3hhOQm4B3c7cP+Bhv2obufVh8gv3LPK3Q3cexvqIdTKLCcB9+BuB+5577njdiLfcE8qdzdw1184nthNAu5v7diZ24F7WrnjdiLvcM8pdy9w31xTT+Bxym4ScI/uduCeVe64ncg/3FPK3Qvcu/IBHLOaBNzDux24J5U7bieKAPeMcncC9wP58X/l2wYIuMd3O3DPKXfcThQD7gnl7gPujZn89Hn2EgH3BG4H7inljtuJosA9n9x9wP1EfvbXLCYB9wRuB+4Z5Y7bieLAPZ3cXcC9OVaffJVnLxFwz+B24J5Q7ridKBLcs8ndBdx35Qe/yl4ScM/gduCeT+64nSgW3JPJ3QPc2zX1sdfa7CUB9wxuB+7p5I7biaLBPZfcPcB9JD/1W9aSgHsKtwP3bHKf4XaicHBPJXcHcD+Xk2C7yVoScE/hduD+xip93E4E3K3BPZPcHcB9S37kR2wlAfccbgfub77nfufZ7TdtXnCIIsI9kdztw/1BfuAXDbaSgHsOtwP3VHLH7URR4Z5H7ubh3riQn/chS/lbg/KCWqeLmmwu6Nvhcop35fUOd9duB+6Z5I7bieLCPY3czcP9k/y0twpchsHm0e2Hj59Ho1H/elG/dBf0erGo9asFPdYWteHp0tt5+wcQFv6/4if3b0DgHO6+3Q7cE8kdtxNFhnsWuVuHe3NbfdbV82L2YHr4sTue00+HWamk+B3aSQt3524H7u+pMvL42nGB24lCwz2J3K3DfV9+1KMilqB3292Y0w9Ue8c3/gD3JcLdu9uBexq543ai6HDPIXfjcG/V1Qdd139Z2PR4qzqn5QEUuC8P7u7dDtyzyB23E8WHewq5G4e7/q2U++rf/97n2px++Ib7ALhb+r3273bgnkTuuJ0oA9wzyN023Cdr6lMei5+91FvlLTJvafc9hwzclwX3AG4H7jnkjtuJcsA9gdxtw/1Vfsg70t/91h3vkXnbDfcycDcE9whuB+7vl/tn3E4E3K3BPb7cTcP9i/yIb5TPXqp86kDxt3X5roMG7suBewi3A/cMcsftRHngHl7uluE+XJef8JnwF3+yMqe3VX/f5Re4LwXuMdwO3P9FDSdyv/iVvTtRaGJZAjA8HCKgxoUlQXZkM0iUXQEF5v2f6uq993iiR2TSqa7pqvr/J5hpemY+ijCZA1pEceDuXe4lw/1afX13FR95r/mUzNjdpa01cM8BdyduB+7+Z+64nSgW3J3LvWC4z6m/baUzq7brt29guNbAHbjngLsXtwN393LH7UTR4O5b7gXDXf+JcKa26S/4jtSUgXsXuJcCdzduB+7e5Y7bieLB3bXcy4X7W3UZ9Pa09vxzPiaTsvVTvxsLuIvD3Y/bgbtzueN2oohw9yz3cuH+VH1l32lt+dNOTeN3krrewF0a7o7cDtx9yx23E8WEu2O5Fwv3ZfV13RnobPjuHQZP2vfJfxAB7sJw9+R24O5a7ridKCrc/cq9VLj3P6ov6yud/d4/wOBJDZOXHLjLwt2V24G7Z7njdqK4cHcr91Lhvqa+qE8OdZ5xpr4nvKAW0/8DAbiLwt2X24G7xF1tusybxtQAYBHFhbtXuRcK9xX9t67M62z3BQiuPXAH7qJwd+Z24O5X7ridKDbcncq9ULjrL/a9zm6/rilt4L4O3IuAuze3A3e3csftRNHhXpjctzzDfa+nvZ6dW5XNPs/7ZBKb5B37wF0O7u7cDty9yh23EwF3l3IvE+76/795oLLX15dqShu4vwXuJcDdn9uBu1SFfQpwagVcEQH3su5MMnIvEu636nPpmXWNrX65j8Db+MUKuEvB3aHbgbtUFzNF3TLeYSsi4O5S7iXCvTulvpZ3Klv9DIAn1plk4A7cpeDu0e3AXajlXmE3jdfgigi4e5R7iXA/11/KM42dfgXAUzuaaOGBu4xiXLoduDt1e12/QFdEwN2h3EuEewtfvqTxv6mDZzUl/niOgXv7cPfpduDu1e3InQi4u5R7kZ9xX9Zfyalu9o3ONy+1NHAH7iJwd+p24C7i9pkibxwL+IoIuLuTe5lvlbnRX8mr3Pv8nDdBJg/cZ4F763D36nbg7tftyJ0IuDuUe5lwP9ZHwvvLvNu8yxtlFDcQcJeGu1u3A/fJ25op9t6B3ImAuze5F/rNqS18rOQ07zbnP1PTm/QfEID7xHD363bg7tntyJ0IuLuTe6Fw39b/pqKljawD9481JXYz6eID90nh7tjtwH1it/eKvn0gdyLg7kvuhcK9OtVfx2HOXb6Kv5M7B+4tw92z24G753n79+5AFhFw9yT3UuF++Ul9GRePM+5yBu7J7U68+MB9Mri7djtwdz1vR+5EwN2b3EuFexsj6t18m/y8ptQugHu7cPftduDue96O3ImAuzO5Fwv36i/9ZZzPtskP8HeLv04B90ng7tztwH0yt5t4yy1yJwLufuReLtxn9Z8I2V4JOejV1NrAHbhPAnfvbgfu3uftyJ0IuLuSe7lwb2NKfZ1pj7/C36lNCSw/cE+Hu3u3A/cAbkfuRMDdj9wLhvuG/ph6aTvPHr8H4KktA/c24e7f7cA9gtuROxFwdyP3guFevdNfxJMs+2Rlsaa0vkisP3BPhXsAtwP3EG5H7kTA3YvcS4b7ygf1NczzSki+NTW5LYn1B+6JcI/gduAew+3InQi4O5F7yXCvnuuvYZZXQg4BeGL7XeDeHtxDuB24B3F7XU+jLSLg7kDuRcO9v290xPtLn2pKS+YFncA9Ce4x3A7co7i97iB3IuDuQO5Fw7260F/Cz4fiW2QOgCf2UWTgDtyT4B7E7cA9pSub/7aD3ImAu325lw336qn+EsrvFb42NbUrmR8AcE+AexS3A/c4bkfuRMDdgdwLh/u6/h9k5V8JuYbAE//60QfubcE9jNuBeyC3f5N7F3IRAXfbci8c7irH93PyH4Q8geBprQr9AID72HCP43bgHsntdT1E7kTA3bbcS4f73JL+Aq4Lb49dCJ7UE6GBO3AfG+6B3A7cQ7kduRMBd+tyLx3u1bX+Aj4V3h37NaX0RuoHANzHhHsktwP3WG5H7kTA3bjci4f74RP9BVyW3RzvMXhK76UG7sB9TLiHcjtwD+Z25E4E3G3LvXi4V/P66/e5L7o3dkB4SptiPwDgPhbcY7kduI/V6qKDWwtyJwLuhuVePtyrG/31WxPdGjM1jd8nuRfqA/dx4B7M7cA9nNuROxFwtyx3A3A/1n9W7AwEN0YfhLf8yxNwHwPu0dwO3OO5HbkTAXfDcjcA92qov3wLTNxb7pngN9gC9+ZwD+d24B7Q7d/k3odeRMDdptwtwH3b+Csh+Yx7y5cscG8M93huB+4R3Y7ciYC7WblbgHt1qr96R4LbgrfKjN+HS+DeAtwDuh24h3R7XZ8hdyLgblLuJuB+2AJ9L+R2Be9xb/mKBe4N4R7R7cA9ptvrDnInAu4m5W4C7tWV/uLty93V+ebUdgfuwL0h3EO6HbjHdDszdyLgblTuNuBe3esvntxrxE+A+Lhdi16UwL0R3GO6Hbg36o0/tzNzJwLuJuVuBO6zHfW121mR2hJrQLy1tQfujeEe1O3AParbmbkTAXeTcjcC9+pMf+1eSO2ICyQ+ZqeylyRwbwD3qG4H7nHdjtyJgLtBuVuB+4b+KyF7e0IbYg6JtzpwB+4N4B7W7cA9sNuROxFwtyd3K3CvXusv3YHUhviExVtlG3B/FO5x3Q7cH22z4/hmg9yJgLsxuZuB+6W+fjvnQvthWNMYLQ2AuzLcA7sduId2O3InAu7W5G4G7tUb/ZX70pXZDlc1jdEL6csRuD8C98huB+6x3Y7ciYC7MbnbgXv3L/2VeyOzGwaLNTUfuM8Bd124h3Y7cP9zzzvu7zgHyJ0IuBuSux24V7f6T5BnQv8leV9T496JX4zA/Y9wj+124B7d7XV9hNyJgLsduRuCe3Wgv3CvZY78FRxvXG8buKvu5OBuB+7h3Y7ciYC7JblbgvtGT1+RMq+EHPRqatiC/KUI3P8A9+huB+64ve4gdyLgbkbuluCu8oj9pTOzfyxg4A7cG8A9vNuBO25n5k4E3A3J3RTcL5+pL1vnVuTI+fLUpt1luBCB+4Nwx+3AHbczcycC7obkbgru1ab+sgk9cj9D8mYD9w3grgh33A7ccTszdyLgbknutuDe/aK/bFciR76KyRs1neMyBO4PwB23A3fcjtyJgLspuduCe3Wu/zD5dCnyK8dHUN5ki+YYuAP3B+CO24H7g611wt19kDsRcLcgd2Nwr470V+1U5MD59tQmnWS5CIH7b+GO24E7bkfuRMDdmNytwX1vRn3RlkSmwN19WP74/tzLcg0C99/BHbcDd9yO3ImAuzW5W4N79U5/0YYiB34e81HYwkoD9yZwx+3AHbcjdyLgbk7u5uC+8kF9zTqzIkc+BOaPtJhn4A7cfwN33A7ccTtyJwLu9uRuDu7Vc/012xU58MGzmtoYuAP3f8MdtwN33P5buR9iMiLgXrTc7cG938KHxedFjpz/T31k4L4O3JXgjtuBO25H7kTA3aLc7cG9jW8hfSJzLz8D53/qLNflB9x/gTtuB+64HbkTAXeTcjcI9+qr/pJdixz4JW+WaWPgDtx/gTtuB+4Pds0/0SN3IuBestwtwn29hVdCbssc+RI+1x+4A/ef4Y7bgfvDbudGVNdfkTsRcC9X7hbhXt3pr9iJzJHPM87SH7gD95/gjtuBO25H7kTA3arcTcK9hVdCLh7zYLQ6cAfuo3DH7cCd29Ojz6xLZEYE3AuVu0m4V2v6C7brcReUNHB/C9w14I7bgTtuR+5EwN2u3G3Cvf9Rf8G2ZA69y/cw/baDjBcecP8Bd9wO3HE7cicC7oblbhPu1bL+en0W+kq9/hEPRd2BO3D/AXfcDtxxe7NukDsRcC9S7kbhXj3VXy+pTcTMXXngDtz/hjtuB+4Pdspd6Kc6yJ0IuBcpd6twt/tKyO+PSN4tozlwB+7/hztuB+7clJi5EwF323K3CneVA/9lAjMtdvBrizwV9QbuwP1/cMftwJ15O3InAu7G5W4W7nM7lsfCFx94Ko7+TnSc9ZoD7t/hjtuBO25H7kTAfey60yXdmHpfrMK9eqW/WoInsn3DU/GfjvJec8D9G9xxO3DH7cidCLibn7kb8+5Ih0/0z2RZ7vD7r/m4zI+B+9u8Vxxwr+svRW2304Lux8C9MLcX9WF75E4E3CPKPQ/cqy39M5F6JeR/O56qSWPgDtxL62VJt2PgXpbbp8v62xByJwLuAeWeCe5VC582WZM8/u7mTk3ZP+EO3HE7cLfj9m51hdyJgHtpcA8m91xwP9a/v+8MRM9g44zPy+QfuAN33A7crbj9+yEhdyLgXhzcY8k9F9yrE/1zWRA+hb3pmTp42QfuwB23A3dDbq+qraLuisidCLhHk3s2uG8vqZ/LzLr0SewNe7Hh/jX7xQbccTtwN+R25E4E3AuEeyS5P/X01MnwuY7L1d3A31rYmQXuuB244/a6vvvnwJA7EXBH7h7h3sYrIS9ynMj6y92oH5nJP3AH7rgduLd27kluR+5EwL3EEw8j93xwr+b1z2a/n+dUVpbv7gO+ZUZh4A7ccTtwN+b20uS+i9yJgHsguWeEe7WrfzqbGU9ncLt5+mJheHB0NBxtYbSXpyOtjbY62vJot7MjrY+2PTfSt99Jho42B3DH7cDdqNsLk3sHuRMB90Byz2mzNl4JueL4atzTfljeAvcwcC/S7XHhXrjbS5u533u+7xMBd+SuN1Qd6p/PC8dX44nDgTtwx+3A3Z7bkTsRcEfuHuHewishe3tuL8YN7VdTagzcgTtuB+4G3Y7ciYA7cncI9+ql/gkdMHAX6kblrIA7bgfuBt2O3P/D3r1uRZFkYQCN1lIcrKZRsBAFRUUb8IYoeMEL7/9UY/ea+TFrVnd7gchzTuzvCThZGZmbr7IiRcCd3AvCff+g+0Cz1wr3RIU7uHM7uP9vfs/h9mhyv0TuIuA+hNwv+DnmO/0nOp3XXIuXSxbu4M7t4B7Y7Tf/7k8ldxFwJ/dqcG9f+o90W+F+Hun0zQW4czu453Q7uYuAO7nXg/vSrPtIyyUv359rFu7gzu3gntXt5C4C7uReDu7tqP9MqwVX4k7vwv0NuA8B99BuHw/uydze2ga5i4A7udeC+7YtITMW7o96DQbu3A7uad3+Ve63Iv3J5C4C7uXlfvEv2VntP9RRvcK9978/vQp3cOd2cI/p9m98mR25i4A7udeC+/FJ96Fmn6otxN6nYLfCHdy5Hdwzu73NyV0E3LGpFNzb7f5T/VJsS8i6hTu4czu4Z3a7zl0E3Mm9Gtznl/qP9a7WOux9S//SbzRw53Zwj3eTWf2eP/0NuYuAO7kXgnv71H9LyJPjSstwr27hDu7cDu7J3R5N7r+Qu4A7uBeWew+4tyf953pVaRn+2vng9aQMuHM7uLf55VAnx+r3/v3B5L7HbgLu4F5W7l3gvtv/qr6+rXD/4WyAe3m4p3D7MHDP7nZyFwF3ci8F9+6V8dc8U7j/8F2v53Dgzu3Dwz2/28ldBNzJvRTcN5e7DzZbUrgnKNzBnduHh3sFt5O7CLiTeyW4t3v9J3tUZRGuVi7cwZ3bR4f7/LDGyRFL7o+v8ZuAO7iXlHsnuM9P+492o8Ya3HxYuXAHd24fHO7R3P7j78B4Te4i4E7uVeDeXvffEvKgxpaQK6ULd3Dn9rHhXqVvJ3cRcCf3UnBvT/vP9l7h/gO5D+614Z7I7QPAvZLbv8p9PdIw5C7gDu4V5d4N7ltXu8+2vqNw//6b3bzvfODO7QPDvZbbW3tD7iLgTu5F4D7FgTtUuEcv3MGd2weGezW369xFwJ3c68B983n34dZepl+Br4oX7uDO7ePCvZ7bde4i4E7uZeDervefLv2WkN0L9+5b8YA7t48K94pu17mLgHvABHtdRhq4Lx73H+9+8gX4vnrhDu7cPirca7q9zYPJfYfjBNzBvZTcO8K9vek/3tv91OvvuPfjRf33vgd3bh8T7rHcPjvHPbjIXQTcyb0G3NvH/vP9lnr91S/cwZ3bx4T7/FlVt5O7CLiTexW42xIyeOH+rv+M4M7tI8J9/mwW6NyYnfNdmNxFwJ3cS8C9fe5/R7qcePn91vlgvViAe1m4Z3R7XbgH69vP/SZM7iLgTu4l4L73sPuAaw/yFu7LnY/VBIU7uHP7gHCP5vbzf0RuidxFwJ3cC8C9e4fcf8LEB+vtBIU7uHP7eHCv3reTuwi4k3sV1i5e9B9xI+kJtn8yQOEO7tw+HNwXR/XdHk3uL8hdwB3ci8i9dx+90X/ESYrkc8jdIY4TuHP7YHAfw+3kLgLu5F7jQZJ/9Z/xrsL9W3JnkjHBndvHgvsobid36GqYOwAAHndJREFUEXAn9xJwf7DWfcaHewr3sF9MgDu3DwX3cdxO7iLgTu4V4N4mOGQ3Fe7/nNvTzAnu3D4S3BdPxnF7NLm/3UY6AXdwzy/3/nC/1n9LyKtb+c6s62MU7uDO7SPBfSy3t/aS3EXAndyzw32KLSGfpjuvFlc6H6KJCndw5/aB4L54Uvl9qTp3EXAn95JwX7ztP+abbKfVvc4H6MpUW++AO7cPA/fR+vY/5f4w0sxXyF3AHdyzy32K1xPd7z/m42RbQvYv3OcTTQru3D4K3Ed0O7mLgDu554d7+9B/znsK97/LwWT/2IA7tw8C9zHdTu4i4E7u+eE+xZaQmwr3kP/XgDu3jwH3Ud3e2ktyFwF3cs8N9/as/6C/Zjqhbg9TuIM7t48B92Bu7/pWOp27CLiTe3K4X+u/1cCt3USF+4txHiQCd24fAe7R3N73Ny06dxFwJ/fccG+v+k/6ROEesHAHd24fAe4j9+1/3B/JXQTcyT033Pev9L9ZvU5zLvUu3K9POCy4c3t9uAdz+wTfsJG7CLiTe2q4t3f9Rz2dJzmV7nQ+MCf74F4N7jXcXgXu3E7uIuBO7snh3h71n/V2khNppMId3Lm9PNy5ndxFwJ3c08P9Zf8tIZdzbAnZ+8uI5SkLd3Dn9upwj+X2tcl+if7gObmLgDu554V7O+o/7GqKs+hx56Nyd9JxwZ3ba8Od28ldBNzJvQLcd2wJqXAHd24vDvf9j9z+3/sjuYuAO7knhntb6T/tUYJzaKzCHdy5vTTc9z/OuF3nLgLu5F4B7vsH3aedfQp/Bt3oXbgfg3spuFdye36469sjy/2A3AXcwT2f3CeEe/dtD7/ml/BbQp52PiJTLz9w5/a6cA/m9gD7agXr3HebCLgPD/dscp8S7u1S/3nfBT997nc+Hs8nLtzBndvrwp3bo8v9hNwF3ME9m9wnhftS/8c/T45jnz2jFe7gzu1l4R7N7YsQnym5i4A7uaeFe5tgo7TflyLn+miFO7hze1W469vJXQTcyb0Y3LdvncmUmX7xgTu314R7NLfH+XkPuYuAO7lnhXtbZecpM33hDu7cXhPu+vY0ct8iPQF3cE8k94nhfnxCzxPm/fRLBdzPze3zehfSvHDf/xe3k7sIuJN7ObjPb9PzdHm4Ce5l4L5S8TqaFu7cTu4i4E7uFeHe5pfOZODCHdz17QXhzu255L5M7gLu4J5G7lPDvb2encm4hTu469vrwZ3byV0E3Mm9Ktyn2BJS/syrCMsE3PXt1eDO7d+SLXIXAXdyTwn3XVtCDly4g7u+vRrcg7k96sui5+QuAu7knhLuXW7OErRwB3d9ezG4c7vOXQTcyb003DeXz2TUwh3c9e214H7M7d/euYe69JO7gDu4p5B7ALi3exQ9LvfAXd9eCe7c/j3ZDfUeD3IXcAf3DHKPAPfFKUaPWriDu769Etxjuf3qu+j3R3IXAXdyTwh3W0IO3NOCu769DtyPH3G7zl0E3Mm9PNzbU5DunPW9IOsD3PXtZeAezO03MnzE5C4C7uSeEO5bV1G6b1ajLA9w17dXgTu3/9DF3y9URcA9nNwPwf2fchOlxyzcwV3fXgXuxx+4Pb/cT3a5T8Ad3EN37kHgvvn8TEYs3MH9J/JqXv3SmQnui1i/S72f51MOJvdt8BNwB/fIcg8C93YXpnsW7tfAPT/cV+pfOTPBPdQXq3n69j8S6zn3F3tNBNyHh3tguUeB++IxTvfLr3GWBrj/sNvn9S+cieC+om//ic49lNw/LNBPwB3c48o9CtzbG5wesXAHd317CbhvrOnbf6ZzP4i0tm6in4A7uMeVexi4t49APWDhDu769gpw333I7XXkPnvXRMAd3KPKPQ7cbQk5YuEO7vr2AnBfRDpNsj0n8x+5R3paZt3WMgLu4B5W7nHg3j4jdZ/8HmlZgLu+PT/cIz3gnrFvD9e5PxpkgQm4g3tCuQeC+97DM+mQWzvgnhzuK6NcM5PA/WWgbwtz9u3hOve79CfgDu5B5R4I7u03qB6ucAd3fXt6uM+/cHu1zn3dbu4C7uAeVO6R4L54QdWjFe7grm9PD/d73F5P7kf4J+AO7jHlHgnubQOrLz7BtjoDd317crgHeu3zrY3cn3cguc+W+E/AHdxDyj0U3NsHrh6scAd3fXt2uL/i9opy/8B/Au7gHlLuseD+YO1MLjafgy0IcNe354b7Zpgf1ed3eyi5vwFAAXdwjyj3WHBvh2Q9VuEO7vr25HAPU7hXcHskuavcBdzBPaTcg8H9mi0hxyrcwV3fnhvui+Ug50YNt7e2/TbIAZ09IEABd3APKPdgcG/v2foiczXcJmfgrm9PDfc73F5V7ocEKOAO7gHlHg3ui7dncnG5HG4xgLu+PTXcHwVxe6EnsrevxDim65sIKOAO7vHkHg3u7QZdj1S4g7u+PTXct2P8nr5O3x6pc7+NgALu4B5P7uHgbkvIoQp3cNe3p4Z7jJ+m1nJ7GLn7eaqAO7gHlHs8uNsScqTCHdz17anhfuo5mQuRe4inZdb2GFDAHdzDyT0e3Nszwr6gHAZcCOCub08M950Ztxfu3O8woIA7uIeTe0C476wj9sUU7rvgnhXuK2NeJcPD/R63V5b7EQMKuIN7OLkHhHugV4gr3MFd3w7uf50n3H5hcg/wtMxzBhRwB/dwco8I9/0rZzJI4Q7u+vbMcD/h9gvLToDOfbeJgDu4B5N7RLi3d5R9AXkWchGAu749L9y3uf0i5f5i8sNrQ0gBd3APJ/eQcI/yUpNSWYtZHoG7vj0v3Cd/68T668of//TPuX+GQAF3cI8m95hwf2lLyEEKd3DXtyeG+9Q/x6nct4fo3O3kLuAO7uHkHhPu7Qi0z7tw3wL3lHBfGfn6GB3uE1+nqru9zaeW+wEECriDezS5B4W7LSEHKdzBXd+eGO6XPCdTu3Of7VOggDu4B5N7ULi3FdQeonAHd317YrgfcHvxzt22MgLu4B5N7lHhfnxyJueYsG8SAXd9e1643+L24p37JwoUcAf3YHKPCvd2B7ZHKNzBXd+eF+6b3F5d7vcpUMAd3IPJPSzcJ358VOEO7pPDffS+PTzcdyZ0+0BV8JRyv0OBAu7gHkzuceG+NOPtcyvcH4T9mHs8EpUU7iuujMHhvsvtXXLt8WQH2huYBNzB/S/kfgju/5cnwF2/cO9yifmZm+90cNe3h4f7FrdX79yvW4SSLj2Wy12HecLO/WncY7J9i7jLF+6tR5d2IyPc9e0ad26fvHO/ZxFKupxaGcXl/mTwu/YQifwh9/gpw8+8puYLt0+YHrvC/pu9e11LXefCMMyc7ERBUQRUEEF2IiA7QRDU8z+r5bf5seY1EWiTkTThuY8gjNL27WiSNhV6C+R235M7c9zhni/ODGPJ3c5smQhPoojNT8ncvjfcY+8GCvAR8fGR23+yivZswSc7uT19jH+Fup3kfslJCOdsDJwZZcpssed+FeWS3BC6fW+4x/oGCtCI+CWQ3P6TCwO13ihcs1P02415Wts4E2echHDOwMCZMaLMFpP7KtIVYUtI3xvusa58ARJzhfFNye0Wmfiaw0BhfBbeCV4f7SeBrCT3KichnGNilnGdMltM7tHe7WrGlpCeN9xjNfkCPEf8weLv3M5+Mv/3aqDaOYXxmY+SxzlP5n9szHO/5SSEcwzcVYvcpGwm94i/CeyTu5X7zdF+pTWL9CRmM5M16Lf/pGGg3BcuXZ+Ot99up+f+yDkI9xi4q66pss3kHvH3HS22hFTVj/YRNrC+71NlfJf02y2aF+TrrfJRe9MbXx1zv91Kcv/iHISD58mxv8j3PblHvqHQJXl73XA3MU1YZcPZrPFv7NBv/zcDH9ZVmcVsePn8sed288l9wCkIrptbTCjyH0FhbPS61Ix6PW6HZG+fG+4mVn+2VIZXMrxxCP32P8jvxpkqKQyvYfS/QW43ntz5PCRcJD+Hj+2WbPbcc5GvR43s7XXDXf4AJ9XGZ3ZBHP32P8m/cVOaq5l9JLd7ndzZ8w4uEl+alZpTZIvJ/SHy5Si1Sd8+N9xj99I7B43Vxjcmt1skv8QgrjS+DLnd5+R+XaLecNBI+sz4TY3/Su7mokLhKfrlYEtIrxvusdibcA0Uv314Q263qC5+9qt9uXti7L/xSPPXfHJ/p9pwMkQOuVV53HN3Ys08W0KGt3Hg+ArPhigq7sTcIrf7/FiXuI92Z4vcviW5/zJV9QuKDSdJLx3jcmQzuTuxMriaIoCHTSUOvF3PVmWbqlPVAb6Q2y36FC56W3F8C3K7x8md76bCTQ+yJ8aCPRS2hhlDs2UaTlTjigTuccM9FvstWoNXV/5+7CezjfS3U7uK44uT2/1N7m0qDTeVZJfN56iwxZ67Ix+/YkvIsNz4zGIl2q2BD/rtFvWE921RfSeVJrf7m9zZqxquku39NiiwxZ67KzP4KkTwUDKO3IQlP4+bVx9fktzu7Q0oqTy+N3K7lW7Ol4GZhvfUGY4S7Sj8or4Wk3uq7kgt2BLS54a76Dzmoob/eI7cbtFMtO7qz3UTcruvPfcMVYazJGeg3lFei8l96kwtXgnhPt937uVa7l0Nw2sVyO0Wr4OSLe1CS3l8ou+LyO02e+5ligxnLeVOjGGP8lpM7g7dEDLEcH8b7oIr/HQ03GOxjfSRynO1+5nkRDkd3ycbk9v9TO5vrBaHu0pyUzxXVNdicnfp4xJsCen18RVruXe1DO+V3G4znwkuT51pGF8rRW73MrnXqDAcjo9inw4c3lJdi8n9w6VSxAniNkKJKUIfYXo80TM82U81Mk9mN7k1BnrWWA3I7T4m92SJAsPllrvUJEM+S2Yzubu18ubkkSQeTNOlwzt/jnTPTPRrFvTb93i6jvYkZsGW+5Bt13Ynd8EVeDeUF04rCz3RzimtveRecKyVc0EUD+bVqcMrEo2/tE1SFcwH9Nv3yguV/kvT+LpS/w367XuTe1PsbQwz3OE4maWBDxTWYnL/dKwQpTeyuPlZAOYILABN6WtXphP02+2ZL0RKn9A1WfB2IZTb6bdbS+6JD2oLx1Ul1o5tqKvF5D58cq0Ql4Rx87MAzLl/jHQmnpLbLboTqf0g4uNjnsxByV1mnvuYysJ5K4FuAl8ls5ncHXzd0SSNH27t3OF90N3UbupcXFaXmWfNPBl75/5jXd/4+vTb7SV3iT/Hgo0z4L6S/nODby/ZTO5TB+swSpDHfX4w0/z91KHezoDI3lp5rm6HaQk8N+m8A9WH5HafknvilbLChwvnI8nRo+SedLKfMCWPH6rt4MqqktZvmBd033r75HaLzrQXv6N1fGXdXQXmyQRI7tpny3QpKrxQ1vvZ7xfeRFlM7kU3Nyu4L5LID7R08vieaqyA9o+71U91HyTmyQSge/Hy4kTv+PLkdovJXXPPvckW7vCE1gvTdZWC2kvuCVd3qM2RyA/z5uaNp6FvQoTApkkjzc+Nea5rQbKZ3l2lUmnN4ytp3XptWGUzQnvJfVGnovAlO2qcqJAqU0+Lyd3ZxDA/JZN7vYBkpisbdyRyT4V+u0V6n5vO9GdHjTO9TmlsWUzu1+yeD3/03o++4+tHcnd4eUGNTH7QEgZn3/Qu9czIy8gUQOfy2TzXtIAeNM7WlJjDfL/Ql9vpt9tL7ikWpsKrU0NTSyFRoZYhkntc03Wp7/D8vVKbVH4Ahx+Mlzo+H58RWkGT7ZDbLdK3QLUvEoxbC125nWMd3FxTck9dUkuQ3LfkdtoJFvt9fafX3bySyvd7dvkQv6rPc+/0pAbX0zWRmXkyYUw0VT8j9AepapnKtyC3h0vuWqYEpPigO7xL7hoeagtn1DGkro7Jv46vl8+Qy/equXyAsx+qO8/GBf/impL7hIuZxeSeEXuwayXVR/fW4jiHTO4admy9Zvkd/FNSXqFa5IE2vJryLM+46287GgWC+b437T3HD7FS+imsRAfX0xAOChdcykK60HD6S75zPFHeUfxXnaMc+qFfeduxYZoqwkc5tQ9NLDgxVDyozSNIefC2Y0wy38P5JSS3CuH4Ubpjph4OUnw0OrxL5b1l4qLvHOeKyyCmc46xgoraEpk2bztAdvxbk3aCmtZapRX74UEFTq6J5ruPsvu3/uwqbGP1615+dBdq4cCLs9Ce2VDtqUn8sbZWjPLofJdWWSDc4akJ/mbH36EvS+d8kEy5ozMO/cqjf+JFBSZk8528mIcxCzVdJpU3coFRCgcmHi28VldZaHU6M/D3CP2pqBc2EFf/e4R+XXfNLtXwWbYSrqfwwjQZLZnmOdxlyZdmTi9JON81S9OPrlFvEryv/dtU7qlvQk9vz9O7UFXKhZ7ovqkbaa5chRpg4YqGrw534Va3vzNNBp6rhth4qTjpUTgtnj6D3xcSU38afUvS+Q4rXw7zKOCssOszgwuv78JN2Hqjd6HlrxHucw7mehfpEG+l10yh0vVcHQ/+VnpYY5Nq+O8yYNsz0eENsT6NoA9O65lPP/838fznxZm33hzm7DLAnIPiVd3o4O47wcNB8ZyWqh7z8+AvfY3egrK1gFu6L24Ijvp8BLxFFLu3FA3HoHQXILonMkze02sWZD/plzu/bgrpBAH9J+dHeZEpxs33BWbtoMGRd/H6tII+OJnuXfQqAVbRnq54pNN8dgbYlzM1oKuIo9G7OfBddnFAbBe4MvUPmzCTeH/wrpfTIaD/NBvgybP+wPJ9f0Bb5OpWBldu07uwpxEkutvoXfTuDvzSeLtCbLd3gxxaunoAtnwM9k/1bK9OKJRM0ym3f5nq8LPh4y8vEtG3y/t3sKtXO1uXxU7Z2nrP7MN7gt6FNaNBMeK9i9n+G+T1YMaRlLpB7n1hl9osWXqH4zNfdnas4U60c9ywRG8Mn7suTYtB2dM9LLpE9O0pwMuH5Gw6v94ekJ8HS8uvGBqfQ3oX1tRX+196nFrtXcwvpzv+IKeDS3KjpI+rlx1Xy80ZJyaOVeljstlybSq0xzdMHZNXPZu+bUk1i86Fx89Mt0NC+jZdfyPa5Xk/+a9334nFe/ysGonrX3m8Y1/3xDrf4CIl+eSUW+946/E8tt+7yI4uOsm/xlhIen2Fjo7Wzbj999ayw8z5K89MOPrWx2vlavrebj8/J9u/NuP83YhpewZzbPomN8j8+q7+c3udmXbPZr53Em5PsIXnm4TPW6PyslK7K89G0doFovEdzbb0LtbxmzpXJ/mbz3c02zKfOdmpROeZaT66W312Ns1vm87nivuj2Yfr6uVFd9r/T/Uz/fh5bUanHQCAo5b9fnrOjzdf7Xay3W524pNlg46eOb3GchLvNP9b/a/NOH+TZoM/AAAAAAAAAAAAAAAAAAAAAAAAAAAAAAAAAAAAAAAAAAAAAAAAAAAAAAAAAAAAAAAAAAAAAAAAAAAAAAAAAAAAAAAAAAAAAAAAAAAAAAAAAAAAAAAAAAAAAAAAAAAAAAAAAAAAAAAAAAAAAAAAAAAAAAAAAAAAAAAAAAAAAAAAAADwD3twIAAAAAAA5P/aCKqqqqqqqqqqqqqqqqqqqqqqqqqqqqqqqqqqqqqqqqqqqqqqqqqqqqqqqqqqqqqqqqqqqqqqqqqqqqqqqqqqqqqqqqqqqqqqqqqqqqqqqqqqqqqqqqqqqqqqqqqqqqqqqqqqqqqqqqqqqqqqqqqqqqqqqqqqqqqqqqqqqqqqqqqqqqqqqqqqqqqqqqqqqqqqqqqqqqqqqqqqqqqqqqqqqqqqqqqqqqqqqqqqqqqqqqqqqqqqqqqqqqqqqqqqqqqqqqqqqqqqqqqqqqqqqqqqqqqqqqqqqqqqqqqqqqqqqqqqqqqqqqqqqqqqqqqqqqqqqqqqqqqqqqqqqqqqqqqqqqqqqqqqqqqqqqqqqqqqqqqqqqqqqqqqqqqqqqqqqqqqqqqqqqqqqqqqqqqqqqqqqqqqqqqqqqqqqqqqqqqqqqqqqqqqqqqqqqqqqqqqqqqqqqqqqqqqqqqqqqqqqqqqqqqqqqqqqqqqqqqqqqqqqqqqqqqqqqqqqqqqqqqqqqqqqqqqqqqqqqqqqqqqqqqqqqqqqqqqqqqqqqqqqqqqqqqqqqqqqqqqqqqqqqqqqqqqqqqqqqqqqqqqqqqqqqqqqqqqqqqqqqqqqqqqqqqqqqqqqqqqqqqqqqqqqqqqqqqqqqqqqqqqqqqqqqqqqqqqqqqqqqqqqqqqqqqqqqqqqqoq7MGBAAAAAACQ/2sjqKqqqqqqqqqqqqqqqqqqqqqqqqqqqqqqqqqqqqqqqqqqqqqqqqqqqqqqqqqqqqqqqqqqqqqqqqqqqqqqqqqqqqqqqqqqqqqqqqqqqqqqqqqqqqqqqqqqqqqqqqqqqqqqqqqqqqqqqqqqqqqqqqqqqqqqqqqqqqqqqqqqqqqqqqqqqqqqqqqqqqqqqqqqqqqqqqqqqqqqqqqqqqqqqqqqqqqqqqqqqqqqqqqqqqqqqqqqqqqqqqqqqqqqqqqqqqqqqqqqqqqqqqqqqqqqqqqqqqqqqqqqqqqqqqqqqqqqqqqqqqqqqqqqqqqqqqqqqqqqqqqqqqqqqqqqqqqqqqqqqqqqqqqqqqqqqqqqqqqqqqqqqqqqqqqqqqqqqqqqqqqqqqqqqqqqqqqqqqqqqqqqqqqqqqqqqqqqqqqqqqqqqqqqqqqqqqqqqqqqqqqqqqqqqqqqqqqqqqqqqqqqqqqqqqqqqqqqqqqqqqqqqqqqqqqqqqqqqqqqqqqqqqqqqqqqqqqqqqqqqqqqqqqqqqqqqqqqqqqqqqqqqqqqqqqqqqqqqqqqqqqqqqqqqqqqqqqqqqqqqqqqqqqqqqqqqqqqqqqqqqqqqqqqqqqqqqqqqqqqqqqqqqqqqqqqqqqqqqqqqqqqqqqqqqqqqqqqqqqqqqqqqqqqqqqqqqqqqqqqqqqwBwcCAAAAAED+r42gqqqqqqqqqqqqqqqqqqqqqqqqqqqqqqqqqqqqqqqqqqqqqqqqqqqqqqqqqqqqqqqqqqqqqqqqqqqqqqqqqqqqqqqqqqqqqqqqqqqqqqqqqqqqqqqqqqqqqqqqqqqqqqqqqqqqqqqqqqqqqqqqqqqqqqqqqqqqqqqqqqqqqqqqqqqqqqqqqqqqqqqqqqqqqqqqqqqqqqqqqqqqqqqqqqqqqqqqqqqqqqqqqqqqqqqqqqqqqqqqqqqqqqqqqqqqqqqqqqqqqqqqqqqqqqqqqqqqqqqqqqqqqqqqqqqqqqqqqqqqqqqqqqqqqqqqqqqqqqqqqqqqqqqqqqqqqqqqqqqqqqqqqqqqqqqqqqqqqqqqqqqqqqqqqqqqqqqqqqqqqqqqqqqqqqqqqqqqqqqqqqqqqqqqqqqqqqqqqqqqqqqqqqqqqqqqqqqqqqqqqqqqqqqqqqqqqqqqqqqqqqqqqqqqqqqqqqqqqqqqqqqqqqqqqqqqqqqqqqqqqqqqqqqqqqqqqqqqqqqqqqqqqqqqqqqqqqqqqqqqqqqqqqqqqqqqqqqqqqqqqqqqqqqqqqqqqqqqqqqqqqqqqqqqqqqqqqqqqqqqqqqqqqqqqqqqqqqqqqqqqqqqqqqqqqqqqqqqqqqqqqqqqqqqqqqqqqqqqqqqqqqqqqqqqqqqqqqqqqqqqsIeHAgAAAAAAPm/NoKqqqqqqqqqqqqqqqqqqqqqqqqqqqqqqqqqqqqqqqqqqqqqqqqqqqqqqqqqqqqqqqqqqqqqqqqqqqqqqqqqqqqqqqqqqqqqqqqqqqqqqqqqqqqqqqqqqqqqqqqqqqqqqqqqqqqqqqqqqqqqqqqqqqqqqqqqqqqqqqqqqqqqqqqqqqqqqqqqqqqqqqqqqqqqqqqqqqqqqqqqqqqqqqqqqqqqqqqqqqqqqqqqqqqqqqqqqqqqqqqqqqqqqqqqqqqqqqqqqqqqqqqqqqqqqqqqqqqqqqqqqqqqqqqqqqqqqqqqqqqqqqqqqqqqqqqqqqqqqqqqqqqqqqqqqqqqqqqqqqqqqqqqqqqqqqqqqqqqqqqqqqqqqqqqqqqqqqqqqqqqqqqqqqqqqqqqqqqqqqqqqqqqqqqqqqqqqqqqqqqqqqqqqqqqqqqqqqqqqqqqqqqqqqqqqqqqqqqqqqqqqqqqqqqqqqqqqqqqqqqqqqqqqqqqqqqqqqqqqqqqqqqqqqqqqqqqqqqqqqqqqqqqqqqqqqqqqqqqqqqqqqqqqqqqqqqqqqqqqqqqqqqqqqqqqqqqqqqqqqqqqqqqqqqqqqqqqqqqqqqqqqqqqqqqqqqqqqqqqqqqqqqqqqqqqqqqqqqqqqqqqqqqqqqqqqqqqqqqqqqqqqqqqqqqqqqqqqqqqqqqSntwSAAAAAAg6P9rZ1gAAAAAAAAAAAAAAAAAAAAAAAAAAAAAAAAAAAAAAAAAAAAAAAAAAAAAAAAAAAAAAAAAAAAAAAAAAAAAAAAAAAAAAAAAAAAAAACAW8HNXaf7sJe+AAAAAElFTkSuQmCC;" parent="1" vertex="1">
                    <mxGeometry x="40" y="570" width="360" height="240" as="geometry"/>
                </mxCell>
            </root>
        </mxGraphModel>
    </diagram>
</mxfile>